G04 #@! TF.GenerationSoftware,KiCad,Pcbnew,5.1.12*
G04 #@! TF.CreationDate,2023-03-27T23:40:57-06:00*
G04 #@! TF.ProjectId,Talker,54616c6b-6572-42e6-9b69-6361645f7063,rev?*
G04 #@! TF.SameCoordinates,Original*
G04 #@! TF.FileFunction,Legend,Bot*
G04 #@! TF.FilePolarity,Positive*
%FSLAX46Y46*%
G04 Gerber Fmt 4.6, Leading zero omitted, Abs format (unit mm)*
G04 Created by KiCad (PCBNEW 5.1.12) date 2023-03-27 23:40:57*
%MOMM*%
%LPD*%
G01*
G04 APERTURE LIST*
%ADD10C,0.300000*%
%ADD11C,1.300000*%
%ADD12O,2.400000X1.600000*%
%ADD13R,2.400000X1.600000*%
%ADD14C,1.600000*%
%ADD15R,1.600000X1.600000*%
%ADD16C,2.000000*%
%ADD17R,2.000000X2.000000*%
%ADD18O,2.000000X3.000000*%
%ADD19O,3.000000X2.000000*%
%ADD20O,2.999999X2.000000*%
%ADD21C,3.200000*%
%ADD22C,1.500000*%
%ADD23O,1.700000X1.700000*%
%ADD24R,1.700000X1.700000*%
%ADD25O,2.190000X1.740000*%
%ADD26C,1.397000*%
%ADD27R,1.600000X2.400000*%
%ADD28O,1.600000X2.400000*%
%ADD29C,4.000000*%
%ADD30R,3.500000X3.500000*%
%ADD31C,4.600000*%
%ADD32C,1.800000*%
%ADD33O,1.600000X1.600000*%
G04 APERTURE END LIST*
D10*
X164903571Y-78610000D02*
X165046428Y-78538571D01*
X165260714Y-78538571D01*
X165475000Y-78610000D01*
X165617857Y-78752857D01*
X165689285Y-78895714D01*
X165760714Y-79181428D01*
X165760714Y-79395714D01*
X165689285Y-79681428D01*
X165617857Y-79824285D01*
X165475000Y-79967142D01*
X165260714Y-80038571D01*
X165117857Y-80038571D01*
X164903571Y-79967142D01*
X164832142Y-79895714D01*
X164832142Y-79395714D01*
X165117857Y-79395714D01*
X164189285Y-80038571D02*
X164189285Y-78538571D01*
X161475000Y-79895714D02*
X161546428Y-79967142D01*
X161760714Y-80038571D01*
X161903571Y-80038571D01*
X162117857Y-79967142D01*
X162260714Y-79824285D01*
X162332142Y-79681428D01*
X162403571Y-79395714D01*
X162403571Y-79181428D01*
X162332142Y-78895714D01*
X162260714Y-78752857D01*
X162117857Y-78610000D01*
X161903571Y-78538571D01*
X161760714Y-78538571D01*
X161546428Y-78610000D01*
X161475000Y-78681428D01*
X161046428Y-78538571D02*
X160189285Y-78538571D01*
X160617857Y-80038571D02*
X160617857Y-78538571D01*
X159760714Y-79967142D02*
X159546428Y-80038571D01*
X159189285Y-80038571D01*
X159046428Y-79967142D01*
X158975000Y-79895714D01*
X158903571Y-79752857D01*
X158903571Y-79610000D01*
X158975000Y-79467142D01*
X159046428Y-79395714D01*
X159189285Y-79324285D01*
X159475000Y-79252857D01*
X159617857Y-79181428D01*
X159689285Y-79110000D01*
X159760714Y-78967142D01*
X159760714Y-78824285D01*
X159689285Y-78681428D01*
X159617857Y-78610000D01*
X159475000Y-78538571D01*
X159117857Y-78538571D01*
X158903571Y-78610000D01*
X158332142Y-78681428D02*
X158260714Y-78610000D01*
X158117857Y-78538571D01*
X157760714Y-78538571D01*
X157617857Y-78610000D01*
X157546428Y-78681428D01*
X157475000Y-78824285D01*
X157475000Y-78967142D01*
X157546428Y-79181428D01*
X158403571Y-80038571D01*
X157475000Y-80038571D01*
X156117857Y-78538571D02*
X156832142Y-78538571D01*
X156903571Y-79252857D01*
X156832142Y-79181428D01*
X156689285Y-79110000D01*
X156332142Y-79110000D01*
X156189285Y-79181428D01*
X156117857Y-79252857D01*
X156046428Y-79395714D01*
X156046428Y-79752857D01*
X156117857Y-79895714D01*
X156189285Y-79967142D01*
X156332142Y-80038571D01*
X156689285Y-80038571D01*
X156832142Y-79967142D01*
X156903571Y-79895714D01*
X154760714Y-78538571D02*
X155046428Y-78538571D01*
X155189285Y-78610000D01*
X155260714Y-78681428D01*
X155403571Y-78895714D01*
X155475000Y-79181428D01*
X155475000Y-79752857D01*
X155403571Y-79895714D01*
X155332142Y-79967142D01*
X155189285Y-80038571D01*
X154903571Y-80038571D01*
X154760714Y-79967142D01*
X154689285Y-79895714D01*
X154617857Y-79752857D01*
X154617857Y-79395714D01*
X154689285Y-79252857D01*
X154760714Y-79181428D01*
X154903571Y-79110000D01*
X155189285Y-79110000D01*
X155332142Y-79181428D01*
X155403571Y-79252857D01*
X155475000Y-79395714D01*
X153975000Y-79467142D02*
X152832142Y-79467142D01*
X152189285Y-79610000D02*
X151475000Y-79610000D01*
X152332142Y-80038571D02*
X151832142Y-78538571D01*
X151332142Y-80038571D01*
X150117857Y-80038571D02*
X150832142Y-80038571D01*
X150832142Y-78538571D01*
X149689285Y-78681428D02*
X149617857Y-78610000D01*
X149475000Y-78538571D01*
X149117857Y-78538571D01*
X148975000Y-78610000D01*
X148903571Y-78681428D01*
X148832142Y-78824285D01*
X148832142Y-78967142D01*
X148903571Y-79181428D01*
X149760714Y-80038571D01*
X148832142Y-80038571D01*
X147117857Y-78467142D02*
X148403571Y-80395714D01*
X146689285Y-79967142D02*
X146475000Y-80038571D01*
X146117857Y-80038571D01*
X145975000Y-79967142D01*
X145903571Y-79895714D01*
X145832142Y-79752857D01*
X145832142Y-79610000D01*
X145903571Y-79467142D01*
X145975000Y-79395714D01*
X146117857Y-79324285D01*
X146403571Y-79252857D01*
X146546428Y-79181428D01*
X146617857Y-79110000D01*
X146689285Y-78967142D01*
X146689285Y-78824285D01*
X146617857Y-78681428D01*
X146546428Y-78610000D01*
X146403571Y-78538571D01*
X146046428Y-78538571D01*
X145832142Y-78610000D01*
X145189285Y-80038571D02*
X145189285Y-78538571D01*
X144617857Y-78538571D01*
X144475000Y-78610000D01*
X144403571Y-78681428D01*
X144332142Y-78824285D01*
X144332142Y-79038571D01*
X144403571Y-79181428D01*
X144475000Y-79252857D01*
X144617857Y-79324285D01*
X145189285Y-79324285D01*
X143403571Y-78538571D02*
X143117857Y-78538571D01*
X142975000Y-78610000D01*
X142832142Y-78752857D01*
X142760714Y-79038571D01*
X142760714Y-79538571D01*
X142832142Y-79824285D01*
X142975000Y-79967142D01*
X143117857Y-80038571D01*
X143403571Y-80038571D01*
X143546428Y-79967142D01*
X143689285Y-79824285D01*
X143760714Y-79538571D01*
X143760714Y-79038571D01*
X143689285Y-78752857D01*
X143546428Y-78610000D01*
X143403571Y-78538571D01*
X142189285Y-78681428D02*
X142117857Y-78610000D01*
X141975000Y-78538571D01*
X141617857Y-78538571D01*
X141475000Y-78610000D01*
X141403571Y-78681428D01*
X141332142Y-78824285D01*
X141332142Y-78967142D01*
X141403571Y-79181428D01*
X142260714Y-80038571D01*
X141332142Y-80038571D01*
X139975000Y-78538571D02*
X140689285Y-78538571D01*
X140760714Y-79252857D01*
X140689285Y-79181428D01*
X140546428Y-79110000D01*
X140189285Y-79110000D01*
X140046428Y-79181428D01*
X139975000Y-79252857D01*
X139903571Y-79395714D01*
X139903571Y-79752857D01*
X139975000Y-79895714D01*
X140046428Y-79967142D01*
X140189285Y-80038571D01*
X140546428Y-80038571D01*
X140689285Y-79967142D01*
X140760714Y-79895714D01*
X138617857Y-78538571D02*
X138903571Y-78538571D01*
X139046428Y-78610000D01*
X139117857Y-78681428D01*
X139260714Y-78895714D01*
X139332142Y-79181428D01*
X139332142Y-79752857D01*
X139260714Y-79895714D01*
X139189285Y-79967142D01*
X139046428Y-80038571D01*
X138760714Y-80038571D01*
X138617857Y-79967142D01*
X138546428Y-79895714D01*
X138475000Y-79752857D01*
X138475000Y-79395714D01*
X138546428Y-79252857D01*
X138617857Y-79181428D01*
X138760714Y-79110000D01*
X139046428Y-79110000D01*
X139189285Y-79181428D01*
X139260714Y-79252857D01*
X139332142Y-79395714D01*
X137832142Y-79467142D02*
X136689285Y-79467142D01*
X136046428Y-79610000D02*
X135332142Y-79610000D01*
X136189285Y-80038571D02*
X135689285Y-78538571D01*
X135189285Y-80038571D01*
X133975000Y-80038571D02*
X134689285Y-80038571D01*
X134689285Y-78538571D01*
X133546428Y-78681428D02*
X133475000Y-78610000D01*
X133332142Y-78538571D01*
X132975000Y-78538571D01*
X132832142Y-78610000D01*
X132760714Y-78681428D01*
X132689285Y-78824285D01*
X132689285Y-78967142D01*
X132760714Y-79181428D01*
X133617857Y-80038571D01*
X132689285Y-80038571D01*
X161225000Y-81088571D02*
X160367857Y-81088571D01*
X160796428Y-82588571D02*
X160796428Y-81088571D01*
X159296428Y-82517142D02*
X159439285Y-82588571D01*
X159725000Y-82588571D01*
X159867857Y-82517142D01*
X159939285Y-82374285D01*
X159939285Y-81802857D01*
X159867857Y-81660000D01*
X159725000Y-81588571D01*
X159439285Y-81588571D01*
X159296428Y-81660000D01*
X159225000Y-81802857D01*
X159225000Y-81945714D01*
X159939285Y-82088571D01*
X158725000Y-82588571D02*
X157939285Y-81588571D01*
X158725000Y-81588571D02*
X157939285Y-82588571D01*
X157582142Y-81588571D02*
X157010714Y-81588571D01*
X157367857Y-81088571D02*
X157367857Y-82374285D01*
X157296428Y-82517142D01*
X157153571Y-82588571D01*
X157010714Y-82588571D01*
X155582142Y-81588571D02*
X155010714Y-81588571D01*
X155367857Y-81088571D02*
X155367857Y-82374285D01*
X155296428Y-82517142D01*
X155153571Y-82588571D01*
X155010714Y-82588571D01*
X154296428Y-82588571D02*
X154439285Y-82517142D01*
X154510714Y-82445714D01*
X154582142Y-82302857D01*
X154582142Y-81874285D01*
X154510714Y-81731428D01*
X154439285Y-81660000D01*
X154296428Y-81588571D01*
X154082142Y-81588571D01*
X153939285Y-81660000D01*
X153867857Y-81731428D01*
X153796428Y-81874285D01*
X153796428Y-82302857D01*
X153867857Y-82445714D01*
X153939285Y-82517142D01*
X154082142Y-82588571D01*
X154296428Y-82588571D01*
X152082142Y-82517142D02*
X151939285Y-82588571D01*
X151653571Y-82588571D01*
X151510714Y-82517142D01*
X151439285Y-82374285D01*
X151439285Y-82302857D01*
X151510714Y-82160000D01*
X151653571Y-82088571D01*
X151867857Y-82088571D01*
X152010714Y-82017142D01*
X152082142Y-81874285D01*
X152082142Y-81802857D01*
X152010714Y-81660000D01*
X151867857Y-81588571D01*
X151653571Y-81588571D01*
X151510714Y-81660000D01*
X150796428Y-81588571D02*
X150796428Y-83088571D01*
X150796428Y-81660000D02*
X150653571Y-81588571D01*
X150367857Y-81588571D01*
X150225000Y-81660000D01*
X150153571Y-81731428D01*
X150082142Y-81874285D01*
X150082142Y-82302857D01*
X150153571Y-82445714D01*
X150225000Y-82517142D01*
X150367857Y-82588571D01*
X150653571Y-82588571D01*
X150796428Y-82517142D01*
X148867857Y-82517142D02*
X149010714Y-82588571D01*
X149296428Y-82588571D01*
X149439285Y-82517142D01*
X149510714Y-82374285D01*
X149510714Y-81802857D01*
X149439285Y-81660000D01*
X149296428Y-81588571D01*
X149010714Y-81588571D01*
X148867857Y-81660000D01*
X148796428Y-81802857D01*
X148796428Y-81945714D01*
X149510714Y-82088571D01*
X147582142Y-82517142D02*
X147725000Y-82588571D01*
X148010714Y-82588571D01*
X148153571Y-82517142D01*
X148225000Y-82374285D01*
X148225000Y-81802857D01*
X148153571Y-81660000D01*
X148010714Y-81588571D01*
X147725000Y-81588571D01*
X147582142Y-81660000D01*
X147510714Y-81802857D01*
X147510714Y-81945714D01*
X148225000Y-82088571D01*
X146225000Y-82517142D02*
X146367857Y-82588571D01*
X146653571Y-82588571D01*
X146796428Y-82517142D01*
X146867857Y-82445714D01*
X146939285Y-82302857D01*
X146939285Y-81874285D01*
X146867857Y-81731428D01*
X146796428Y-81660000D01*
X146653571Y-81588571D01*
X146367857Y-81588571D01*
X146225000Y-81660000D01*
X145582142Y-82588571D02*
X145582142Y-81088571D01*
X144939285Y-82588571D02*
X144939285Y-81802857D01*
X145010714Y-81660000D01*
X145153571Y-81588571D01*
X145367857Y-81588571D01*
X145510714Y-81660000D01*
X145582142Y-81731428D01*
X143082142Y-82588571D02*
X143082142Y-81088571D01*
X143082142Y-81660000D02*
X142939285Y-81588571D01*
X142653571Y-81588571D01*
X142510714Y-81660000D01*
X142439285Y-81731428D01*
X142367857Y-81874285D01*
X142367857Y-82302857D01*
X142439285Y-82445714D01*
X142510714Y-82517142D01*
X142653571Y-82588571D01*
X142939285Y-82588571D01*
X143082142Y-82517142D01*
X141510714Y-82588571D02*
X141653571Y-82517142D01*
X141725000Y-82445714D01*
X141796428Y-82302857D01*
X141796428Y-81874285D01*
X141725000Y-81731428D01*
X141653571Y-81660000D01*
X141510714Y-81588571D01*
X141296428Y-81588571D01*
X141153571Y-81660000D01*
X141082142Y-81731428D01*
X141010714Y-81874285D01*
X141010714Y-82302857D01*
X141082142Y-82445714D01*
X141153571Y-82517142D01*
X141296428Y-82588571D01*
X141510714Y-82588571D01*
X139725000Y-82588571D02*
X139725000Y-81802857D01*
X139796428Y-81660000D01*
X139939285Y-81588571D01*
X140225000Y-81588571D01*
X140367857Y-81660000D01*
X139725000Y-82517142D02*
X139867857Y-82588571D01*
X140225000Y-82588571D01*
X140367857Y-82517142D01*
X140439285Y-82374285D01*
X140439285Y-82231428D01*
X140367857Y-82088571D01*
X140225000Y-82017142D01*
X139867857Y-82017142D01*
X139725000Y-81945714D01*
X139010714Y-82588571D02*
X139010714Y-81588571D01*
X139010714Y-81874285D02*
X138939285Y-81731428D01*
X138867857Y-81660000D01*
X138725000Y-81588571D01*
X138582142Y-81588571D01*
X137439285Y-82588571D02*
X137439285Y-81088571D01*
X137439285Y-82517142D02*
X137582142Y-82588571D01*
X137867857Y-82588571D01*
X138010714Y-82517142D01*
X138082142Y-82445714D01*
X138153571Y-82302857D01*
X138153571Y-81874285D01*
X138082142Y-81731428D01*
X138010714Y-81660000D01*
X137867857Y-81588571D01*
X137582142Y-81588571D01*
X137439285Y-81660000D01*
X153796428Y-83638571D02*
X153296428Y-85138571D01*
X152796428Y-83638571D01*
X151725000Y-85067142D02*
X151867857Y-85138571D01*
X152153571Y-85138571D01*
X152296428Y-85067142D01*
X152367857Y-84924285D01*
X152367857Y-84352857D01*
X152296428Y-84210000D01*
X152153571Y-84138571D01*
X151867857Y-84138571D01*
X151725000Y-84210000D01*
X151653571Y-84352857D01*
X151653571Y-84495714D01*
X152367857Y-84638571D01*
X151010714Y-85138571D02*
X151010714Y-84138571D01*
X151010714Y-84424285D02*
X150939285Y-84281428D01*
X150867857Y-84210000D01*
X150725000Y-84138571D01*
X150582142Y-84138571D01*
X150153571Y-85067142D02*
X150010714Y-85138571D01*
X149725000Y-85138571D01*
X149582142Y-85067142D01*
X149510714Y-84924285D01*
X149510714Y-84852857D01*
X149582142Y-84710000D01*
X149725000Y-84638571D01*
X149939285Y-84638571D01*
X150082142Y-84567142D01*
X150153571Y-84424285D01*
X150153571Y-84352857D01*
X150082142Y-84210000D01*
X149939285Y-84138571D01*
X149725000Y-84138571D01*
X149582142Y-84210000D01*
X147796428Y-83781428D02*
X147725000Y-83710000D01*
X147582142Y-83638571D01*
X147225000Y-83638571D01*
X147082142Y-83710000D01*
X147010714Y-83781428D01*
X146939285Y-83924285D01*
X146939285Y-84067142D01*
X147010714Y-84281428D01*
X147867857Y-85138571D01*
X146939285Y-85138571D01*
X146296428Y-84995714D02*
X146225000Y-85067142D01*
X146296428Y-85138571D01*
X146367857Y-85067142D01*
X146296428Y-84995714D01*
X146296428Y-85138571D01*
X145296428Y-83638571D02*
X145153571Y-83638571D01*
X145010714Y-83710000D01*
X144939285Y-83781428D01*
X144867857Y-83924285D01*
X144796428Y-84210000D01*
X144796428Y-84567142D01*
X144867857Y-84852857D01*
X144939285Y-84995714D01*
X145010714Y-85067142D01*
X145153571Y-85138571D01*
X145296428Y-85138571D01*
X145439285Y-85067142D01*
X145510714Y-84995714D01*
X145582142Y-84852857D01*
X145653571Y-84567142D01*
X145653571Y-84210000D01*
X145582142Y-83924285D01*
X145510714Y-83781428D01*
X145439285Y-83710000D01*
X145296428Y-83638571D01*
X156296428Y-87688571D02*
X156296428Y-86188571D01*
X155796428Y-87260000D01*
X155296428Y-86188571D01*
X155296428Y-87688571D01*
X153939285Y-87688571D02*
X153939285Y-86902857D01*
X154010714Y-86760000D01*
X154153571Y-86688571D01*
X154439285Y-86688571D01*
X154582142Y-86760000D01*
X153939285Y-87617142D02*
X154082142Y-87688571D01*
X154439285Y-87688571D01*
X154582142Y-87617142D01*
X154653571Y-87474285D01*
X154653571Y-87331428D01*
X154582142Y-87188571D01*
X154439285Y-87117142D01*
X154082142Y-87117142D01*
X153939285Y-87045714D01*
X153225000Y-87688571D02*
X153225000Y-86688571D01*
X153225000Y-86974285D02*
X153153571Y-86831428D01*
X153082142Y-86760000D01*
X152939285Y-86688571D01*
X152796428Y-86688571D01*
X151225000Y-86331428D02*
X151153571Y-86260000D01*
X151010714Y-86188571D01*
X150653571Y-86188571D01*
X150510714Y-86260000D01*
X150439285Y-86331428D01*
X150367857Y-86474285D01*
X150367857Y-86617142D01*
X150439285Y-86831428D01*
X151296428Y-87688571D01*
X150367857Y-87688571D01*
X149439285Y-86188571D02*
X149296428Y-86188571D01*
X149153571Y-86260000D01*
X149082142Y-86331428D01*
X149010714Y-86474285D01*
X148939285Y-86760000D01*
X148939285Y-87117142D01*
X149010714Y-87402857D01*
X149082142Y-87545714D01*
X149153571Y-87617142D01*
X149296428Y-87688571D01*
X149439285Y-87688571D01*
X149582142Y-87617142D01*
X149653571Y-87545714D01*
X149725000Y-87402857D01*
X149796428Y-87117142D01*
X149796428Y-86760000D01*
X149725000Y-86474285D01*
X149653571Y-86331428D01*
X149582142Y-86260000D01*
X149439285Y-86188571D01*
X147225000Y-86331428D02*
X147153571Y-86260000D01*
X147010714Y-86188571D01*
X146653571Y-86188571D01*
X146510714Y-86260000D01*
X146439285Y-86331428D01*
X146367857Y-86474285D01*
X146367857Y-86617142D01*
X146439285Y-86831428D01*
X147296428Y-87688571D01*
X146367857Y-87688571D01*
X145439285Y-86188571D02*
X145296428Y-86188571D01*
X145153571Y-86260000D01*
X145082142Y-86331428D01*
X145010714Y-86474285D01*
X144939285Y-86760000D01*
X144939285Y-87117142D01*
X145010714Y-87402857D01*
X145082142Y-87545714D01*
X145153571Y-87617142D01*
X145296428Y-87688571D01*
X145439285Y-87688571D01*
X145582142Y-87617142D01*
X145653571Y-87545714D01*
X145725000Y-87402857D01*
X145796428Y-87117142D01*
X145796428Y-86760000D01*
X145725000Y-86474285D01*
X145653571Y-86331428D01*
X145582142Y-86260000D01*
X145439285Y-86188571D01*
X144367857Y-86331428D02*
X144296428Y-86260000D01*
X144153571Y-86188571D01*
X143796428Y-86188571D01*
X143653571Y-86260000D01*
X143582142Y-86331428D01*
X143510714Y-86474285D01*
X143510714Y-86617142D01*
X143582142Y-86831428D01*
X144439285Y-87688571D01*
X143510714Y-87688571D01*
X143010714Y-86188571D02*
X142082142Y-86188571D01*
X142582142Y-86760000D01*
X142367857Y-86760000D01*
X142225000Y-86831428D01*
X142153571Y-86902857D01*
X142082142Y-87045714D01*
X142082142Y-87402857D01*
X142153571Y-87545714D01*
X142225000Y-87617142D01*
X142367857Y-87688571D01*
X142796428Y-87688571D01*
X142939285Y-87617142D01*
X143010714Y-87545714D01*
%LPC*%
D11*
X127000000Y-81280000D03*
X127000000Y-78780000D03*
D12*
X123190000Y-78740000D03*
X115570000Y-86360000D03*
X123190000Y-81280000D03*
X115570000Y-83820000D03*
X123190000Y-83820000D03*
X115570000Y-81280000D03*
X123190000Y-86360000D03*
D13*
X115570000Y-78740000D03*
D14*
X128270000Y-86455000D03*
D15*
X128270000Y-84455000D03*
D14*
X110490000Y-83280000D03*
D15*
X110490000Y-81280000D03*
D11*
X150241000Y-115316000D03*
X150241000Y-112816000D03*
X150241000Y-117856000D03*
X150241000Y-120356000D03*
X150241000Y-107696000D03*
X150241000Y-110196000D03*
X133731000Y-119888000D03*
X133731000Y-122388000D03*
X133731000Y-115316000D03*
X133731000Y-117816000D03*
X150241000Y-105156000D03*
X150241000Y-102656000D03*
X144399000Y-101981000D03*
X141899000Y-101981000D03*
X105664000Y-86233000D03*
X108164000Y-86233000D03*
X131953000Y-134493000D03*
X134453000Y-134493000D03*
X133350000Y-107315000D03*
X133350000Y-104815000D03*
X102108000Y-144653000D03*
X104608000Y-144653000D03*
X144526000Y-134366000D03*
X147026000Y-134366000D03*
X159385000Y-120650000D03*
X156885000Y-120650000D03*
X105664000Y-109220000D03*
X108164000Y-109220000D03*
X164846000Y-99314000D03*
X164846000Y-96814000D03*
X94361000Y-153797000D03*
X96861000Y-153797000D03*
X167005000Y-134620000D03*
X164505000Y-134620000D03*
X159385000Y-137795000D03*
X156885000Y-137795000D03*
X169545000Y-134620000D03*
X172045000Y-134620000D03*
X160655000Y-134620000D03*
X158155000Y-134620000D03*
X78994000Y-133858000D03*
X78994000Y-136358000D03*
X78994000Y-154305000D03*
X78994000Y-151805000D03*
X155321000Y-102616000D03*
X152821000Y-102616000D03*
X138938000Y-88265000D03*
X138938000Y-90765000D03*
X138938000Y-98171000D03*
X138938000Y-95671000D03*
D16*
X173101000Y-119888000D03*
D17*
X173101000Y-117348000D03*
D18*
X173228000Y-108966000D03*
D14*
X173228000Y-103966000D03*
X173228000Y-113966000D03*
X168228000Y-108966000D03*
D19*
X168228000Y-103966000D03*
D20*
X168228000Y-106466000D03*
D19*
X168228000Y-113966000D03*
D21*
X171272200Y-171272200D03*
X171272200Y-81026000D03*
X81026000Y-171272200D03*
X81026000Y-81026000D03*
D14*
X164623500Y-87122000D03*
D15*
X162623500Y-87122000D03*
D14*
X167981000Y-118681500D03*
D15*
X165481000Y-118681500D03*
D22*
X134239000Y-95631000D03*
X134239000Y-90751000D03*
D23*
X112585500Y-144462500D03*
X110045500Y-144462500D03*
D24*
X107505500Y-144462500D03*
D25*
X160401000Y-111506000D03*
G36*
G01*
X161246001Y-114916000D02*
X159555999Y-114916000D01*
G75*
G02*
X159306000Y-114666001I0J249999D01*
G01*
X159306000Y-113425999D01*
G75*
G02*
X159555999Y-113176000I249999J0D01*
G01*
X161246001Y-113176000D01*
G75*
G02*
X161496000Y-113425999I0J-249999D01*
G01*
X161496000Y-114666001D01*
G75*
G02*
X161246001Y-114916000I-249999J0D01*
G01*
G37*
D16*
X92392500Y-83225500D03*
X96892500Y-83225500D03*
X92392500Y-89725500D03*
X96892500Y-89725500D03*
D26*
X152400000Y-129921000D03*
X152400000Y-122301000D03*
X147066000Y-128905000D03*
X139446000Y-128905000D03*
D23*
X136334500Y-128905000D03*
D24*
X133794500Y-128905000D03*
D27*
X156845000Y-131445000D03*
D28*
X174625000Y-123825000D03*
X159385000Y-131445000D03*
X172085000Y-123825000D03*
X161925000Y-131445000D03*
X169545000Y-123825000D03*
X164465000Y-131445000D03*
X167005000Y-123825000D03*
X167005000Y-131445000D03*
X164465000Y-123825000D03*
X169545000Y-131445000D03*
X161925000Y-123825000D03*
X172085000Y-131445000D03*
X159385000Y-123825000D03*
X174625000Y-131445000D03*
X156845000Y-123825000D03*
D15*
X165735000Y-146812000D03*
D14*
X165735000Y-149582000D03*
X165735000Y-152352000D03*
X165735000Y-155122000D03*
X165735000Y-157892000D03*
X168575000Y-148197000D03*
X168575000Y-150967000D03*
X168575000Y-153737000D03*
X168575000Y-156507000D03*
D29*
X167155000Y-164852000D03*
X167155000Y-139852000D03*
D26*
X146939000Y-123190000D03*
X139319000Y-123190000D03*
X155321000Y-110236000D03*
X155321000Y-117856000D03*
X136525000Y-110236000D03*
X136525000Y-102616000D03*
X136525000Y-120396000D03*
X136525000Y-112776000D03*
X153035000Y-115316000D03*
X153035000Y-107696000D03*
D12*
X146939000Y-105156000D03*
X139319000Y-120396000D03*
X146939000Y-107696000D03*
X139319000Y-117856000D03*
X146939000Y-110236000D03*
X139319000Y-115316000D03*
X146939000Y-112776000D03*
X139319000Y-112776000D03*
X146939000Y-115316000D03*
X139319000Y-110236000D03*
X146939000Y-117856000D03*
X139319000Y-107696000D03*
X146939000Y-120396000D03*
D13*
X139319000Y-105156000D03*
X114427000Y-92075000D03*
D12*
X129667000Y-125095000D03*
X114427000Y-94615000D03*
X129667000Y-122555000D03*
X114427000Y-97155000D03*
X129667000Y-120015000D03*
X114427000Y-99695000D03*
X129667000Y-117475000D03*
X114427000Y-102235000D03*
X129667000Y-114935000D03*
X114427000Y-104775000D03*
X129667000Y-112395000D03*
X114427000Y-107315000D03*
X129667000Y-109855000D03*
X114427000Y-109855000D03*
X129667000Y-107315000D03*
X114427000Y-112395000D03*
X129667000Y-104775000D03*
X114427000Y-114935000D03*
X129667000Y-102235000D03*
X114427000Y-117475000D03*
X129667000Y-99695000D03*
X114427000Y-120015000D03*
X129667000Y-97155000D03*
X114427000Y-122555000D03*
X129667000Y-94615000D03*
X114427000Y-125095000D03*
X129667000Y-92075000D03*
D14*
X95504000Y-96988000D03*
D15*
X95504000Y-94488000D03*
D12*
X110744000Y-89535000D03*
X103124000Y-104775000D03*
X110744000Y-92075000D03*
X103124000Y-102235000D03*
X110744000Y-94615000D03*
X103124000Y-99695000D03*
X110744000Y-97155000D03*
X103124000Y-97155000D03*
X110744000Y-99695000D03*
X103124000Y-94615000D03*
X110744000Y-102235000D03*
X103124000Y-92075000D03*
X110744000Y-104775000D03*
D13*
X103124000Y-89535000D03*
D30*
X87757000Y-92710000D03*
G36*
G01*
X80257000Y-93710000D02*
X80257000Y-91710000D01*
G75*
G02*
X81007000Y-90960000I750000J0D01*
G01*
X82507000Y-90960000D01*
G75*
G02*
X83257000Y-91710000I0J-750000D01*
G01*
X83257000Y-93710000D01*
G75*
G02*
X82507000Y-94460000I-750000J0D01*
G01*
X81007000Y-94460000D01*
G75*
G02*
X80257000Y-93710000I0J750000D01*
G01*
G37*
G36*
G01*
X83007000Y-98285000D02*
X83007000Y-96535000D01*
G75*
G02*
X83882000Y-95660000I875000J0D01*
G01*
X85632000Y-95660000D01*
G75*
G02*
X86507000Y-96535000I0J-875000D01*
G01*
X86507000Y-98285000D01*
G75*
G02*
X85632000Y-99160000I-875000J0D01*
G01*
X83882000Y-99160000D01*
G75*
G02*
X83007000Y-98285000I0J875000D01*
G01*
G37*
D31*
X169166000Y-99555000D03*
X169166000Y-87255000D03*
D32*
X172466000Y-97155000D03*
X172466000Y-94655000D03*
X172466000Y-92155000D03*
X172466000Y-89655000D03*
D26*
X100203000Y-86868000D03*
X100203000Y-94488000D03*
X92583000Y-160655000D03*
X100203000Y-160655000D03*
X163068000Y-105410000D03*
X155448000Y-105410000D03*
D13*
X84074000Y-102235000D03*
D12*
X99314000Y-150495000D03*
X84074000Y-104775000D03*
X99314000Y-147955000D03*
X84074000Y-107315000D03*
X99314000Y-145415000D03*
X84074000Y-109855000D03*
X99314000Y-142875000D03*
X84074000Y-112395000D03*
X99314000Y-140335000D03*
X84074000Y-114935000D03*
X99314000Y-137795000D03*
X84074000Y-117475000D03*
X99314000Y-135255000D03*
X84074000Y-120015000D03*
X99314000Y-132715000D03*
X84074000Y-122555000D03*
X99314000Y-130175000D03*
X84074000Y-125095000D03*
X99314000Y-127635000D03*
X84074000Y-127635000D03*
X99314000Y-125095000D03*
X84074000Y-130175000D03*
X99314000Y-122555000D03*
X84074000Y-132715000D03*
X99314000Y-120015000D03*
X84074000Y-135255000D03*
X99314000Y-117475000D03*
X84074000Y-137795000D03*
X99314000Y-114935000D03*
X84074000Y-140335000D03*
X99314000Y-112395000D03*
X84074000Y-142875000D03*
X99314000Y-109855000D03*
X84074000Y-145415000D03*
X99314000Y-107315000D03*
X84074000Y-147955000D03*
X99314000Y-104775000D03*
X84074000Y-150495000D03*
X99314000Y-102235000D03*
D13*
X103124000Y-112395000D03*
D12*
X110744000Y-135255000D03*
X103124000Y-114935000D03*
X110744000Y-132715000D03*
X103124000Y-117475000D03*
X110744000Y-130175000D03*
X103124000Y-120015000D03*
X110744000Y-127635000D03*
X103124000Y-122555000D03*
X110744000Y-125095000D03*
X103124000Y-125095000D03*
X110744000Y-122555000D03*
X103124000Y-127635000D03*
X110744000Y-120015000D03*
X103124000Y-130175000D03*
X110744000Y-117475000D03*
X103124000Y-132715000D03*
X110744000Y-114935000D03*
X103124000Y-135255000D03*
X110744000Y-112395000D03*
X110744000Y-147955000D03*
X103124000Y-165735000D03*
X110744000Y-150495000D03*
X103124000Y-163195000D03*
X110744000Y-153035000D03*
X103124000Y-160655000D03*
X110744000Y-155575000D03*
X103124000Y-158115000D03*
X110744000Y-158115000D03*
X103124000Y-155575000D03*
X110744000Y-160655000D03*
X103124000Y-153035000D03*
X110744000Y-163195000D03*
X103124000Y-150495000D03*
X110744000Y-165735000D03*
D13*
X103124000Y-147955000D03*
X154178000Y-91694000D03*
D12*
X161798000Y-99314000D03*
X154178000Y-94234000D03*
X161798000Y-96774000D03*
X154178000Y-96774000D03*
X161798000Y-94234000D03*
X154178000Y-99314000D03*
X161798000Y-91694000D03*
D13*
X119126000Y-137795000D03*
D12*
X134366000Y-165735000D03*
X119126000Y-140335000D03*
X134366000Y-163195000D03*
X119126000Y-142875000D03*
X134366000Y-160655000D03*
X119126000Y-145415000D03*
X134366000Y-158115000D03*
X119126000Y-147955000D03*
X134366000Y-155575000D03*
X119126000Y-150495000D03*
X134366000Y-153035000D03*
X119126000Y-153035000D03*
X134366000Y-150495000D03*
X119126000Y-155575000D03*
X134366000Y-147955000D03*
X119126000Y-158115000D03*
X134366000Y-145415000D03*
X119126000Y-160655000D03*
X134366000Y-142875000D03*
X119126000Y-163195000D03*
X134366000Y-140335000D03*
X119126000Y-165735000D03*
X134366000Y-137795000D03*
X153416000Y-137795000D03*
X138176000Y-165735000D03*
X153416000Y-140335000D03*
X138176000Y-163195000D03*
X153416000Y-142875000D03*
X138176000Y-160655000D03*
X153416000Y-145415000D03*
X138176000Y-158115000D03*
X153416000Y-147955000D03*
X138176000Y-155575000D03*
X153416000Y-150495000D03*
X138176000Y-153035000D03*
X153416000Y-153035000D03*
X138176000Y-150495000D03*
X153416000Y-155575000D03*
X138176000Y-147955000D03*
X153416000Y-158115000D03*
X138176000Y-145415000D03*
X153416000Y-160655000D03*
X138176000Y-142875000D03*
X153416000Y-163195000D03*
X138176000Y-140335000D03*
X153416000Y-165735000D03*
D13*
X138176000Y-137795000D03*
D22*
X78994000Y-146485000D03*
X78994000Y-141605000D03*
D15*
X80264000Y-112395000D03*
D33*
X80264000Y-114935000D03*
X80264000Y-117475000D03*
X80264000Y-120015000D03*
X80264000Y-122555000D03*
X80264000Y-125095000D03*
X80264000Y-127635000D03*
M02*
