%FSLAX45Y45*%
G04 Gerber Fmt 4.5, Leading zero omitted, Abs format (unit mm)*
G04 Created by KiCad (PCBNEW 5.1.12) date 2023-02-04 16:13:30*
%MOMM*%
%LPD*%
G01*
G04 APERTURE LIST*
%TA.AperFunction,Profile*%
%ADD10C,0.150000*%
%TD*%
%ADD11C,0.200000*%
%ADD12C,0.300000*%
G04 APERTURE END LIST*
D10*
X17610000Y-7620000D02*
X7620000Y-7620000D01*
X17610000Y-7620000D02*
X17610000Y-17610000D01*
X7620000Y-17610000D02*
X17610000Y-17610000D01*
X7620000Y-7620000D02*
X7620000Y-17610000D01*
D11*
X16742800Y-10816600D02*
X16902800Y-10976600D01*
X16902800Y-10816600D02*
X16742800Y-10976600D01*
X17242800Y-10316600D02*
X17402800Y-10476600D01*
X17402800Y-10316600D02*
X17242800Y-10476600D01*
X17242800Y-11316600D02*
X17402800Y-11476600D01*
X17402800Y-11316600D02*
X17242800Y-11476600D01*
X8262600Y-8102600D02*
G75*
G03*
X8262600Y-8102600I-160000J0D01*
G01*
X8262600Y-17127220D02*
G75*
G03*
X8262600Y-17127220I-160000J0D01*
G01*
X17287220Y-8102600D02*
G75*
G03*
X17287220Y-8102600I-160000J0D01*
G01*
X17287220Y-17127220D02*
G75*
G03*
X17287220Y-17127220I-160000J0D01*
G01*
D12*
X7898928Y-18083214D02*
X7898928Y-17783214D01*
X7970357Y-17783214D01*
X8013214Y-17797500D01*
X8041786Y-17826072D01*
X8056071Y-17854643D01*
X8070357Y-17911786D01*
X8070357Y-17954643D01*
X8056071Y-18011786D01*
X8041786Y-18040357D01*
X8013214Y-18068929D01*
X7970357Y-18083214D01*
X7898928Y-18083214D01*
X8198928Y-18083214D02*
X8198928Y-17883214D01*
X8198928Y-17940357D02*
X8213214Y-17911786D01*
X8227500Y-17897500D01*
X8256071Y-17883214D01*
X8284643Y-17883214D01*
X8384643Y-18083214D02*
X8384643Y-17883214D01*
X8384643Y-17783214D02*
X8370357Y-17797500D01*
X8384643Y-17811786D01*
X8398928Y-17797500D01*
X8384643Y-17783214D01*
X8384643Y-17811786D01*
X8570357Y-18083214D02*
X8541786Y-18068929D01*
X8527500Y-18040357D01*
X8527500Y-17783214D01*
X8727500Y-18083214D02*
X8698928Y-18068929D01*
X8684643Y-18040357D01*
X8684643Y-17783214D01*
X9070357Y-18083214D02*
X9070357Y-17783214D01*
X9170357Y-17997500D01*
X9270357Y-17783214D01*
X9270357Y-18083214D01*
X9541786Y-18083214D02*
X9541786Y-17926072D01*
X9527500Y-17897500D01*
X9498928Y-17883214D01*
X9441786Y-17883214D01*
X9413214Y-17897500D01*
X9541786Y-18068929D02*
X9513214Y-18083214D01*
X9441786Y-18083214D01*
X9413214Y-18068929D01*
X9398928Y-18040357D01*
X9398928Y-18011786D01*
X9413214Y-17983214D01*
X9441786Y-17968929D01*
X9513214Y-17968929D01*
X9541786Y-17954643D01*
X9684643Y-17883214D02*
X9684643Y-18183214D01*
X9684643Y-17897500D02*
X9713214Y-17883214D01*
X9770357Y-17883214D01*
X9798928Y-17897500D01*
X9813214Y-17911786D01*
X9827500Y-17940357D01*
X9827500Y-18026072D01*
X9813214Y-18054643D01*
X9798928Y-18068929D01*
X9770357Y-18083214D01*
X9713214Y-18083214D01*
X9684643Y-18068929D01*
X9956071Y-18054643D02*
X9970357Y-18068929D01*
X9956071Y-18083214D01*
X9941786Y-18068929D01*
X9956071Y-18054643D01*
X9956071Y-18083214D01*
X9956071Y-17897500D02*
X9970357Y-17911786D01*
X9956071Y-17926072D01*
X9941786Y-17911786D01*
X9956071Y-17897500D01*
X9956071Y-17926072D01*
X7452500Y-18497500D02*
X7612500Y-18657500D01*
X7612500Y-18497500D02*
X7452500Y-18657500D01*
X8056071Y-18713214D02*
X7884643Y-18713214D01*
X7970357Y-18713214D02*
X7970357Y-18413214D01*
X7941786Y-18456072D01*
X7913214Y-18484643D01*
X7884643Y-18498929D01*
X8184643Y-18684643D02*
X8198928Y-18698929D01*
X8184643Y-18713214D01*
X8170357Y-18698929D01*
X8184643Y-18684643D01*
X8184643Y-18713214D01*
X8456071Y-18413214D02*
X8398928Y-18413214D01*
X8370357Y-18427500D01*
X8356071Y-18441786D01*
X8327500Y-18484643D01*
X8313214Y-18541786D01*
X8313214Y-18656072D01*
X8327500Y-18684643D01*
X8341786Y-18698929D01*
X8370357Y-18713214D01*
X8427500Y-18713214D01*
X8456071Y-18698929D01*
X8470357Y-18684643D01*
X8484643Y-18656072D01*
X8484643Y-18584643D01*
X8470357Y-18556072D01*
X8456071Y-18541786D01*
X8427500Y-18527500D01*
X8370357Y-18527500D01*
X8341786Y-18541786D01*
X8327500Y-18556072D01*
X8313214Y-18584643D01*
X8670357Y-18413214D02*
X8698928Y-18413214D01*
X8727500Y-18427500D01*
X8741786Y-18441786D01*
X8756071Y-18470357D01*
X8770357Y-18527500D01*
X8770357Y-18598929D01*
X8756071Y-18656072D01*
X8741786Y-18684643D01*
X8727500Y-18698929D01*
X8698928Y-18713214D01*
X8670357Y-18713214D01*
X8641786Y-18698929D01*
X8627500Y-18684643D01*
X8613214Y-18656072D01*
X8598928Y-18598929D01*
X8598928Y-18527500D01*
X8613214Y-18470357D01*
X8627500Y-18441786D01*
X8641786Y-18427500D01*
X8670357Y-18413214D01*
X8956071Y-18413214D02*
X8984643Y-18413214D01*
X9013214Y-18427500D01*
X9027500Y-18441786D01*
X9041786Y-18470357D01*
X9056071Y-18527500D01*
X9056071Y-18598929D01*
X9041786Y-18656072D01*
X9027500Y-18684643D01*
X9013214Y-18698929D01*
X8984643Y-18713214D01*
X8956071Y-18713214D01*
X8927500Y-18698929D01*
X8913214Y-18684643D01*
X8898928Y-18656072D01*
X8884643Y-18598929D01*
X8884643Y-18527500D01*
X8898928Y-18470357D01*
X8913214Y-18441786D01*
X8927500Y-18427500D01*
X8956071Y-18413214D01*
X9184643Y-18713214D02*
X9184643Y-18513214D01*
X9184643Y-18541786D02*
X9198928Y-18527500D01*
X9227500Y-18513214D01*
X9270357Y-18513214D01*
X9298928Y-18527500D01*
X9313214Y-18556072D01*
X9313214Y-18713214D01*
X9313214Y-18556072D02*
X9327500Y-18527500D01*
X9356071Y-18513214D01*
X9398928Y-18513214D01*
X9427500Y-18527500D01*
X9441786Y-18556072D01*
X9441786Y-18713214D01*
X9584643Y-18713214D02*
X9584643Y-18513214D01*
X9584643Y-18541786D02*
X9598928Y-18527500D01*
X9627500Y-18513214D01*
X9670357Y-18513214D01*
X9698928Y-18527500D01*
X9713214Y-18556072D01*
X9713214Y-18713214D01*
X9713214Y-18556072D02*
X9727500Y-18527500D01*
X9756071Y-18513214D01*
X9798928Y-18513214D01*
X9827500Y-18527500D01*
X9841786Y-18556072D01*
X9841786Y-18713214D01*
X10427500Y-18398929D02*
X10170357Y-18784643D01*
X10813214Y-18413214D02*
X10841786Y-18413214D01*
X10870357Y-18427500D01*
X10884643Y-18441786D01*
X10898928Y-18470357D01*
X10913214Y-18527500D01*
X10913214Y-18598929D01*
X10898928Y-18656072D01*
X10884643Y-18684643D01*
X10870357Y-18698929D01*
X10841786Y-18713214D01*
X10813214Y-18713214D01*
X10784643Y-18698929D01*
X10770357Y-18684643D01*
X10756071Y-18656072D01*
X10741786Y-18598929D01*
X10741786Y-18527500D01*
X10756071Y-18470357D01*
X10770357Y-18441786D01*
X10784643Y-18427500D01*
X10813214Y-18413214D01*
X11041786Y-18684643D02*
X11056071Y-18698929D01*
X11041786Y-18713214D01*
X11027500Y-18698929D01*
X11041786Y-18684643D01*
X11041786Y-18713214D01*
X11241786Y-18413214D02*
X11270357Y-18413214D01*
X11298928Y-18427500D01*
X11313214Y-18441786D01*
X11327500Y-18470357D01*
X11341786Y-18527500D01*
X11341786Y-18598929D01*
X11327500Y-18656072D01*
X11313214Y-18684643D01*
X11298928Y-18698929D01*
X11270357Y-18713214D01*
X11241786Y-18713214D01*
X11213214Y-18698929D01*
X11198928Y-18684643D01*
X11184643Y-18656072D01*
X11170357Y-18598929D01*
X11170357Y-18527500D01*
X11184643Y-18470357D01*
X11198928Y-18441786D01*
X11213214Y-18427500D01*
X11241786Y-18413214D01*
X11598928Y-18413214D02*
X11541786Y-18413214D01*
X11513214Y-18427500D01*
X11498928Y-18441786D01*
X11470357Y-18484643D01*
X11456071Y-18541786D01*
X11456071Y-18656072D01*
X11470357Y-18684643D01*
X11484643Y-18698929D01*
X11513214Y-18713214D01*
X11570357Y-18713214D01*
X11598928Y-18698929D01*
X11613214Y-18684643D01*
X11627500Y-18656072D01*
X11627500Y-18584643D01*
X11613214Y-18556072D01*
X11598928Y-18541786D01*
X11570357Y-18527500D01*
X11513214Y-18527500D01*
X11484643Y-18541786D01*
X11470357Y-18556072D01*
X11456071Y-18584643D01*
X11727500Y-18413214D02*
X11913214Y-18413214D01*
X11813214Y-18527500D01*
X11856071Y-18527500D01*
X11884643Y-18541786D01*
X11898928Y-18556072D01*
X11913214Y-18584643D01*
X11913214Y-18656072D01*
X11898928Y-18684643D01*
X11884643Y-18698929D01*
X11856071Y-18713214D01*
X11770357Y-18713214D01*
X11741786Y-18698929D01*
X11727500Y-18684643D01*
X12098928Y-18413214D02*
X12127500Y-18413214D01*
X12156071Y-18427500D01*
X12170357Y-18441786D01*
X12184643Y-18470357D01*
X12198928Y-18527500D01*
X12198928Y-18598929D01*
X12184643Y-18656072D01*
X12170357Y-18684643D01*
X12156071Y-18698929D01*
X12127500Y-18713214D01*
X12098928Y-18713214D01*
X12070357Y-18698929D01*
X12056071Y-18684643D01*
X12041786Y-18656072D01*
X12027500Y-18598929D01*
X12027500Y-18527500D01*
X12041786Y-18470357D01*
X12056071Y-18441786D01*
X12070357Y-18427500D01*
X12098928Y-18413214D01*
X12313214Y-18413214D02*
X12313214Y-18470357D01*
X12427500Y-18413214D02*
X12427500Y-18470357D01*
X12870357Y-18827500D02*
X12856071Y-18813214D01*
X12827500Y-18770357D01*
X12813214Y-18741786D01*
X12798928Y-18698929D01*
X12784643Y-18627500D01*
X12784643Y-18570357D01*
X12798928Y-18498929D01*
X12813214Y-18456072D01*
X12827500Y-18427500D01*
X12856071Y-18384643D01*
X12870357Y-18370357D01*
X12956071Y-18413214D02*
X13141786Y-18413214D01*
X13041786Y-18527500D01*
X13084643Y-18527500D01*
X13113214Y-18541786D01*
X13127500Y-18556072D01*
X13141786Y-18584643D01*
X13141786Y-18656072D01*
X13127500Y-18684643D01*
X13113214Y-18698929D01*
X13084643Y-18713214D01*
X12998928Y-18713214D01*
X12970357Y-18698929D01*
X12956071Y-18684643D01*
X13498928Y-18713214D02*
X13498928Y-18413214D01*
X13627500Y-18713214D02*
X13627500Y-18556072D01*
X13613214Y-18527500D01*
X13584643Y-18513214D01*
X13541786Y-18513214D01*
X13513214Y-18527500D01*
X13498928Y-18541786D01*
X13813214Y-18713214D02*
X13784643Y-18698929D01*
X13770357Y-18684643D01*
X13756071Y-18656072D01*
X13756071Y-18570357D01*
X13770357Y-18541786D01*
X13784643Y-18527500D01*
X13813214Y-18513214D01*
X13856071Y-18513214D01*
X13884643Y-18527500D01*
X13898928Y-18541786D01*
X13913214Y-18570357D01*
X13913214Y-18656072D01*
X13898928Y-18684643D01*
X13884643Y-18698929D01*
X13856071Y-18713214D01*
X13813214Y-18713214D01*
X14084643Y-18713214D02*
X14056071Y-18698929D01*
X14041786Y-18670357D01*
X14041786Y-18413214D01*
X14313214Y-18698929D02*
X14284643Y-18713214D01*
X14227500Y-18713214D01*
X14198928Y-18698929D01*
X14184643Y-18670357D01*
X14184643Y-18556072D01*
X14198928Y-18527500D01*
X14227500Y-18513214D01*
X14284643Y-18513214D01*
X14313214Y-18527500D01*
X14327500Y-18556072D01*
X14327500Y-18584643D01*
X14184643Y-18613214D01*
X14441786Y-18698929D02*
X14470357Y-18713214D01*
X14527500Y-18713214D01*
X14556071Y-18698929D01*
X14570357Y-18670357D01*
X14570357Y-18656072D01*
X14556071Y-18627500D01*
X14527500Y-18613214D01*
X14484643Y-18613214D01*
X14456071Y-18598929D01*
X14441786Y-18570357D01*
X14441786Y-18556072D01*
X14456071Y-18527500D01*
X14484643Y-18513214D01*
X14527500Y-18513214D01*
X14556071Y-18527500D01*
X14670357Y-18827500D02*
X14684643Y-18813214D01*
X14713214Y-18770357D01*
X14727500Y-18741786D01*
X14741786Y-18698929D01*
X14756071Y-18627500D01*
X14756071Y-18570357D01*
X14741786Y-18498929D01*
X14727500Y-18456072D01*
X14713214Y-18427500D01*
X14684643Y-18384643D01*
X14670357Y-18370357D01*
X15213214Y-18827500D02*
X15198928Y-18813214D01*
X15170357Y-18770357D01*
X15156071Y-18741786D01*
X15141786Y-18698929D01*
X15127500Y-18627500D01*
X15127500Y-18570357D01*
X15141786Y-18498929D01*
X15156071Y-18456072D01*
X15170357Y-18427500D01*
X15198928Y-18384643D01*
X15213214Y-18370357D01*
X15327500Y-18513214D02*
X15327500Y-18713214D01*
X15327500Y-18541786D02*
X15341786Y-18527500D01*
X15370357Y-18513214D01*
X15413214Y-18513214D01*
X15441786Y-18527500D01*
X15456071Y-18556072D01*
X15456071Y-18713214D01*
X15641786Y-18713214D02*
X15613214Y-18698929D01*
X15598928Y-18684643D01*
X15584643Y-18656072D01*
X15584643Y-18570357D01*
X15598928Y-18541786D01*
X15613214Y-18527500D01*
X15641786Y-18513214D01*
X15684643Y-18513214D01*
X15713214Y-18527500D01*
X15727500Y-18541786D01*
X15741786Y-18570357D01*
X15741786Y-18656072D01*
X15727500Y-18684643D01*
X15713214Y-18698929D01*
X15684643Y-18713214D01*
X15641786Y-18713214D01*
X15827500Y-18513214D02*
X15941786Y-18513214D01*
X15870357Y-18413214D02*
X15870357Y-18670357D01*
X15884643Y-18698929D01*
X15913214Y-18713214D01*
X15941786Y-18713214D01*
X16270357Y-18513214D02*
X16270357Y-18813214D01*
X16270357Y-18527500D02*
X16298928Y-18513214D01*
X16356071Y-18513214D01*
X16384643Y-18527500D01*
X16398928Y-18541786D01*
X16413214Y-18570357D01*
X16413214Y-18656072D01*
X16398928Y-18684643D01*
X16384643Y-18698929D01*
X16356071Y-18713214D01*
X16298928Y-18713214D01*
X16270357Y-18698929D01*
X16584643Y-18713214D02*
X16556071Y-18698929D01*
X16541786Y-18670357D01*
X16541786Y-18413214D01*
X16827500Y-18713214D02*
X16827500Y-18556072D01*
X16813214Y-18527500D01*
X16784643Y-18513214D01*
X16727500Y-18513214D01*
X16698928Y-18527500D01*
X16827500Y-18698929D02*
X16798928Y-18713214D01*
X16727500Y-18713214D01*
X16698928Y-18698929D01*
X16684643Y-18670357D01*
X16684643Y-18641786D01*
X16698928Y-18613214D01*
X16727500Y-18598929D01*
X16798928Y-18598929D01*
X16827500Y-18584643D01*
X16927500Y-18513214D02*
X17041786Y-18513214D01*
X16970357Y-18413214D02*
X16970357Y-18670357D01*
X16984643Y-18698929D01*
X17013214Y-18713214D01*
X17041786Y-18713214D01*
X17256071Y-18698929D02*
X17227500Y-18713214D01*
X17170357Y-18713214D01*
X17141786Y-18698929D01*
X17127500Y-18670357D01*
X17127500Y-18556072D01*
X17141786Y-18527500D01*
X17170357Y-18513214D01*
X17227500Y-18513214D01*
X17256071Y-18527500D01*
X17270357Y-18556072D01*
X17270357Y-18584643D01*
X17127500Y-18613214D01*
X17527500Y-18713214D02*
X17527500Y-18413214D01*
X17527500Y-18698929D02*
X17498928Y-18713214D01*
X17441786Y-18713214D01*
X17413214Y-18698929D01*
X17398928Y-18684643D01*
X17384643Y-18656072D01*
X17384643Y-18570357D01*
X17398928Y-18541786D01*
X17413214Y-18527500D01*
X17441786Y-18513214D01*
X17498928Y-18513214D01*
X17527500Y-18527500D01*
X17641786Y-18827500D02*
X17656071Y-18813214D01*
X17684643Y-18770357D01*
X17698928Y-18741786D01*
X17713214Y-18698929D01*
X17727500Y-18627500D01*
X17727500Y-18570357D01*
X17713214Y-18498929D01*
X17698928Y-18456072D01*
X17684643Y-18427500D01*
X17656071Y-18384643D01*
X17641786Y-18370357D01*
X7612500Y-18973500D02*
G75*
G03*
X7612500Y-18973500I-160000J0D01*
G01*
X7870357Y-18809214D02*
X8056071Y-18809214D01*
X7956071Y-18923500D01*
X7998928Y-18923500D01*
X8027500Y-18937786D01*
X8041786Y-18952072D01*
X8056071Y-18980643D01*
X8056071Y-19052072D01*
X8041786Y-19080643D01*
X8027500Y-19094929D01*
X7998928Y-19109214D01*
X7913214Y-19109214D01*
X7884643Y-19094929D01*
X7870357Y-19080643D01*
X8184643Y-19080643D02*
X8198928Y-19094929D01*
X8184643Y-19109214D01*
X8170357Y-19094929D01*
X8184643Y-19080643D01*
X8184643Y-19109214D01*
X8313214Y-18837786D02*
X8327500Y-18823500D01*
X8356071Y-18809214D01*
X8427500Y-18809214D01*
X8456071Y-18823500D01*
X8470357Y-18837786D01*
X8484643Y-18866357D01*
X8484643Y-18894929D01*
X8470357Y-18937786D01*
X8298928Y-19109214D01*
X8484643Y-19109214D01*
X8670357Y-18809214D02*
X8698928Y-18809214D01*
X8727500Y-18823500D01*
X8741786Y-18837786D01*
X8756071Y-18866357D01*
X8770357Y-18923500D01*
X8770357Y-18994929D01*
X8756071Y-19052072D01*
X8741786Y-19080643D01*
X8727500Y-19094929D01*
X8698928Y-19109214D01*
X8670357Y-19109214D01*
X8641786Y-19094929D01*
X8627500Y-19080643D01*
X8613214Y-19052072D01*
X8598928Y-18994929D01*
X8598928Y-18923500D01*
X8613214Y-18866357D01*
X8627500Y-18837786D01*
X8641786Y-18823500D01*
X8670357Y-18809214D01*
X8956071Y-18809214D02*
X8984643Y-18809214D01*
X9013214Y-18823500D01*
X9027500Y-18837786D01*
X9041786Y-18866357D01*
X9056071Y-18923500D01*
X9056071Y-18994929D01*
X9041786Y-19052072D01*
X9027500Y-19080643D01*
X9013214Y-19094929D01*
X8984643Y-19109214D01*
X8956071Y-19109214D01*
X8927500Y-19094929D01*
X8913214Y-19080643D01*
X8898928Y-19052072D01*
X8884643Y-18994929D01*
X8884643Y-18923500D01*
X8898928Y-18866357D01*
X8913214Y-18837786D01*
X8927500Y-18823500D01*
X8956071Y-18809214D01*
X9184643Y-19109214D02*
X9184643Y-18909214D01*
X9184643Y-18937786D02*
X9198928Y-18923500D01*
X9227500Y-18909214D01*
X9270357Y-18909214D01*
X9298928Y-18923500D01*
X9313214Y-18952072D01*
X9313214Y-19109214D01*
X9313214Y-18952072D02*
X9327500Y-18923500D01*
X9356071Y-18909214D01*
X9398928Y-18909214D01*
X9427500Y-18923500D01*
X9441786Y-18952072D01*
X9441786Y-19109214D01*
X9584643Y-19109214D02*
X9584643Y-18909214D01*
X9584643Y-18937786D02*
X9598928Y-18923500D01*
X9627500Y-18909214D01*
X9670357Y-18909214D01*
X9698928Y-18923500D01*
X9713214Y-18952072D01*
X9713214Y-19109214D01*
X9713214Y-18952072D02*
X9727500Y-18923500D01*
X9756071Y-18909214D01*
X9798928Y-18909214D01*
X9827500Y-18923500D01*
X9841786Y-18952072D01*
X9841786Y-19109214D01*
X10427500Y-18794929D02*
X10170357Y-19180643D01*
X10813214Y-18809214D02*
X10841786Y-18809214D01*
X10870357Y-18823500D01*
X10884643Y-18837786D01*
X10898928Y-18866357D01*
X10913214Y-18923500D01*
X10913214Y-18994929D01*
X10898928Y-19052072D01*
X10884643Y-19080643D01*
X10870357Y-19094929D01*
X10841786Y-19109214D01*
X10813214Y-19109214D01*
X10784643Y-19094929D01*
X10770357Y-19080643D01*
X10756071Y-19052072D01*
X10741786Y-18994929D01*
X10741786Y-18923500D01*
X10756071Y-18866357D01*
X10770357Y-18837786D01*
X10784643Y-18823500D01*
X10813214Y-18809214D01*
X11041786Y-19080643D02*
X11056071Y-19094929D01*
X11041786Y-19109214D01*
X11027500Y-19094929D01*
X11041786Y-19080643D01*
X11041786Y-19109214D01*
X11341786Y-19109214D02*
X11170357Y-19109214D01*
X11256071Y-19109214D02*
X11256071Y-18809214D01*
X11227500Y-18852072D01*
X11198928Y-18880643D01*
X11170357Y-18894929D01*
X11456071Y-18837786D02*
X11470357Y-18823500D01*
X11498928Y-18809214D01*
X11570357Y-18809214D01*
X11598928Y-18823500D01*
X11613214Y-18837786D01*
X11627500Y-18866357D01*
X11627500Y-18894929D01*
X11613214Y-18937786D01*
X11441786Y-19109214D01*
X11627500Y-19109214D01*
X11884643Y-18809214D02*
X11827500Y-18809214D01*
X11798928Y-18823500D01*
X11784643Y-18837786D01*
X11756071Y-18880643D01*
X11741786Y-18937786D01*
X11741786Y-19052072D01*
X11756071Y-19080643D01*
X11770357Y-19094929D01*
X11798928Y-19109214D01*
X11856071Y-19109214D01*
X11884643Y-19094929D01*
X11898928Y-19080643D01*
X11913214Y-19052072D01*
X11913214Y-18980643D01*
X11898928Y-18952072D01*
X11884643Y-18937786D01*
X11856071Y-18923500D01*
X11798928Y-18923500D01*
X11770357Y-18937786D01*
X11756071Y-18952072D01*
X11741786Y-18980643D01*
X12098928Y-18809214D02*
X12127500Y-18809214D01*
X12156071Y-18823500D01*
X12170357Y-18837786D01*
X12184643Y-18866357D01*
X12198928Y-18923500D01*
X12198928Y-18994929D01*
X12184643Y-19052072D01*
X12170357Y-19080643D01*
X12156071Y-19094929D01*
X12127500Y-19109214D01*
X12098928Y-19109214D01*
X12070357Y-19094929D01*
X12056071Y-19080643D01*
X12041786Y-19052072D01*
X12027500Y-18994929D01*
X12027500Y-18923500D01*
X12041786Y-18866357D01*
X12056071Y-18837786D01*
X12070357Y-18823500D01*
X12098928Y-18809214D01*
X12313214Y-18809214D02*
X12313214Y-18866357D01*
X12427500Y-18809214D02*
X12427500Y-18866357D01*
X12870357Y-19223500D02*
X12856071Y-19209214D01*
X12827500Y-19166357D01*
X12813214Y-19137786D01*
X12798928Y-19094929D01*
X12784643Y-19023500D01*
X12784643Y-18966357D01*
X12798928Y-18894929D01*
X12813214Y-18852072D01*
X12827500Y-18823500D01*
X12856071Y-18780643D01*
X12870357Y-18766357D01*
X13113214Y-18909214D02*
X13113214Y-19109214D01*
X13041786Y-18794929D02*
X12970357Y-19009214D01*
X13156071Y-19009214D01*
X13498928Y-19109214D02*
X13498928Y-18809214D01*
X13627500Y-19109214D02*
X13627500Y-18952072D01*
X13613214Y-18923500D01*
X13584643Y-18909214D01*
X13541786Y-18909214D01*
X13513214Y-18923500D01*
X13498928Y-18937786D01*
X13813214Y-19109214D02*
X13784643Y-19094929D01*
X13770357Y-19080643D01*
X13756071Y-19052072D01*
X13756071Y-18966357D01*
X13770357Y-18937786D01*
X13784643Y-18923500D01*
X13813214Y-18909214D01*
X13856071Y-18909214D01*
X13884643Y-18923500D01*
X13898928Y-18937786D01*
X13913214Y-18966357D01*
X13913214Y-19052072D01*
X13898928Y-19080643D01*
X13884643Y-19094929D01*
X13856071Y-19109214D01*
X13813214Y-19109214D01*
X14084643Y-19109214D02*
X14056071Y-19094929D01*
X14041786Y-19066357D01*
X14041786Y-18809214D01*
X14313214Y-19094929D02*
X14284643Y-19109214D01*
X14227500Y-19109214D01*
X14198928Y-19094929D01*
X14184643Y-19066357D01*
X14184643Y-18952072D01*
X14198928Y-18923500D01*
X14227500Y-18909214D01*
X14284643Y-18909214D01*
X14313214Y-18923500D01*
X14327500Y-18952072D01*
X14327500Y-18980643D01*
X14184643Y-19009214D01*
X14441786Y-19094929D02*
X14470357Y-19109214D01*
X14527500Y-19109214D01*
X14556071Y-19094929D01*
X14570357Y-19066357D01*
X14570357Y-19052072D01*
X14556071Y-19023500D01*
X14527500Y-19009214D01*
X14484643Y-19009214D01*
X14456071Y-18994929D01*
X14441786Y-18966357D01*
X14441786Y-18952072D01*
X14456071Y-18923500D01*
X14484643Y-18909214D01*
X14527500Y-18909214D01*
X14556071Y-18923500D01*
X14670357Y-19223500D02*
X14684643Y-19209214D01*
X14713214Y-19166357D01*
X14727500Y-19137786D01*
X14741786Y-19094929D01*
X14756071Y-19023500D01*
X14756071Y-18966357D01*
X14741786Y-18894929D01*
X14727500Y-18852072D01*
X14713214Y-18823500D01*
X14684643Y-18780643D01*
X14670357Y-18766357D01*
X15213214Y-19223500D02*
X15198928Y-19209214D01*
X15170357Y-19166357D01*
X15156071Y-19137786D01*
X15141786Y-19094929D01*
X15127500Y-19023500D01*
X15127500Y-18966357D01*
X15141786Y-18894929D01*
X15156071Y-18852072D01*
X15170357Y-18823500D01*
X15198928Y-18780643D01*
X15213214Y-18766357D01*
X15327500Y-18909214D02*
X15327500Y-19109214D01*
X15327500Y-18937786D02*
X15341786Y-18923500D01*
X15370357Y-18909214D01*
X15413214Y-18909214D01*
X15441786Y-18923500D01*
X15456071Y-18952072D01*
X15456071Y-19109214D01*
X15641786Y-19109214D02*
X15613214Y-19094929D01*
X15598928Y-19080643D01*
X15584643Y-19052072D01*
X15584643Y-18966357D01*
X15598928Y-18937786D01*
X15613214Y-18923500D01*
X15641786Y-18909214D01*
X15684643Y-18909214D01*
X15713214Y-18923500D01*
X15727500Y-18937786D01*
X15741786Y-18966357D01*
X15741786Y-19052072D01*
X15727500Y-19080643D01*
X15713214Y-19094929D01*
X15684643Y-19109214D01*
X15641786Y-19109214D01*
X15827500Y-18909214D02*
X15941786Y-18909214D01*
X15870357Y-18809214D02*
X15870357Y-19066357D01*
X15884643Y-19094929D01*
X15913214Y-19109214D01*
X15941786Y-19109214D01*
X16270357Y-18909214D02*
X16270357Y-19209214D01*
X16270357Y-18923500D02*
X16298928Y-18909214D01*
X16356071Y-18909214D01*
X16384643Y-18923500D01*
X16398928Y-18937786D01*
X16413214Y-18966357D01*
X16413214Y-19052072D01*
X16398928Y-19080643D01*
X16384643Y-19094929D01*
X16356071Y-19109214D01*
X16298928Y-19109214D01*
X16270357Y-19094929D01*
X16584643Y-19109214D02*
X16556071Y-19094929D01*
X16541786Y-19066357D01*
X16541786Y-18809214D01*
X16827500Y-19109214D02*
X16827500Y-18952072D01*
X16813214Y-18923500D01*
X16784643Y-18909214D01*
X16727500Y-18909214D01*
X16698928Y-18923500D01*
X16827500Y-19094929D02*
X16798928Y-19109214D01*
X16727500Y-19109214D01*
X16698928Y-19094929D01*
X16684643Y-19066357D01*
X16684643Y-19037786D01*
X16698928Y-19009214D01*
X16727500Y-18994929D01*
X16798928Y-18994929D01*
X16827500Y-18980643D01*
X16927500Y-18909214D02*
X17041786Y-18909214D01*
X16970357Y-18809214D02*
X16970357Y-19066357D01*
X16984643Y-19094929D01*
X17013214Y-19109214D01*
X17041786Y-19109214D01*
X17256071Y-19094929D02*
X17227500Y-19109214D01*
X17170357Y-19109214D01*
X17141786Y-19094929D01*
X17127500Y-19066357D01*
X17127500Y-18952072D01*
X17141786Y-18923500D01*
X17170357Y-18909214D01*
X17227500Y-18909214D01*
X17256071Y-18923500D01*
X17270357Y-18952072D01*
X17270357Y-18980643D01*
X17127500Y-19009214D01*
X17527500Y-19109214D02*
X17527500Y-18809214D01*
X17527500Y-19094929D02*
X17498928Y-19109214D01*
X17441786Y-19109214D01*
X17413214Y-19094929D01*
X17398928Y-19080643D01*
X17384643Y-19052072D01*
X17384643Y-18966357D01*
X17398928Y-18937786D01*
X17413214Y-18923500D01*
X17441786Y-18909214D01*
X17498928Y-18909214D01*
X17527500Y-18923500D01*
X17641786Y-19223500D02*
X17656071Y-19209214D01*
X17684643Y-19166357D01*
X17698928Y-19137786D01*
X17713214Y-19094929D01*
X17727500Y-19023500D01*
X17727500Y-18966357D01*
X17713214Y-18894929D01*
X17698928Y-18852072D01*
X17684643Y-18823500D01*
X17656071Y-18780643D01*
X17641786Y-18766357D01*
M02*
