G04 #@! TF.GenerationSoftware,KiCad,Pcbnew,5.1.12*
G04 #@! TF.CreationDate,2023-02-04T16:13:27-07:00*
G04 #@! TF.ProjectId,Talker,54616c6b-6572-42e6-9b69-6361645f7063,rev?*
G04 #@! TF.SameCoordinates,Original*
G04 #@! TF.FileFunction,Legend,Bot*
G04 #@! TF.FilePolarity,Positive*
%FSLAX46Y46*%
G04 Gerber Fmt 4.6, Leading zero omitted, Abs format (unit mm)*
G04 Created by KiCad (PCBNEW 5.1.12) date 2023-02-04 16:13:27*
%MOMM*%
%LPD*%
G01*
G04 APERTURE LIST*
%ADD10C,0.300000*%
%ADD11C,1.300000*%
%ADD12C,2.000000*%
%ADD13R,2.000000X2.000000*%
%ADD14O,2.000000X3.000000*%
%ADD15C,1.600000*%
%ADD16O,3.000000X2.000000*%
%ADD17O,2.999999X2.000000*%
%ADD18C,3.200000*%
%ADD19R,1.600000X1.600000*%
%ADD20C,1.500000*%
%ADD21O,1.700000X1.700000*%
%ADD22R,1.700000X1.700000*%
%ADD23O,2.190000X1.740000*%
%ADD24C,1.397000*%
%ADD25R,1.600000X2.400000*%
%ADD26O,1.600000X2.400000*%
%ADD27C,4.000000*%
%ADD28O,2.400000X1.600000*%
%ADD29R,2.400000X1.600000*%
%ADD30R,3.500000X3.500000*%
%ADD31C,4.600000*%
%ADD32C,1.800000*%
%ADD33O,1.600000X1.600000*%
G04 APERTURE END LIST*
D10*
X156266000Y-77980000D02*
X156408857Y-77908571D01*
X156623142Y-77908571D01*
X156837428Y-77980000D01*
X156980285Y-78122857D01*
X157051714Y-78265714D01*
X157123142Y-78551428D01*
X157123142Y-78765714D01*
X157051714Y-79051428D01*
X156980285Y-79194285D01*
X156837428Y-79337142D01*
X156623142Y-79408571D01*
X156480285Y-79408571D01*
X156266000Y-79337142D01*
X156194571Y-79265714D01*
X156194571Y-78765714D01*
X156480285Y-78765714D01*
X155551714Y-79408571D02*
X155551714Y-77908571D01*
X152837428Y-79265714D02*
X152908857Y-79337142D01*
X153123142Y-79408571D01*
X153266000Y-79408571D01*
X153480285Y-79337142D01*
X153623142Y-79194285D01*
X153694571Y-79051428D01*
X153766000Y-78765714D01*
X153766000Y-78551428D01*
X153694571Y-78265714D01*
X153623142Y-78122857D01*
X153480285Y-77980000D01*
X153266000Y-77908571D01*
X153123142Y-77908571D01*
X152908857Y-77980000D01*
X152837428Y-78051428D01*
X152408857Y-77908571D02*
X151551714Y-77908571D01*
X151980285Y-79408571D02*
X151980285Y-77908571D01*
X151123142Y-79337142D02*
X150908857Y-79408571D01*
X150551714Y-79408571D01*
X150408857Y-79337142D01*
X150337428Y-79265714D01*
X150266000Y-79122857D01*
X150266000Y-78980000D01*
X150337428Y-78837142D01*
X150408857Y-78765714D01*
X150551714Y-78694285D01*
X150837428Y-78622857D01*
X150980285Y-78551428D01*
X151051714Y-78480000D01*
X151123142Y-78337142D01*
X151123142Y-78194285D01*
X151051714Y-78051428D01*
X150980285Y-77980000D01*
X150837428Y-77908571D01*
X150480285Y-77908571D01*
X150266000Y-77980000D01*
X149694571Y-78051428D02*
X149623142Y-77980000D01*
X149480285Y-77908571D01*
X149123142Y-77908571D01*
X148980285Y-77980000D01*
X148908857Y-78051428D01*
X148837428Y-78194285D01*
X148837428Y-78337142D01*
X148908857Y-78551428D01*
X149766000Y-79408571D01*
X148837428Y-79408571D01*
X147480285Y-77908571D02*
X148194571Y-77908571D01*
X148266000Y-78622857D01*
X148194571Y-78551428D01*
X148051714Y-78480000D01*
X147694571Y-78480000D01*
X147551714Y-78551428D01*
X147480285Y-78622857D01*
X147408857Y-78765714D01*
X147408857Y-79122857D01*
X147480285Y-79265714D01*
X147551714Y-79337142D01*
X147694571Y-79408571D01*
X148051714Y-79408571D01*
X148194571Y-79337142D01*
X148266000Y-79265714D01*
X146123142Y-77908571D02*
X146408857Y-77908571D01*
X146551714Y-77980000D01*
X146623142Y-78051428D01*
X146766000Y-78265714D01*
X146837428Y-78551428D01*
X146837428Y-79122857D01*
X146766000Y-79265714D01*
X146694571Y-79337142D01*
X146551714Y-79408571D01*
X146266000Y-79408571D01*
X146123142Y-79337142D01*
X146051714Y-79265714D01*
X145980285Y-79122857D01*
X145980285Y-78765714D01*
X146051714Y-78622857D01*
X146123142Y-78551428D01*
X146266000Y-78480000D01*
X146551714Y-78480000D01*
X146694571Y-78551428D01*
X146766000Y-78622857D01*
X146837428Y-78765714D01*
X145337428Y-78837142D02*
X144194571Y-78837142D01*
X143551714Y-78980000D02*
X142837428Y-78980000D01*
X143694571Y-79408571D02*
X143194571Y-77908571D01*
X142694571Y-79408571D01*
X141480285Y-79408571D02*
X142194571Y-79408571D01*
X142194571Y-77908571D01*
X141051714Y-78051428D02*
X140980285Y-77980000D01*
X140837428Y-77908571D01*
X140480285Y-77908571D01*
X140337428Y-77980000D01*
X140266000Y-78051428D01*
X140194571Y-78194285D01*
X140194571Y-78337142D01*
X140266000Y-78551428D01*
X141123142Y-79408571D01*
X140194571Y-79408571D01*
X138480285Y-77837142D02*
X139766000Y-79765714D01*
X138051714Y-79337142D02*
X137837428Y-79408571D01*
X137480285Y-79408571D01*
X137337428Y-79337142D01*
X137266000Y-79265714D01*
X137194571Y-79122857D01*
X137194571Y-78980000D01*
X137266000Y-78837142D01*
X137337428Y-78765714D01*
X137480285Y-78694285D01*
X137766000Y-78622857D01*
X137908857Y-78551428D01*
X137980285Y-78480000D01*
X138051714Y-78337142D01*
X138051714Y-78194285D01*
X137980285Y-78051428D01*
X137908857Y-77980000D01*
X137766000Y-77908571D01*
X137408857Y-77908571D01*
X137194571Y-77980000D01*
X136551714Y-79408571D02*
X136551714Y-77908571D01*
X135980285Y-77908571D01*
X135837428Y-77980000D01*
X135766000Y-78051428D01*
X135694571Y-78194285D01*
X135694571Y-78408571D01*
X135766000Y-78551428D01*
X135837428Y-78622857D01*
X135980285Y-78694285D01*
X136551714Y-78694285D01*
X134766000Y-77908571D02*
X134480285Y-77908571D01*
X134337428Y-77980000D01*
X134194571Y-78122857D01*
X134123142Y-78408571D01*
X134123142Y-78908571D01*
X134194571Y-79194285D01*
X134337428Y-79337142D01*
X134480285Y-79408571D01*
X134766000Y-79408571D01*
X134908857Y-79337142D01*
X135051714Y-79194285D01*
X135123142Y-78908571D01*
X135123142Y-78408571D01*
X135051714Y-78122857D01*
X134908857Y-77980000D01*
X134766000Y-77908571D01*
X133551714Y-78051428D02*
X133480285Y-77980000D01*
X133337428Y-77908571D01*
X132980285Y-77908571D01*
X132837428Y-77980000D01*
X132766000Y-78051428D01*
X132694571Y-78194285D01*
X132694571Y-78337142D01*
X132766000Y-78551428D01*
X133623142Y-79408571D01*
X132694571Y-79408571D01*
X131337428Y-77908571D02*
X132051714Y-77908571D01*
X132123142Y-78622857D01*
X132051714Y-78551428D01*
X131908857Y-78480000D01*
X131551714Y-78480000D01*
X131408857Y-78551428D01*
X131337428Y-78622857D01*
X131266000Y-78765714D01*
X131266000Y-79122857D01*
X131337428Y-79265714D01*
X131408857Y-79337142D01*
X131551714Y-79408571D01*
X131908857Y-79408571D01*
X132051714Y-79337142D01*
X132123142Y-79265714D01*
X129980285Y-77908571D02*
X130266000Y-77908571D01*
X130408857Y-77980000D01*
X130480285Y-78051428D01*
X130623142Y-78265714D01*
X130694571Y-78551428D01*
X130694571Y-79122857D01*
X130623142Y-79265714D01*
X130551714Y-79337142D01*
X130408857Y-79408571D01*
X130123142Y-79408571D01*
X129980285Y-79337142D01*
X129908857Y-79265714D01*
X129837428Y-79122857D01*
X129837428Y-78765714D01*
X129908857Y-78622857D01*
X129980285Y-78551428D01*
X130123142Y-78480000D01*
X130408857Y-78480000D01*
X130551714Y-78551428D01*
X130623142Y-78622857D01*
X130694571Y-78765714D01*
X129194571Y-78837142D02*
X128051714Y-78837142D01*
X127408857Y-78980000D02*
X126694571Y-78980000D01*
X127551714Y-79408571D02*
X127051714Y-77908571D01*
X126551714Y-79408571D01*
X125337428Y-79408571D02*
X126051714Y-79408571D01*
X126051714Y-77908571D01*
X124908857Y-78051428D02*
X124837428Y-77980000D01*
X124694571Y-77908571D01*
X124337428Y-77908571D01*
X124194571Y-77980000D01*
X124123142Y-78051428D01*
X124051714Y-78194285D01*
X124051714Y-78337142D01*
X124123142Y-78551428D01*
X124980285Y-79408571D01*
X124051714Y-79408571D01*
X122480285Y-78408571D02*
X121908857Y-78408571D01*
X122266000Y-77908571D02*
X122266000Y-79194285D01*
X122194571Y-79337142D01*
X122051714Y-79408571D01*
X121908857Y-79408571D01*
X120837428Y-79337142D02*
X120980285Y-79408571D01*
X121266000Y-79408571D01*
X121408857Y-79337142D01*
X121480285Y-79194285D01*
X121480285Y-78622857D01*
X121408857Y-78480000D01*
X121266000Y-78408571D01*
X120980285Y-78408571D01*
X120837428Y-78480000D01*
X120766000Y-78622857D01*
X120766000Y-78765714D01*
X121480285Y-78908571D01*
X120266000Y-79408571D02*
X119480285Y-78408571D01*
X120266000Y-78408571D02*
X119480285Y-79408571D01*
X119123142Y-78408571D02*
X118551714Y-78408571D01*
X118908857Y-77908571D02*
X118908857Y-79194285D01*
X118837428Y-79337142D01*
X118694571Y-79408571D01*
X118551714Y-79408571D01*
X117123142Y-78408571D02*
X116551714Y-78408571D01*
X116908857Y-77908571D02*
X116908857Y-79194285D01*
X116837428Y-79337142D01*
X116694571Y-79408571D01*
X116551714Y-79408571D01*
X115837428Y-79408571D02*
X115980285Y-79337142D01*
X116051714Y-79265714D01*
X116123142Y-79122857D01*
X116123142Y-78694285D01*
X116051714Y-78551428D01*
X115980285Y-78480000D01*
X115837428Y-78408571D01*
X115623142Y-78408571D01*
X115480285Y-78480000D01*
X115408857Y-78551428D01*
X115337428Y-78694285D01*
X115337428Y-79122857D01*
X115408857Y-79265714D01*
X115480285Y-79337142D01*
X115623142Y-79408571D01*
X115837428Y-79408571D01*
X113623142Y-79337142D02*
X113480285Y-79408571D01*
X113194571Y-79408571D01*
X113051714Y-79337142D01*
X112980285Y-79194285D01*
X112980285Y-79122857D01*
X113051714Y-78980000D01*
X113194571Y-78908571D01*
X113408857Y-78908571D01*
X113551714Y-78837142D01*
X113623142Y-78694285D01*
X113623142Y-78622857D01*
X113551714Y-78480000D01*
X113408857Y-78408571D01*
X113194571Y-78408571D01*
X113051714Y-78480000D01*
X112337428Y-78408571D02*
X112337428Y-79908571D01*
X112337428Y-78480000D02*
X112194571Y-78408571D01*
X111908857Y-78408571D01*
X111766000Y-78480000D01*
X111694571Y-78551428D01*
X111623142Y-78694285D01*
X111623142Y-79122857D01*
X111694571Y-79265714D01*
X111766000Y-79337142D01*
X111908857Y-79408571D01*
X112194571Y-79408571D01*
X112337428Y-79337142D01*
X110408857Y-79337142D02*
X110551714Y-79408571D01*
X110837428Y-79408571D01*
X110980285Y-79337142D01*
X111051714Y-79194285D01*
X111051714Y-78622857D01*
X110980285Y-78480000D01*
X110837428Y-78408571D01*
X110551714Y-78408571D01*
X110408857Y-78480000D01*
X110337428Y-78622857D01*
X110337428Y-78765714D01*
X111051714Y-78908571D01*
X109123142Y-79337142D02*
X109266000Y-79408571D01*
X109551714Y-79408571D01*
X109694571Y-79337142D01*
X109766000Y-79194285D01*
X109766000Y-78622857D01*
X109694571Y-78480000D01*
X109551714Y-78408571D01*
X109266000Y-78408571D01*
X109123142Y-78480000D01*
X109051714Y-78622857D01*
X109051714Y-78765714D01*
X109766000Y-78908571D01*
X107766000Y-79337142D02*
X107908857Y-79408571D01*
X108194571Y-79408571D01*
X108337428Y-79337142D01*
X108408857Y-79265714D01*
X108480285Y-79122857D01*
X108480285Y-78694285D01*
X108408857Y-78551428D01*
X108337428Y-78480000D01*
X108194571Y-78408571D01*
X107908857Y-78408571D01*
X107766000Y-78480000D01*
X107123142Y-79408571D02*
X107123142Y-77908571D01*
X106480285Y-79408571D02*
X106480285Y-78622857D01*
X106551714Y-78480000D01*
X106694571Y-78408571D01*
X106908857Y-78408571D01*
X107051714Y-78480000D01*
X107123142Y-78551428D01*
X104623142Y-79408571D02*
X104623142Y-77908571D01*
X104623142Y-78480000D02*
X104480285Y-78408571D01*
X104194571Y-78408571D01*
X104051714Y-78480000D01*
X103980285Y-78551428D01*
X103908857Y-78694285D01*
X103908857Y-79122857D01*
X103980285Y-79265714D01*
X104051714Y-79337142D01*
X104194571Y-79408571D01*
X104480285Y-79408571D01*
X104623142Y-79337142D01*
X103051714Y-79408571D02*
X103194571Y-79337142D01*
X103266000Y-79265714D01*
X103337428Y-79122857D01*
X103337428Y-78694285D01*
X103266000Y-78551428D01*
X103194571Y-78480000D01*
X103051714Y-78408571D01*
X102837428Y-78408571D01*
X102694571Y-78480000D01*
X102623142Y-78551428D01*
X102551714Y-78694285D01*
X102551714Y-79122857D01*
X102623142Y-79265714D01*
X102694571Y-79337142D01*
X102837428Y-79408571D01*
X103051714Y-79408571D01*
X101266000Y-79408571D02*
X101266000Y-78622857D01*
X101337428Y-78480000D01*
X101480285Y-78408571D01*
X101766000Y-78408571D01*
X101908857Y-78480000D01*
X101266000Y-79337142D02*
X101408857Y-79408571D01*
X101766000Y-79408571D01*
X101908857Y-79337142D01*
X101980285Y-79194285D01*
X101980285Y-79051428D01*
X101908857Y-78908571D01*
X101766000Y-78837142D01*
X101408857Y-78837142D01*
X101266000Y-78765714D01*
X100551714Y-79408571D02*
X100551714Y-78408571D01*
X100551714Y-78694285D02*
X100480285Y-78551428D01*
X100408857Y-78480000D01*
X100266000Y-78408571D01*
X100123142Y-78408571D01*
X98980285Y-79408571D02*
X98980285Y-77908571D01*
X98980285Y-79337142D02*
X99123142Y-79408571D01*
X99408857Y-79408571D01*
X99551714Y-79337142D01*
X99623142Y-79265714D01*
X99694571Y-79122857D01*
X99694571Y-78694285D01*
X99623142Y-78551428D01*
X99551714Y-78480000D01*
X99408857Y-78408571D01*
X99123142Y-78408571D01*
X98980285Y-78480000D01*
X132587428Y-80458571D02*
X132087428Y-81958571D01*
X131587428Y-80458571D01*
X130516000Y-81887142D02*
X130658857Y-81958571D01*
X130944571Y-81958571D01*
X131087428Y-81887142D01*
X131158857Y-81744285D01*
X131158857Y-81172857D01*
X131087428Y-81030000D01*
X130944571Y-80958571D01*
X130658857Y-80958571D01*
X130516000Y-81030000D01*
X130444571Y-81172857D01*
X130444571Y-81315714D01*
X131158857Y-81458571D01*
X129801714Y-81958571D02*
X129801714Y-80958571D01*
X129801714Y-81244285D02*
X129730285Y-81101428D01*
X129658857Y-81030000D01*
X129516000Y-80958571D01*
X129373142Y-80958571D01*
X128944571Y-81887142D02*
X128801714Y-81958571D01*
X128516000Y-81958571D01*
X128373142Y-81887142D01*
X128301714Y-81744285D01*
X128301714Y-81672857D01*
X128373142Y-81530000D01*
X128516000Y-81458571D01*
X128730285Y-81458571D01*
X128873142Y-81387142D01*
X128944571Y-81244285D01*
X128944571Y-81172857D01*
X128873142Y-81030000D01*
X128730285Y-80958571D01*
X128516000Y-80958571D01*
X128373142Y-81030000D01*
X125730285Y-81958571D02*
X126587428Y-81958571D01*
X126158857Y-81958571D02*
X126158857Y-80458571D01*
X126301714Y-80672857D01*
X126444571Y-80815714D01*
X126587428Y-80887142D01*
X125087428Y-81815714D02*
X125016000Y-81887142D01*
X125087428Y-81958571D01*
X125158857Y-81887142D01*
X125087428Y-81815714D01*
X125087428Y-81958571D01*
X124087428Y-80458571D02*
X123944571Y-80458571D01*
X123801714Y-80530000D01*
X123730285Y-80601428D01*
X123658857Y-80744285D01*
X123587428Y-81030000D01*
X123587428Y-81387142D01*
X123658857Y-81672857D01*
X123730285Y-81815714D01*
X123801714Y-81887142D01*
X123944571Y-81958571D01*
X124087428Y-81958571D01*
X124230285Y-81887142D01*
X124301714Y-81815714D01*
X124373142Y-81672857D01*
X124444571Y-81387142D01*
X124444571Y-81030000D01*
X124373142Y-80744285D01*
X124301714Y-80601428D01*
X124230285Y-80530000D01*
X124087428Y-80458571D01*
X133837428Y-83722857D02*
X134337428Y-83722857D01*
X134337428Y-84508571D02*
X134337428Y-83008571D01*
X133623142Y-83008571D01*
X132480285Y-84437142D02*
X132623142Y-84508571D01*
X132908857Y-84508571D01*
X133051714Y-84437142D01*
X133123142Y-84294285D01*
X133123142Y-83722857D01*
X133051714Y-83580000D01*
X132908857Y-83508571D01*
X132623142Y-83508571D01*
X132480285Y-83580000D01*
X132408857Y-83722857D01*
X132408857Y-83865714D01*
X133123142Y-84008571D01*
X131766000Y-84508571D02*
X131766000Y-83008571D01*
X131766000Y-83580000D02*
X131623142Y-83508571D01*
X131337428Y-83508571D01*
X131194571Y-83580000D01*
X131123142Y-83651428D01*
X131051714Y-83794285D01*
X131051714Y-84222857D01*
X131123142Y-84365714D01*
X131194571Y-84437142D01*
X131337428Y-84508571D01*
X131623142Y-84508571D01*
X131766000Y-84437142D01*
X128623142Y-83508571D02*
X128623142Y-84508571D01*
X128980285Y-82937142D02*
X129337428Y-84008571D01*
X128408857Y-84008571D01*
X126766000Y-83151428D02*
X126694571Y-83080000D01*
X126551714Y-83008571D01*
X126194571Y-83008571D01*
X126051714Y-83080000D01*
X125980285Y-83151428D01*
X125908857Y-83294285D01*
X125908857Y-83437142D01*
X125980285Y-83651428D01*
X126837428Y-84508571D01*
X125908857Y-84508571D01*
X124980285Y-83008571D02*
X124837428Y-83008571D01*
X124694571Y-83080000D01*
X124623142Y-83151428D01*
X124551714Y-83294285D01*
X124480285Y-83580000D01*
X124480285Y-83937142D01*
X124551714Y-84222857D01*
X124623142Y-84365714D01*
X124694571Y-84437142D01*
X124837428Y-84508571D01*
X124980285Y-84508571D01*
X125123142Y-84437142D01*
X125194571Y-84365714D01*
X125266000Y-84222857D01*
X125337428Y-83937142D01*
X125337428Y-83580000D01*
X125266000Y-83294285D01*
X125194571Y-83151428D01*
X125123142Y-83080000D01*
X124980285Y-83008571D01*
X123908857Y-83151428D02*
X123837428Y-83080000D01*
X123694571Y-83008571D01*
X123337428Y-83008571D01*
X123194571Y-83080000D01*
X123123142Y-83151428D01*
X123051714Y-83294285D01*
X123051714Y-83437142D01*
X123123142Y-83651428D01*
X123980285Y-84508571D01*
X123051714Y-84508571D01*
X122551714Y-83008571D02*
X121623142Y-83008571D01*
X122123142Y-83580000D01*
X121908857Y-83580000D01*
X121766000Y-83651428D01*
X121694571Y-83722857D01*
X121623142Y-83865714D01*
X121623142Y-84222857D01*
X121694571Y-84365714D01*
X121766000Y-84437142D01*
X121908857Y-84508571D01*
X122337428Y-84508571D01*
X122480285Y-84437142D01*
X122551714Y-84365714D01*
%LPC*%
D11*
X150241000Y-115316000D03*
X150241000Y-112816000D03*
X150241000Y-117856000D03*
X150241000Y-120356000D03*
X150241000Y-107696000D03*
X150241000Y-110196000D03*
X133731000Y-119888000D03*
X133731000Y-122388000D03*
X133731000Y-115316000D03*
X133731000Y-117816000D03*
X150241000Y-105156000D03*
X150241000Y-102656000D03*
X144399000Y-101981000D03*
X141899000Y-101981000D03*
X105664000Y-86233000D03*
X108164000Y-86233000D03*
X131953000Y-134493000D03*
X134453000Y-134493000D03*
X157353000Y-102616000D03*
X159853000Y-102616000D03*
X102108000Y-144653000D03*
X104608000Y-144653000D03*
X144526000Y-134366000D03*
X147026000Y-134366000D03*
X159385000Y-120650000D03*
X156885000Y-120650000D03*
X105664000Y-109220000D03*
X108164000Y-109220000D03*
X164846000Y-99314000D03*
X164846000Y-96814000D03*
X94361000Y-153797000D03*
X96861000Y-153797000D03*
X167005000Y-134620000D03*
X164505000Y-134620000D03*
X159385000Y-137795000D03*
X156885000Y-137795000D03*
X169545000Y-134620000D03*
X172045000Y-134620000D03*
X160655000Y-134620000D03*
X158155000Y-134620000D03*
X78994000Y-133858000D03*
X78994000Y-136358000D03*
X78994000Y-154305000D03*
X78994000Y-151805000D03*
X155321000Y-102616000D03*
X152821000Y-102616000D03*
X138938000Y-88265000D03*
X138938000Y-90765000D03*
X138938000Y-98171000D03*
X138938000Y-95671000D03*
D12*
X173101000Y-119888000D03*
D13*
X173101000Y-117348000D03*
D14*
X173228000Y-108966000D03*
D15*
X173228000Y-103966000D03*
X173228000Y-113966000D03*
X168228000Y-108966000D03*
D16*
X168228000Y-103966000D03*
D17*
X168228000Y-106466000D03*
D16*
X168228000Y-113966000D03*
D18*
X171272200Y-171272200D03*
X171272200Y-81026000D03*
X81026000Y-171272200D03*
X81026000Y-81026000D03*
D15*
X164623500Y-87122000D03*
D19*
X162623500Y-87122000D03*
D15*
X158845000Y-87122000D03*
D19*
X156845000Y-87122000D03*
D15*
X167981000Y-118681500D03*
D19*
X165481000Y-118681500D03*
D20*
X134239000Y-95631000D03*
X134239000Y-90751000D03*
D21*
X112585500Y-144462500D03*
X110045500Y-144462500D03*
D22*
X107505500Y-144462500D03*
D23*
X160401000Y-111506000D03*
G36*
G01*
X161246001Y-114916000D02*
X159555999Y-114916000D01*
G75*
G02*
X159306000Y-114666001I0J249999D01*
G01*
X159306000Y-113425999D01*
G75*
G02*
X159555999Y-113176000I249999J0D01*
G01*
X161246001Y-113176000D01*
G75*
G02*
X161496000Y-113425999I0J-249999D01*
G01*
X161496000Y-114666001D01*
G75*
G02*
X161246001Y-114916000I-249999J0D01*
G01*
G37*
D12*
X92392500Y-83225500D03*
X96892500Y-83225500D03*
X92392500Y-89725500D03*
X96892500Y-89725500D03*
D24*
X152400000Y-129921000D03*
X152400000Y-122301000D03*
X147066000Y-128905000D03*
X139446000Y-128905000D03*
D21*
X136334500Y-128905000D03*
D22*
X133794500Y-128905000D03*
D25*
X156845000Y-131445000D03*
D26*
X174625000Y-123825000D03*
X159385000Y-131445000D03*
X172085000Y-123825000D03*
X161925000Y-131445000D03*
X169545000Y-123825000D03*
X164465000Y-131445000D03*
X167005000Y-123825000D03*
X167005000Y-131445000D03*
X164465000Y-123825000D03*
X169545000Y-131445000D03*
X161925000Y-123825000D03*
X172085000Y-131445000D03*
X159385000Y-123825000D03*
X174625000Y-131445000D03*
X156845000Y-123825000D03*
D19*
X165735000Y-146812000D03*
D15*
X165735000Y-149582000D03*
X165735000Y-152352000D03*
X165735000Y-155122000D03*
X165735000Y-157892000D03*
X168575000Y-148197000D03*
X168575000Y-150967000D03*
X168575000Y-153737000D03*
X168575000Y-156507000D03*
D27*
X167155000Y-164852000D03*
X167155000Y-139852000D03*
D24*
X146939000Y-123190000D03*
X139319000Y-123190000D03*
X155321000Y-110236000D03*
X155321000Y-117856000D03*
X136525000Y-110236000D03*
X136525000Y-102616000D03*
X136525000Y-120396000D03*
X136525000Y-112776000D03*
X153035000Y-115316000D03*
X153035000Y-107696000D03*
D28*
X146939000Y-105156000D03*
X139319000Y-120396000D03*
X146939000Y-107696000D03*
X139319000Y-117856000D03*
X146939000Y-110236000D03*
X139319000Y-115316000D03*
X146939000Y-112776000D03*
X139319000Y-112776000D03*
X146939000Y-115316000D03*
X139319000Y-110236000D03*
X146939000Y-117856000D03*
X139319000Y-107696000D03*
X146939000Y-120396000D03*
D29*
X139319000Y-105156000D03*
X114427000Y-92075000D03*
D28*
X129667000Y-125095000D03*
X114427000Y-94615000D03*
X129667000Y-122555000D03*
X114427000Y-97155000D03*
X129667000Y-120015000D03*
X114427000Y-99695000D03*
X129667000Y-117475000D03*
X114427000Y-102235000D03*
X129667000Y-114935000D03*
X114427000Y-104775000D03*
X129667000Y-112395000D03*
X114427000Y-107315000D03*
X129667000Y-109855000D03*
X114427000Y-109855000D03*
X129667000Y-107315000D03*
X114427000Y-112395000D03*
X129667000Y-104775000D03*
X114427000Y-114935000D03*
X129667000Y-102235000D03*
X114427000Y-117475000D03*
X129667000Y-99695000D03*
X114427000Y-120015000D03*
X129667000Y-97155000D03*
X114427000Y-122555000D03*
X129667000Y-94615000D03*
X114427000Y-125095000D03*
X129667000Y-92075000D03*
D15*
X95504000Y-96988000D03*
D19*
X95504000Y-94488000D03*
D28*
X110744000Y-89535000D03*
X103124000Y-104775000D03*
X110744000Y-92075000D03*
X103124000Y-102235000D03*
X110744000Y-94615000D03*
X103124000Y-99695000D03*
X110744000Y-97155000D03*
X103124000Y-97155000D03*
X110744000Y-99695000D03*
X103124000Y-94615000D03*
X110744000Y-102235000D03*
X103124000Y-92075000D03*
X110744000Y-104775000D03*
D29*
X103124000Y-89535000D03*
D30*
X87757000Y-92710000D03*
G36*
G01*
X80257000Y-93710000D02*
X80257000Y-91710000D01*
G75*
G02*
X81007000Y-90960000I750000J0D01*
G01*
X82507000Y-90960000D01*
G75*
G02*
X83257000Y-91710000I0J-750000D01*
G01*
X83257000Y-93710000D01*
G75*
G02*
X82507000Y-94460000I-750000J0D01*
G01*
X81007000Y-94460000D01*
G75*
G02*
X80257000Y-93710000I0J750000D01*
G01*
G37*
G36*
G01*
X83007000Y-98285000D02*
X83007000Y-96535000D01*
G75*
G02*
X83882000Y-95660000I875000J0D01*
G01*
X85632000Y-95660000D01*
G75*
G02*
X86507000Y-96535000I0J-875000D01*
G01*
X86507000Y-98285000D01*
G75*
G02*
X85632000Y-99160000I-875000J0D01*
G01*
X83882000Y-99160000D01*
G75*
G02*
X83007000Y-98285000I0J875000D01*
G01*
G37*
D31*
X169166000Y-99555000D03*
X169166000Y-87255000D03*
D32*
X172466000Y-97155000D03*
X172466000Y-94655000D03*
X172466000Y-92155000D03*
X172466000Y-89655000D03*
D24*
X100203000Y-86868000D03*
X100203000Y-94488000D03*
X92583000Y-160655000D03*
X100203000Y-160655000D03*
X163068000Y-105410000D03*
X155448000Y-105410000D03*
D29*
X84074000Y-102235000D03*
D28*
X99314000Y-150495000D03*
X84074000Y-104775000D03*
X99314000Y-147955000D03*
X84074000Y-107315000D03*
X99314000Y-145415000D03*
X84074000Y-109855000D03*
X99314000Y-142875000D03*
X84074000Y-112395000D03*
X99314000Y-140335000D03*
X84074000Y-114935000D03*
X99314000Y-137795000D03*
X84074000Y-117475000D03*
X99314000Y-135255000D03*
X84074000Y-120015000D03*
X99314000Y-132715000D03*
X84074000Y-122555000D03*
X99314000Y-130175000D03*
X84074000Y-125095000D03*
X99314000Y-127635000D03*
X84074000Y-127635000D03*
X99314000Y-125095000D03*
X84074000Y-130175000D03*
X99314000Y-122555000D03*
X84074000Y-132715000D03*
X99314000Y-120015000D03*
X84074000Y-135255000D03*
X99314000Y-117475000D03*
X84074000Y-137795000D03*
X99314000Y-114935000D03*
X84074000Y-140335000D03*
X99314000Y-112395000D03*
X84074000Y-142875000D03*
X99314000Y-109855000D03*
X84074000Y-145415000D03*
X99314000Y-107315000D03*
X84074000Y-147955000D03*
X99314000Y-104775000D03*
X84074000Y-150495000D03*
X99314000Y-102235000D03*
D29*
X103124000Y-112395000D03*
D28*
X110744000Y-135255000D03*
X103124000Y-114935000D03*
X110744000Y-132715000D03*
X103124000Y-117475000D03*
X110744000Y-130175000D03*
X103124000Y-120015000D03*
X110744000Y-127635000D03*
X103124000Y-122555000D03*
X110744000Y-125095000D03*
X103124000Y-125095000D03*
X110744000Y-122555000D03*
X103124000Y-127635000D03*
X110744000Y-120015000D03*
X103124000Y-130175000D03*
X110744000Y-117475000D03*
X103124000Y-132715000D03*
X110744000Y-114935000D03*
X103124000Y-135255000D03*
X110744000Y-112395000D03*
X110744000Y-147955000D03*
X103124000Y-165735000D03*
X110744000Y-150495000D03*
X103124000Y-163195000D03*
X110744000Y-153035000D03*
X103124000Y-160655000D03*
X110744000Y-155575000D03*
X103124000Y-158115000D03*
X110744000Y-158115000D03*
X103124000Y-155575000D03*
X110744000Y-160655000D03*
X103124000Y-153035000D03*
X110744000Y-163195000D03*
X103124000Y-150495000D03*
X110744000Y-165735000D03*
D29*
X103124000Y-147955000D03*
X154178000Y-91694000D03*
D28*
X161798000Y-99314000D03*
X154178000Y-94234000D03*
X161798000Y-96774000D03*
X154178000Y-96774000D03*
X161798000Y-94234000D03*
X154178000Y-99314000D03*
X161798000Y-91694000D03*
D29*
X119126000Y-137795000D03*
D28*
X134366000Y-165735000D03*
X119126000Y-140335000D03*
X134366000Y-163195000D03*
X119126000Y-142875000D03*
X134366000Y-160655000D03*
X119126000Y-145415000D03*
X134366000Y-158115000D03*
X119126000Y-147955000D03*
X134366000Y-155575000D03*
X119126000Y-150495000D03*
X134366000Y-153035000D03*
X119126000Y-153035000D03*
X134366000Y-150495000D03*
X119126000Y-155575000D03*
X134366000Y-147955000D03*
X119126000Y-158115000D03*
X134366000Y-145415000D03*
X119126000Y-160655000D03*
X134366000Y-142875000D03*
X119126000Y-163195000D03*
X134366000Y-140335000D03*
X119126000Y-165735000D03*
X134366000Y-137795000D03*
X153416000Y-137795000D03*
X138176000Y-165735000D03*
X153416000Y-140335000D03*
X138176000Y-163195000D03*
X153416000Y-142875000D03*
X138176000Y-160655000D03*
X153416000Y-145415000D03*
X138176000Y-158115000D03*
X153416000Y-147955000D03*
X138176000Y-155575000D03*
X153416000Y-150495000D03*
X138176000Y-153035000D03*
X153416000Y-153035000D03*
X138176000Y-150495000D03*
X153416000Y-155575000D03*
X138176000Y-147955000D03*
X153416000Y-158115000D03*
X138176000Y-145415000D03*
X153416000Y-160655000D03*
X138176000Y-142875000D03*
X153416000Y-163195000D03*
X138176000Y-140335000D03*
X153416000Y-165735000D03*
D29*
X138176000Y-137795000D03*
D20*
X78994000Y-146485000D03*
X78994000Y-141605000D03*
D19*
X80264000Y-112395000D03*
D33*
X80264000Y-114935000D03*
X80264000Y-117475000D03*
X80264000Y-120015000D03*
X80264000Y-122555000D03*
X80264000Y-125095000D03*
X80264000Y-127635000D03*
M02*
