M48
; DRILL file {KiCad 5.1.12} date Mon 27 Mar 2023 11:40:59 PM MDT
; FORMAT={-:-/ absolute / metric / decimal}
; #@! TF.CreationDate,2023-03-27T23:40:59-06:00
; #@! TF.GenerationSoftware,Kicad,Pcbnew,5.1.12
; #@! TF.FileFunction,Plated,1,2,PTH
FMAT,2
METRIC
T1C0.400
T2C0.800
T3C0.813
T4C1.000
T5C1.100
T6C1.190
T7C2.000
T8C3.050
%
G90
G05
T1
X86.36Y-133.985
X90.551Y-111.125
X90.551Y-132.715
X91.186Y-135.255
X91.198Y-106.045
X92.456Y-147.955
X92.456Y-158.115
X93.091Y-137.287
X93.091Y-155.575
X95.885Y-104.775
X95.885Y-137.287
X97.155Y-131.445
X105.029Y-140.716
X105.664Y-140.081
X106.299Y-139.446
X106.934Y-138.811
X107.569Y-138.176
X108.331Y-133.985
X108.712Y-131.445
X109.22Y-128.905
X112.776Y-134.874
X112.776Y-141.986
X113.538Y-146.685
X114.173Y-140.716
X114.173Y-158.115
X114.808Y-140.081
X114.808Y-160.655
X115.443Y-139.446
X115.443Y-163.195
X116.078Y-138.811
X116.078Y-164.465
X116.713Y-138.176
X116.713Y-161.925
X116.967Y-93.345
X116.967Y-109.855
X117.729Y-94.488
X117.729Y-99.631
X117.729Y-103.505
X118.554Y-98.425
X118.554Y-125.73
X119.38Y-114.935
X120.968Y-117.475
X121.031Y-125.095
X121.031Y-145.415
X121.666Y-122.555
X121.666Y-142.875
X121.92Y-89.535
X121.92Y-104.775
X121.92Y-114.935
X122.301Y-140.335
X123.063Y-137.795
X123.698Y-112.331
X123.698Y-154.305
X124.323Y-131.445
X124.333Y-157.48
X124.587Y-95.885
X124.587Y-121.221
X125.476Y-108.458
X125.476Y-123.825
X125.476Y-125.095
X125.476Y-126.492
X125.857Y-128.905
X125.857Y-154.686
X126.492Y-117.411
X126.492Y-132.715
X126.746Y-156.845
X127.127Y-120.015
X127.127Y-130.175
X127.127Y-154.305
X127.762Y-122.428
X127.762Y-127.635
X127.762Y-151.765
X128.651Y-134.874
X128.778Y-126.873
X129.667Y-149.225
X130.292Y-133.985
X130.302Y-160.655
X131.191Y-142.748
X131.191Y-150.495
X131.381Y-126.235
X131.381Y-131.191
X131.826Y-157.988
X132.08Y-140.462
X132.207Y-136.398
X133.794Y-123.825
X140.843Y-135.636
X140.843Y-145.415
X140.97Y-155.702
X141.859Y-124.714
X146.05Y-85.09
X150.749Y-156.845
X157.709Y-92.939
X167.005Y-126.746
X172.085Y-127.381
T2
X78.994Y-133.858
X78.994Y-136.358
X78.994Y-141.605
X78.994Y-146.485
X78.994Y-151.805
X78.994Y-154.305
X80.264Y-112.395
X80.264Y-114.935
X80.264Y-117.475
X80.264Y-120.015
X80.264Y-122.555
X80.264Y-125.095
X80.264Y-127.635
X84.074Y-102.235
X84.074Y-104.775
X84.074Y-107.315
X84.074Y-109.855
X84.074Y-112.395
X84.074Y-114.935
X84.074Y-117.475
X84.074Y-120.015
X84.074Y-122.555
X84.074Y-125.095
X84.074Y-127.635
X84.074Y-130.175
X84.074Y-132.715
X84.074Y-135.255
X84.074Y-137.795
X84.074Y-140.335
X84.074Y-142.875
X84.074Y-145.415
X84.074Y-147.955
X84.074Y-150.495
X94.361Y-153.797
X95.504Y-94.488
X95.504Y-96.988
X96.861Y-153.797
X99.314Y-102.235
X99.314Y-104.775
X99.314Y-107.315
X99.314Y-109.855
X99.314Y-112.395
X99.314Y-114.935
X99.314Y-117.475
X99.314Y-120.015
X99.314Y-122.555
X99.314Y-125.095
X99.314Y-127.635
X99.314Y-130.175
X99.314Y-132.715
X99.314Y-135.255
X99.314Y-137.795
X99.314Y-140.335
X99.314Y-142.875
X99.314Y-145.415
X99.314Y-147.955
X99.314Y-150.495
X102.108Y-144.653
X103.124Y-89.535
X103.124Y-92.075
X103.124Y-94.615
X103.124Y-97.155
X103.124Y-99.695
X103.124Y-102.235
X103.124Y-104.775
X103.124Y-112.395
X103.124Y-114.935
X103.124Y-117.475
X103.124Y-120.015
X103.124Y-122.555
X103.124Y-125.095
X103.124Y-127.635
X103.124Y-130.175
X103.124Y-132.715
X103.124Y-135.255
X103.124Y-147.955
X103.124Y-150.495
X103.124Y-153.035
X103.124Y-155.575
X103.124Y-158.115
X103.124Y-160.655
X103.124Y-163.195
X103.124Y-165.735
X104.608Y-144.653
X105.664Y-86.233
X105.664Y-109.22
X108.164Y-86.233
X108.164Y-109.22
X110.49Y-81.28
X110.49Y-83.28
X110.744Y-89.535
X110.744Y-92.075
X110.744Y-94.615
X110.744Y-97.155
X110.744Y-99.695
X110.744Y-102.235
X110.744Y-104.775
X110.744Y-112.395
X110.744Y-114.935
X110.744Y-117.475
X110.744Y-120.015
X110.744Y-122.555
X110.744Y-125.095
X110.744Y-127.635
X110.744Y-130.175
X110.744Y-132.715
X110.744Y-135.255
X110.744Y-147.955
X110.744Y-150.495
X110.744Y-153.035
X110.744Y-155.575
X110.744Y-158.115
X110.744Y-160.655
X110.744Y-163.195
X110.744Y-165.735
X114.427Y-92.075
X114.427Y-94.615
X114.427Y-97.155
X114.427Y-99.695
X114.427Y-102.235
X114.427Y-104.775
X114.427Y-107.315
X114.427Y-109.855
X114.427Y-112.395
X114.427Y-114.935
X114.427Y-117.475
X114.427Y-120.015
X114.427Y-122.555
X114.427Y-125.095
X115.57Y-78.74
X115.57Y-81.28
X115.57Y-83.82
X115.57Y-86.36
X119.126Y-137.795
X119.126Y-140.335
X119.126Y-142.875
X119.126Y-145.415
X119.126Y-147.955
X119.126Y-150.495
X119.126Y-153.035
X119.126Y-155.575
X119.126Y-158.115
X119.126Y-160.655
X119.126Y-163.195
X119.126Y-165.735
X123.19Y-78.74
X123.19Y-81.28
X123.19Y-83.82
X123.19Y-86.36
X127.0Y-78.78
X127.0Y-81.28
X128.27Y-84.455
X128.27Y-86.455
X129.667Y-92.075
X129.667Y-94.615
X129.667Y-97.155
X129.667Y-99.695
X129.667Y-102.235
X129.667Y-104.775
X129.667Y-107.315
X129.667Y-109.855
X129.667Y-112.395
X129.667Y-114.935
X129.667Y-117.475
X129.667Y-120.015
X129.667Y-122.555
X129.667Y-125.095
X131.953Y-134.493
X133.35Y-104.815
X133.35Y-107.315
X133.731Y-115.316
X133.731Y-117.816
X133.731Y-119.888
X133.731Y-122.388
X134.239Y-90.751
X134.239Y-95.631
X134.366Y-137.795
X134.366Y-140.335
X134.366Y-142.875
X134.366Y-145.415
X134.366Y-147.955
X134.366Y-150.495
X134.366Y-153.035
X134.366Y-155.575
X134.366Y-158.115
X134.366Y-160.655
X134.366Y-163.195
X134.366Y-165.735
X134.453Y-134.493
X138.176Y-137.795
X138.176Y-140.335
X138.176Y-142.875
X138.176Y-145.415
X138.176Y-147.955
X138.176Y-150.495
X138.176Y-153.035
X138.176Y-155.575
X138.176Y-158.115
X138.176Y-160.655
X138.176Y-163.195
X138.176Y-165.735
X138.938Y-88.265
X138.938Y-90.765
X138.938Y-95.671
X138.938Y-98.171
X139.319Y-105.156
X139.319Y-107.696
X139.319Y-110.236
X139.319Y-112.776
X139.319Y-115.316
X139.319Y-117.856
X139.319Y-120.396
X141.899Y-101.981
X144.399Y-101.981
X144.526Y-134.366
X146.939Y-105.156
X146.939Y-107.696
X146.939Y-110.236
X146.939Y-112.776
X146.939Y-115.316
X146.939Y-117.856
X146.939Y-120.396
X147.026Y-134.366
X150.241Y-102.656
X150.241Y-105.156
X150.241Y-107.696
X150.241Y-110.196
X150.241Y-112.816
X150.241Y-115.316
X150.241Y-117.856
X150.241Y-120.356
X152.821Y-102.616
X153.416Y-137.795
X153.416Y-140.335
X153.416Y-142.875
X153.416Y-145.415
X153.416Y-147.955
X153.416Y-150.495
X153.416Y-153.035
X153.416Y-155.575
X153.416Y-158.115
X153.416Y-160.655
X153.416Y-163.195
X153.416Y-165.735
X154.178Y-91.694
X154.178Y-94.234
X154.178Y-96.774
X154.178Y-99.314
X155.321Y-102.616
X156.845Y-123.825
X156.845Y-131.445
X156.885Y-120.65
X156.885Y-137.795
X158.155Y-134.62
X159.385Y-120.65
X159.385Y-123.825
X159.385Y-131.445
X159.385Y-137.795
X160.655Y-134.62
X161.798Y-91.694
X161.798Y-94.234
X161.798Y-96.774
X161.798Y-99.314
X161.925Y-123.825
X161.925Y-131.445
X162.623Y-87.122
X164.465Y-123.825
X164.465Y-131.445
X164.505Y-134.62
X164.623Y-87.122
X164.846Y-96.814
X164.846Y-99.314
X165.481Y-118.681
X167.005Y-123.825
X167.005Y-131.445
X167.005Y-134.62
X167.981Y-118.681
X169.545Y-123.825
X169.545Y-131.445
X169.545Y-134.62
X172.045Y-134.62
X172.085Y-123.825
X172.085Y-131.445
X174.625Y-123.825
X174.625Y-131.445
T3
X92.583Y-160.655
X100.203Y-86.868
X100.203Y-94.488
X100.203Y-160.655
X136.525Y-102.616
X136.525Y-110.236
X136.525Y-112.776
X136.525Y-120.396
X139.319Y-123.19
X139.446Y-128.905
X146.939Y-123.19
X147.066Y-128.905
X152.4Y-122.301
X152.4Y-129.921
X153.035Y-107.696
X153.035Y-115.316
X155.321Y-110.236
X155.321Y-117.856
X155.448Y-105.41
X163.068Y-105.41
T4
X107.505Y-144.463
X110.045Y-144.463
X112.585Y-144.463
X133.794Y-128.905
X136.334Y-128.905
X165.735Y-146.812
X165.735Y-149.582
X165.735Y-152.352
X165.735Y-155.122
X165.735Y-157.892
X168.575Y-148.197
X168.575Y-150.967
X168.575Y-153.737
X168.575Y-156.507
X172.466Y-89.655
X172.466Y-92.155
X172.466Y-94.655
X172.466Y-97.155
X173.101Y-117.348
X173.101Y-119.888
T5
X92.392Y-83.225
X92.392Y-89.725
X96.892Y-83.225
X96.892Y-89.725
T6
X160.401Y-111.506
X160.401Y-114.046
T7
X169.166Y-87.255
X169.166Y-99.555
T8
X167.155Y-139.852
X167.155Y-164.852
T4
X81.757Y-91.71G85X81.757Y-93.71
G05
X83.757Y-97.41G85X85.757Y-97.41
G05
X87.757Y-91.71G85X87.757Y-93.71
G05
X168.478Y-103.966G85X167.978Y-103.966
G05
X168.478Y-106.466G85X167.978Y-106.466
G05
X168.478Y-113.966G85X167.978Y-113.966
G05
X173.228Y-109.216G85X173.228Y-108.716
G05
T0
M30
