%FSLAX45Y45*%
G04 Gerber Fmt 4.5, Leading zero omitted, Abs format (unit mm)*
G04 Created by KiCad (PCBNEW 5.1.12) date 2023-02-04 16:13:30*
%MOMM*%
%LPD*%
G01*
G04 APERTURE LIST*
%TA.AperFunction,Profile*%
%ADD10C,0.150000*%
%TD*%
%ADD11C,0.200000*%
%ADD12C,0.300000*%
G04 APERTURE END LIST*
D10*
X17610000Y-7620000D02*
X7620000Y-7620000D01*
X17610000Y-7620000D02*
X17610000Y-17610000D01*
X7620000Y-17610000D02*
X17610000Y-17610000D01*
X7620000Y-7620000D02*
X7620000Y-17610000D01*
D11*
X8616000Y-13378500D02*
X8656000Y-13418500D01*
X8656000Y-13378500D02*
X8616000Y-13418500D01*
X9035100Y-11092500D02*
X9075100Y-11132500D01*
X9075100Y-11092500D02*
X9035100Y-11132500D01*
X9035100Y-13251500D02*
X9075100Y-13291500D01*
X9075100Y-13251500D02*
X9035100Y-13291500D01*
X9098600Y-13505500D02*
X9138600Y-13545500D01*
X9138600Y-13505500D02*
X9098600Y-13545500D01*
X9099800Y-10584500D02*
X9139800Y-10624500D01*
X9139800Y-10584500D02*
X9099800Y-10624500D01*
X9225600Y-14775500D02*
X9265600Y-14815500D01*
X9265600Y-14775500D02*
X9225600Y-14815500D01*
X9225600Y-15791500D02*
X9265600Y-15831500D01*
X9265600Y-15791500D02*
X9225600Y-15831500D01*
X9289100Y-13708700D02*
X9329100Y-13748700D01*
X9329100Y-13708700D02*
X9289100Y-13748700D01*
X9289100Y-15537500D02*
X9329100Y-15577500D01*
X9329100Y-15537500D02*
X9289100Y-15577500D01*
X9568500Y-10457500D02*
X9608500Y-10497500D01*
X9608500Y-10457500D02*
X9568500Y-10497500D01*
X9568500Y-13708700D02*
X9608500Y-13748700D01*
X9608500Y-13708700D02*
X9568500Y-13748700D01*
X9695500Y-13124500D02*
X9735500Y-13164500D01*
X9735500Y-13124500D02*
X9695500Y-13164500D01*
X10482900Y-14051600D02*
X10522900Y-14091600D01*
X10522900Y-14051600D02*
X10482900Y-14091600D01*
X10546400Y-13988100D02*
X10586400Y-14028100D01*
X10586400Y-13988100D02*
X10546400Y-14028100D01*
X10609900Y-13924600D02*
X10649900Y-13964600D01*
X10649900Y-13924600D02*
X10609900Y-13964600D01*
X10673400Y-13861100D02*
X10713400Y-13901100D01*
X10713400Y-13861100D02*
X10673400Y-13901100D01*
X10736900Y-13797600D02*
X10776900Y-13837600D01*
X10776900Y-13797600D02*
X10736900Y-13837600D01*
X10813100Y-13378500D02*
X10853100Y-13418500D01*
X10853100Y-13378500D02*
X10813100Y-13418500D01*
X10851200Y-13124500D02*
X10891200Y-13164500D01*
X10891200Y-13124500D02*
X10851200Y-13164500D01*
X10902000Y-12870500D02*
X10942000Y-12910500D01*
X10942000Y-12870500D02*
X10902000Y-12910500D01*
X11257600Y-13467400D02*
X11297600Y-13507400D01*
X11297600Y-13467400D02*
X11257600Y-13507400D01*
X11257600Y-14178600D02*
X11297600Y-14218600D01*
X11297600Y-14178600D02*
X11257600Y-14218600D01*
X11333800Y-14648500D02*
X11373800Y-14688500D01*
X11373800Y-14648500D02*
X11333800Y-14688500D01*
X11397300Y-14051600D02*
X11437300Y-14091600D01*
X11437300Y-14051600D02*
X11397300Y-14091600D01*
X11397300Y-15791500D02*
X11437300Y-15831500D01*
X11437300Y-15791500D02*
X11397300Y-15831500D01*
X11460800Y-13988100D02*
X11500800Y-14028100D01*
X11500800Y-13988100D02*
X11460800Y-14028100D01*
X11460800Y-16045500D02*
X11500800Y-16085500D01*
X11500800Y-16045500D02*
X11460800Y-16085500D01*
X11524300Y-13924600D02*
X11564300Y-13964600D01*
X11564300Y-13924600D02*
X11524300Y-13964600D01*
X11524300Y-16299500D02*
X11564300Y-16339500D01*
X11564300Y-16299500D02*
X11524300Y-16339500D01*
X11587800Y-13861100D02*
X11627800Y-13901100D01*
X11627800Y-13861100D02*
X11587800Y-13901100D01*
X11587800Y-16426500D02*
X11627800Y-16466500D01*
X11627800Y-16426500D02*
X11587800Y-16466500D01*
X11651300Y-13797600D02*
X11691300Y-13837600D01*
X11691300Y-13797600D02*
X11651300Y-13837600D01*
X11651300Y-16172500D02*
X11691300Y-16212500D01*
X11691300Y-16172500D02*
X11651300Y-16212500D01*
X11676700Y-9314500D02*
X11716700Y-9354500D01*
X11716700Y-9314500D02*
X11676700Y-9354500D01*
X11676700Y-10965500D02*
X11716700Y-11005500D01*
X11716700Y-10965500D02*
X11676700Y-11005500D01*
X11752900Y-9428800D02*
X11792900Y-9468800D01*
X11792900Y-9428800D02*
X11752900Y-9468800D01*
X11752900Y-9943150D02*
X11792900Y-9983150D01*
X11792900Y-9943150D02*
X11752900Y-9983150D01*
X11752900Y-10330500D02*
X11792900Y-10370500D01*
X11792900Y-10330500D02*
X11752900Y-10370500D01*
X11835450Y-9822500D02*
X11875450Y-9862500D01*
X11875450Y-9822500D02*
X11835450Y-9862500D01*
X11835450Y-12553000D02*
X11875450Y-12593000D01*
X11875450Y-12553000D02*
X11835450Y-12593000D01*
X11918000Y-11473500D02*
X11958000Y-11513500D01*
X11958000Y-11473500D02*
X11918000Y-11513500D01*
X12076750Y-11727500D02*
X12116750Y-11767500D01*
X12116750Y-11727500D02*
X12076750Y-11767500D01*
X12083100Y-12489500D02*
X12123100Y-12529500D01*
X12123100Y-12489500D02*
X12083100Y-12529500D01*
X12083100Y-14521500D02*
X12123100Y-14561500D01*
X12123100Y-14521500D02*
X12083100Y-14561500D01*
X12146600Y-12235500D02*
X12186600Y-12275500D01*
X12186600Y-12235500D02*
X12146600Y-12275500D01*
X12146600Y-14267500D02*
X12186600Y-14307500D01*
X12186600Y-14267500D02*
X12146600Y-14307500D01*
X12172000Y-8933500D02*
X12212000Y-8973500D01*
X12212000Y-8933500D02*
X12172000Y-8973500D01*
X12172000Y-10457500D02*
X12212000Y-10497500D01*
X12212000Y-10457500D02*
X12172000Y-10497500D01*
X12172000Y-11473500D02*
X12212000Y-11513500D01*
X12212000Y-11473500D02*
X12172000Y-11513500D01*
X12210100Y-14013500D02*
X12250100Y-14053500D01*
X12250100Y-14013500D02*
X12210100Y-14053500D01*
X12286300Y-13759500D02*
X12326300Y-13799500D01*
X12326300Y-13759500D02*
X12286300Y-13799500D01*
X12349800Y-11213150D02*
X12389800Y-11253150D01*
X12389800Y-11213150D02*
X12349800Y-11253150D01*
X12349800Y-15410500D02*
X12389800Y-15450500D01*
X12389800Y-15410500D02*
X12349800Y-15450500D01*
X12412300Y-13124500D02*
X12452300Y-13164500D01*
X12452300Y-13124500D02*
X12412300Y-13164500D01*
X12413300Y-15728000D02*
X12453300Y-15768000D01*
X12453300Y-15728000D02*
X12413300Y-15768000D01*
X12438700Y-9568500D02*
X12478700Y-9608500D01*
X12478700Y-9568500D02*
X12438700Y-9608500D01*
X12438700Y-12102150D02*
X12478700Y-12142150D01*
X12478700Y-12102150D02*
X12438700Y-12142150D01*
X12527600Y-10825800D02*
X12567600Y-10865800D01*
X12567600Y-10825800D02*
X12527600Y-10865800D01*
X12527600Y-12362500D02*
X12567600Y-12402500D01*
X12567600Y-12362500D02*
X12527600Y-12402500D01*
X12527600Y-12489500D02*
X12567600Y-12529500D01*
X12567600Y-12489500D02*
X12527600Y-12529500D01*
X12527600Y-12629200D02*
X12567600Y-12669200D01*
X12567600Y-12629200D02*
X12527600Y-12669200D01*
X12565700Y-12870500D02*
X12605700Y-12910500D01*
X12605700Y-12870500D02*
X12565700Y-12910500D01*
X12565700Y-15448600D02*
X12605700Y-15488600D01*
X12605700Y-15448600D02*
X12565700Y-15488600D01*
X12629200Y-11721150D02*
X12669200Y-11761150D01*
X12669200Y-11721150D02*
X12629200Y-11761150D01*
X12629200Y-13251500D02*
X12669200Y-13291500D01*
X12669200Y-13251500D02*
X12629200Y-13291500D01*
X12654600Y-15664500D02*
X12694600Y-15704500D01*
X12694600Y-15664500D02*
X12654600Y-15704500D01*
X12692700Y-11981500D02*
X12732700Y-12021500D01*
X12732700Y-11981500D02*
X12692700Y-12021500D01*
X12692700Y-12997500D02*
X12732700Y-13037500D01*
X12732700Y-12997500D02*
X12692700Y-13037500D01*
X12692700Y-15410500D02*
X12732700Y-15450500D01*
X12732700Y-15410500D02*
X12692700Y-15450500D01*
X12756200Y-12222800D02*
X12796200Y-12262800D01*
X12796200Y-12222800D02*
X12756200Y-12262800D01*
X12756200Y-12743500D02*
X12796200Y-12783500D01*
X12796200Y-12743500D02*
X12756200Y-12783500D01*
X12756200Y-15156500D02*
X12796200Y-15196500D01*
X12796200Y-15156500D02*
X12756200Y-15196500D01*
X12845100Y-13467400D02*
X12885100Y-13507400D01*
X12885100Y-13467400D02*
X12845100Y-13507400D01*
X12857800Y-12667300D02*
X12897800Y-12707300D01*
X12897800Y-12667300D02*
X12857800Y-12707300D01*
X12946700Y-14902500D02*
X12986700Y-14942500D01*
X12986700Y-14902500D02*
X12946700Y-14942500D01*
X13009200Y-13378500D02*
X13049200Y-13418500D01*
X13049200Y-13378500D02*
X13009200Y-13418500D01*
X13010200Y-16045500D02*
X13050200Y-16085500D01*
X13050200Y-16045500D02*
X13010200Y-16085500D01*
X13099100Y-14254800D02*
X13139100Y-14294800D01*
X13139100Y-14254800D02*
X13099100Y-14294800D01*
X13099100Y-15029500D02*
X13139100Y-15069500D01*
X13139100Y-15029500D02*
X13099100Y-15069500D01*
X13118149Y-12603523D02*
X13158149Y-12643523D01*
X13158149Y-12603523D02*
X13118149Y-12643523D01*
X13118150Y-13099100D02*
X13158150Y-13139100D01*
X13158150Y-13099100D02*
X13118150Y-13139100D01*
X13162600Y-15778800D02*
X13202600Y-15818800D01*
X13202600Y-15778800D02*
X13162600Y-15818800D01*
X13188000Y-14026200D02*
X13228000Y-14066200D01*
X13228000Y-14026200D02*
X13188000Y-14066200D01*
X13200700Y-13619800D02*
X13240700Y-13659800D01*
X13240700Y-13619800D02*
X13200700Y-13659800D01*
X13359450Y-12362500D02*
X13399450Y-12402500D01*
X13399450Y-12362500D02*
X13359450Y-12402500D01*
X14064300Y-13543600D02*
X14104300Y-13583600D01*
X14104300Y-13543600D02*
X14064300Y-13583600D01*
X14064300Y-14521500D02*
X14104300Y-14561500D01*
X14104300Y-14521500D02*
X14064300Y-14561500D01*
X14077000Y-15550200D02*
X14117000Y-15590200D01*
X14117000Y-15550200D02*
X14077000Y-15590200D01*
X14165900Y-12451400D02*
X14205900Y-12491400D01*
X14205900Y-12451400D02*
X14165900Y-12491400D01*
X14712000Y-8984300D02*
X14752000Y-9024300D01*
X14752000Y-8984300D02*
X14712000Y-9024300D01*
X15004100Y-8895400D02*
X15044100Y-8935400D01*
X15044100Y-8895400D02*
X15004100Y-8935400D01*
X15054900Y-15664500D02*
X15094900Y-15704500D01*
X15094900Y-15664500D02*
X15054900Y-15704500D01*
X15753400Y-8984300D02*
X15793400Y-9024300D01*
X15793400Y-8984300D02*
X15753400Y-9024300D01*
X16680500Y-12654600D02*
X16720500Y-12694600D01*
X16720500Y-12654600D02*
X16680500Y-12694600D01*
X17188500Y-12718100D02*
X17228500Y-12758100D01*
X17228500Y-12718100D02*
X17188500Y-12758100D01*
X7939400Y-13385800D02*
G75*
G03*
X7939400Y-13385800I-40000J0D01*
G01*
X7939400Y-13635800D02*
G75*
G03*
X7939400Y-13635800I-40000J0D01*
G01*
X7939400Y-14160500D02*
G75*
G03*
X7939400Y-14160500I-40000J0D01*
G01*
X7939400Y-14648500D02*
G75*
G03*
X7939400Y-14648500I-40000J0D01*
G01*
X7939400Y-15180500D02*
G75*
G03*
X7939400Y-15180500I-40000J0D01*
G01*
X7939400Y-15430500D02*
G75*
G03*
X7939400Y-15430500I-40000J0D01*
G01*
X8066400Y-11239500D02*
G75*
G03*
X8066400Y-11239500I-40000J0D01*
G01*
X8066400Y-11493500D02*
G75*
G03*
X8066400Y-11493500I-40000J0D01*
G01*
X8066400Y-11747500D02*
G75*
G03*
X8066400Y-11747500I-40000J0D01*
G01*
X8066400Y-12001500D02*
G75*
G03*
X8066400Y-12001500I-40000J0D01*
G01*
X8066400Y-12255500D02*
G75*
G03*
X8066400Y-12255500I-40000J0D01*
G01*
X8066400Y-12509500D02*
G75*
G03*
X8066400Y-12509500I-40000J0D01*
G01*
X8066400Y-12763500D02*
G75*
G03*
X8066400Y-12763500I-40000J0D01*
G01*
X8447400Y-10223500D02*
G75*
G03*
X8447400Y-10223500I-40000J0D01*
G01*
X8447400Y-10477500D02*
G75*
G03*
X8447400Y-10477500I-40000J0D01*
G01*
X8447400Y-10731500D02*
G75*
G03*
X8447400Y-10731500I-40000J0D01*
G01*
X8447400Y-10985500D02*
G75*
G03*
X8447400Y-10985500I-40000J0D01*
G01*
X8447400Y-11239500D02*
G75*
G03*
X8447400Y-11239500I-40000J0D01*
G01*
X8447400Y-11493500D02*
G75*
G03*
X8447400Y-11493500I-40000J0D01*
G01*
X8447400Y-11747500D02*
G75*
G03*
X8447400Y-11747500I-40000J0D01*
G01*
X8447400Y-12001500D02*
G75*
G03*
X8447400Y-12001500I-40000J0D01*
G01*
X8447400Y-12255500D02*
G75*
G03*
X8447400Y-12255500I-40000J0D01*
G01*
X8447400Y-12509500D02*
G75*
G03*
X8447400Y-12509500I-40000J0D01*
G01*
X8447400Y-12763500D02*
G75*
G03*
X8447400Y-12763500I-40000J0D01*
G01*
X8447400Y-13017500D02*
G75*
G03*
X8447400Y-13017500I-40000J0D01*
G01*
X8447400Y-13271500D02*
G75*
G03*
X8447400Y-13271500I-40000J0D01*
G01*
X8447400Y-13525500D02*
G75*
G03*
X8447400Y-13525500I-40000J0D01*
G01*
X8447400Y-13779500D02*
G75*
G03*
X8447400Y-13779500I-40000J0D01*
G01*
X8447400Y-14033500D02*
G75*
G03*
X8447400Y-14033500I-40000J0D01*
G01*
X8447400Y-14287500D02*
G75*
G03*
X8447400Y-14287500I-40000J0D01*
G01*
X8447400Y-14541500D02*
G75*
G03*
X8447400Y-14541500I-40000J0D01*
G01*
X8447400Y-14795500D02*
G75*
G03*
X8447400Y-14795500I-40000J0D01*
G01*
X8447400Y-15049500D02*
G75*
G03*
X8447400Y-15049500I-40000J0D01*
G01*
X9476100Y-15379700D02*
G75*
G03*
X9476100Y-15379700I-40000J0D01*
G01*
X9590400Y-9448800D02*
G75*
G03*
X9590400Y-9448800I-40000J0D01*
G01*
X9590400Y-9698800D02*
G75*
G03*
X9590400Y-9698800I-40000J0D01*
G01*
X9726100Y-15379700D02*
G75*
G03*
X9726100Y-15379700I-40000J0D01*
G01*
X9971400Y-10223500D02*
G75*
G03*
X9971400Y-10223500I-40000J0D01*
G01*
X9971400Y-10477500D02*
G75*
G03*
X9971400Y-10477500I-40000J0D01*
G01*
X9971400Y-10731500D02*
G75*
G03*
X9971400Y-10731500I-40000J0D01*
G01*
X9971400Y-10985500D02*
G75*
G03*
X9971400Y-10985500I-40000J0D01*
G01*
X9971400Y-11239500D02*
G75*
G03*
X9971400Y-11239500I-40000J0D01*
G01*
X9971400Y-11493500D02*
G75*
G03*
X9971400Y-11493500I-40000J0D01*
G01*
X9971400Y-11747500D02*
G75*
G03*
X9971400Y-11747500I-40000J0D01*
G01*
X9971400Y-12001500D02*
G75*
G03*
X9971400Y-12001500I-40000J0D01*
G01*
X9971400Y-12255500D02*
G75*
G03*
X9971400Y-12255500I-40000J0D01*
G01*
X9971400Y-12509500D02*
G75*
G03*
X9971400Y-12509500I-40000J0D01*
G01*
X9971400Y-12763500D02*
G75*
G03*
X9971400Y-12763500I-40000J0D01*
G01*
X9971400Y-13017500D02*
G75*
G03*
X9971400Y-13017500I-40000J0D01*
G01*
X9971400Y-13271500D02*
G75*
G03*
X9971400Y-13271500I-40000J0D01*
G01*
X9971400Y-13525500D02*
G75*
G03*
X9971400Y-13525500I-40000J0D01*
G01*
X9971400Y-13779500D02*
G75*
G03*
X9971400Y-13779500I-40000J0D01*
G01*
X9971400Y-14033500D02*
G75*
G03*
X9971400Y-14033500I-40000J0D01*
G01*
X9971400Y-14287500D02*
G75*
G03*
X9971400Y-14287500I-40000J0D01*
G01*
X9971400Y-14541500D02*
G75*
G03*
X9971400Y-14541500I-40000J0D01*
G01*
X9971400Y-14795500D02*
G75*
G03*
X9971400Y-14795500I-40000J0D01*
G01*
X9971400Y-15049500D02*
G75*
G03*
X9971400Y-15049500I-40000J0D01*
G01*
X10250800Y-14465300D02*
G75*
G03*
X10250800Y-14465300I-40000J0D01*
G01*
X10352400Y-8953500D02*
G75*
G03*
X10352400Y-8953500I-40000J0D01*
G01*
X10352400Y-9207500D02*
G75*
G03*
X10352400Y-9207500I-40000J0D01*
G01*
X10352400Y-9461500D02*
G75*
G03*
X10352400Y-9461500I-40000J0D01*
G01*
X10352400Y-9715500D02*
G75*
G03*
X10352400Y-9715500I-40000J0D01*
G01*
X10352400Y-9969500D02*
G75*
G03*
X10352400Y-9969500I-40000J0D01*
G01*
X10352400Y-10223500D02*
G75*
G03*
X10352400Y-10223500I-40000J0D01*
G01*
X10352400Y-10477500D02*
G75*
G03*
X10352400Y-10477500I-40000J0D01*
G01*
X10352400Y-11239500D02*
G75*
G03*
X10352400Y-11239500I-40000J0D01*
G01*
X10352400Y-11493500D02*
G75*
G03*
X10352400Y-11493500I-40000J0D01*
G01*
X10352400Y-11747500D02*
G75*
G03*
X10352400Y-11747500I-40000J0D01*
G01*
X10352400Y-12001500D02*
G75*
G03*
X10352400Y-12001500I-40000J0D01*
G01*
X10352400Y-12255500D02*
G75*
G03*
X10352400Y-12255500I-40000J0D01*
G01*
X10352400Y-12509500D02*
G75*
G03*
X10352400Y-12509500I-40000J0D01*
G01*
X10352400Y-12763500D02*
G75*
G03*
X10352400Y-12763500I-40000J0D01*
G01*
X10352400Y-13017500D02*
G75*
G03*
X10352400Y-13017500I-40000J0D01*
G01*
X10352400Y-13271500D02*
G75*
G03*
X10352400Y-13271500I-40000J0D01*
G01*
X10352400Y-13525500D02*
G75*
G03*
X10352400Y-13525500I-40000J0D01*
G01*
X10352400Y-14795500D02*
G75*
G03*
X10352400Y-14795500I-40000J0D01*
G01*
X10352400Y-15049500D02*
G75*
G03*
X10352400Y-15049500I-40000J0D01*
G01*
X10352400Y-15303500D02*
G75*
G03*
X10352400Y-15303500I-40000J0D01*
G01*
X10352400Y-15557500D02*
G75*
G03*
X10352400Y-15557500I-40000J0D01*
G01*
X10352400Y-15811500D02*
G75*
G03*
X10352400Y-15811500I-40000J0D01*
G01*
X10352400Y-16065500D02*
G75*
G03*
X10352400Y-16065500I-40000J0D01*
G01*
X10352400Y-16319500D02*
G75*
G03*
X10352400Y-16319500I-40000J0D01*
G01*
X10352400Y-16573500D02*
G75*
G03*
X10352400Y-16573500I-40000J0D01*
G01*
X10500800Y-14465300D02*
G75*
G03*
X10500800Y-14465300I-40000J0D01*
G01*
X10606400Y-8623300D02*
G75*
G03*
X10606400Y-8623300I-40000J0D01*
G01*
X10606400Y-10922000D02*
G75*
G03*
X10606400Y-10922000I-40000J0D01*
G01*
X10856400Y-8623300D02*
G75*
G03*
X10856400Y-8623300I-40000J0D01*
G01*
X10856400Y-10922000D02*
G75*
G03*
X10856400Y-10922000I-40000J0D01*
G01*
X11114400Y-8953500D02*
G75*
G03*
X11114400Y-8953500I-40000J0D01*
G01*
X11114400Y-9207500D02*
G75*
G03*
X11114400Y-9207500I-40000J0D01*
G01*
X11114400Y-9461500D02*
G75*
G03*
X11114400Y-9461500I-40000J0D01*
G01*
X11114400Y-9715500D02*
G75*
G03*
X11114400Y-9715500I-40000J0D01*
G01*
X11114400Y-9969500D02*
G75*
G03*
X11114400Y-9969500I-40000J0D01*
G01*
X11114400Y-10223500D02*
G75*
G03*
X11114400Y-10223500I-40000J0D01*
G01*
X11114400Y-10477500D02*
G75*
G03*
X11114400Y-10477500I-40000J0D01*
G01*
X11114400Y-11239500D02*
G75*
G03*
X11114400Y-11239500I-40000J0D01*
G01*
X11114400Y-11493500D02*
G75*
G03*
X11114400Y-11493500I-40000J0D01*
G01*
X11114400Y-11747500D02*
G75*
G03*
X11114400Y-11747500I-40000J0D01*
G01*
X11114400Y-12001500D02*
G75*
G03*
X11114400Y-12001500I-40000J0D01*
G01*
X11114400Y-12255500D02*
G75*
G03*
X11114400Y-12255500I-40000J0D01*
G01*
X11114400Y-12509500D02*
G75*
G03*
X11114400Y-12509500I-40000J0D01*
G01*
X11114400Y-12763500D02*
G75*
G03*
X11114400Y-12763500I-40000J0D01*
G01*
X11114400Y-13017500D02*
G75*
G03*
X11114400Y-13017500I-40000J0D01*
G01*
X11114400Y-13271500D02*
G75*
G03*
X11114400Y-13271500I-40000J0D01*
G01*
X11114400Y-13525500D02*
G75*
G03*
X11114400Y-13525500I-40000J0D01*
G01*
X11114400Y-14795500D02*
G75*
G03*
X11114400Y-14795500I-40000J0D01*
G01*
X11114400Y-15049500D02*
G75*
G03*
X11114400Y-15049500I-40000J0D01*
G01*
X11114400Y-15303500D02*
G75*
G03*
X11114400Y-15303500I-40000J0D01*
G01*
X11114400Y-15557500D02*
G75*
G03*
X11114400Y-15557500I-40000J0D01*
G01*
X11114400Y-15811500D02*
G75*
G03*
X11114400Y-15811500I-40000J0D01*
G01*
X11114400Y-16065500D02*
G75*
G03*
X11114400Y-16065500I-40000J0D01*
G01*
X11114400Y-16319500D02*
G75*
G03*
X11114400Y-16319500I-40000J0D01*
G01*
X11114400Y-16573500D02*
G75*
G03*
X11114400Y-16573500I-40000J0D01*
G01*
X11482700Y-9207500D02*
G75*
G03*
X11482700Y-9207500I-40000J0D01*
G01*
X11482700Y-9461500D02*
G75*
G03*
X11482700Y-9461500I-40000J0D01*
G01*
X11482700Y-9715500D02*
G75*
G03*
X11482700Y-9715500I-40000J0D01*
G01*
X11482700Y-9969500D02*
G75*
G03*
X11482700Y-9969500I-40000J0D01*
G01*
X11482700Y-10223500D02*
G75*
G03*
X11482700Y-10223500I-40000J0D01*
G01*
X11482700Y-10477500D02*
G75*
G03*
X11482700Y-10477500I-40000J0D01*
G01*
X11482700Y-10731500D02*
G75*
G03*
X11482700Y-10731500I-40000J0D01*
G01*
X11482700Y-10985500D02*
G75*
G03*
X11482700Y-10985500I-40000J0D01*
G01*
X11482700Y-11239500D02*
G75*
G03*
X11482700Y-11239500I-40000J0D01*
G01*
X11482700Y-11493500D02*
G75*
G03*
X11482700Y-11493500I-40000J0D01*
G01*
X11482700Y-11747500D02*
G75*
G03*
X11482700Y-11747500I-40000J0D01*
G01*
X11482700Y-12001500D02*
G75*
G03*
X11482700Y-12001500I-40000J0D01*
G01*
X11482700Y-12255500D02*
G75*
G03*
X11482700Y-12255500I-40000J0D01*
G01*
X11482700Y-12509500D02*
G75*
G03*
X11482700Y-12509500I-40000J0D01*
G01*
X11952600Y-13779500D02*
G75*
G03*
X11952600Y-13779500I-40000J0D01*
G01*
X11952600Y-14033500D02*
G75*
G03*
X11952600Y-14033500I-40000J0D01*
G01*
X11952600Y-14287500D02*
G75*
G03*
X11952600Y-14287500I-40000J0D01*
G01*
X11952600Y-14541500D02*
G75*
G03*
X11952600Y-14541500I-40000J0D01*
G01*
X11952600Y-14795500D02*
G75*
G03*
X11952600Y-14795500I-40000J0D01*
G01*
X11952600Y-15049500D02*
G75*
G03*
X11952600Y-15049500I-40000J0D01*
G01*
X11952600Y-15303500D02*
G75*
G03*
X11952600Y-15303500I-40000J0D01*
G01*
X11952600Y-15557500D02*
G75*
G03*
X11952600Y-15557500I-40000J0D01*
G01*
X11952600Y-15811500D02*
G75*
G03*
X11952600Y-15811500I-40000J0D01*
G01*
X11952600Y-16065500D02*
G75*
G03*
X11952600Y-16065500I-40000J0D01*
G01*
X11952600Y-16319500D02*
G75*
G03*
X11952600Y-16319500I-40000J0D01*
G01*
X11952600Y-16573500D02*
G75*
G03*
X11952600Y-16573500I-40000J0D01*
G01*
X13006700Y-9207500D02*
G75*
G03*
X13006700Y-9207500I-40000J0D01*
G01*
X13006700Y-9461500D02*
G75*
G03*
X13006700Y-9461500I-40000J0D01*
G01*
X13006700Y-9715500D02*
G75*
G03*
X13006700Y-9715500I-40000J0D01*
G01*
X13006700Y-9969500D02*
G75*
G03*
X13006700Y-9969500I-40000J0D01*
G01*
X13006700Y-10223500D02*
G75*
G03*
X13006700Y-10223500I-40000J0D01*
G01*
X13006700Y-10477500D02*
G75*
G03*
X13006700Y-10477500I-40000J0D01*
G01*
X13006700Y-10731500D02*
G75*
G03*
X13006700Y-10731500I-40000J0D01*
G01*
X13006700Y-10985500D02*
G75*
G03*
X13006700Y-10985500I-40000J0D01*
G01*
X13006700Y-11239500D02*
G75*
G03*
X13006700Y-11239500I-40000J0D01*
G01*
X13006700Y-11493500D02*
G75*
G03*
X13006700Y-11493500I-40000J0D01*
G01*
X13006700Y-11747500D02*
G75*
G03*
X13006700Y-11747500I-40000J0D01*
G01*
X13006700Y-12001500D02*
G75*
G03*
X13006700Y-12001500I-40000J0D01*
G01*
X13006700Y-12255500D02*
G75*
G03*
X13006700Y-12255500I-40000J0D01*
G01*
X13006700Y-12509500D02*
G75*
G03*
X13006700Y-12509500I-40000J0D01*
G01*
X13235300Y-13449300D02*
G75*
G03*
X13235300Y-13449300I-40000J0D01*
G01*
X13413100Y-11531600D02*
G75*
G03*
X13413100Y-11531600I-40000J0D01*
G01*
X13413100Y-11781600D02*
G75*
G03*
X13413100Y-11781600I-40000J0D01*
G01*
X13413100Y-11988800D02*
G75*
G03*
X13413100Y-11988800I-40000J0D01*
G01*
X13413100Y-12238800D02*
G75*
G03*
X13413100Y-12238800I-40000J0D01*
G01*
X13463900Y-9075100D02*
G75*
G03*
X13463900Y-9075100I-40000J0D01*
G01*
X13463900Y-9563100D02*
G75*
G03*
X13463900Y-9563100I-40000J0D01*
G01*
X13476600Y-13779500D02*
G75*
G03*
X13476600Y-13779500I-40000J0D01*
G01*
X13476600Y-14033500D02*
G75*
G03*
X13476600Y-14033500I-40000J0D01*
G01*
X13476600Y-14287500D02*
G75*
G03*
X13476600Y-14287500I-40000J0D01*
G01*
X13476600Y-14541500D02*
G75*
G03*
X13476600Y-14541500I-40000J0D01*
G01*
X13476600Y-14795500D02*
G75*
G03*
X13476600Y-14795500I-40000J0D01*
G01*
X13476600Y-15049500D02*
G75*
G03*
X13476600Y-15049500I-40000J0D01*
G01*
X13476600Y-15303500D02*
G75*
G03*
X13476600Y-15303500I-40000J0D01*
G01*
X13476600Y-15557500D02*
G75*
G03*
X13476600Y-15557500I-40000J0D01*
G01*
X13476600Y-15811500D02*
G75*
G03*
X13476600Y-15811500I-40000J0D01*
G01*
X13476600Y-16065500D02*
G75*
G03*
X13476600Y-16065500I-40000J0D01*
G01*
X13476600Y-16319500D02*
G75*
G03*
X13476600Y-16319500I-40000J0D01*
G01*
X13476600Y-16573500D02*
G75*
G03*
X13476600Y-16573500I-40000J0D01*
G01*
X13485300Y-13449300D02*
G75*
G03*
X13485300Y-13449300I-40000J0D01*
G01*
X13857600Y-13779500D02*
G75*
G03*
X13857600Y-13779500I-40000J0D01*
G01*
X13857600Y-14033500D02*
G75*
G03*
X13857600Y-14033500I-40000J0D01*
G01*
X13857600Y-14287500D02*
G75*
G03*
X13857600Y-14287500I-40000J0D01*
G01*
X13857600Y-14541500D02*
G75*
G03*
X13857600Y-14541500I-40000J0D01*
G01*
X13857600Y-14795500D02*
G75*
G03*
X13857600Y-14795500I-40000J0D01*
G01*
X13857600Y-15049500D02*
G75*
G03*
X13857600Y-15049500I-40000J0D01*
G01*
X13857600Y-15303500D02*
G75*
G03*
X13857600Y-15303500I-40000J0D01*
G01*
X13857600Y-15557500D02*
G75*
G03*
X13857600Y-15557500I-40000J0D01*
G01*
X13857600Y-15811500D02*
G75*
G03*
X13857600Y-15811500I-40000J0D01*
G01*
X13857600Y-16065500D02*
G75*
G03*
X13857600Y-16065500I-40000J0D01*
G01*
X13857600Y-16319500D02*
G75*
G03*
X13857600Y-16319500I-40000J0D01*
G01*
X13857600Y-16573500D02*
G75*
G03*
X13857600Y-16573500I-40000J0D01*
G01*
X13933800Y-8826500D02*
G75*
G03*
X13933800Y-8826500I-40000J0D01*
G01*
X13933800Y-9076500D02*
G75*
G03*
X13933800Y-9076500I-40000J0D01*
G01*
X13933800Y-9567100D02*
G75*
G03*
X13933800Y-9567100I-40000J0D01*
G01*
X13933800Y-9817100D02*
G75*
G03*
X13933800Y-9817100I-40000J0D01*
G01*
X13971900Y-10515600D02*
G75*
G03*
X13971900Y-10515600I-40000J0D01*
G01*
X13971900Y-10769600D02*
G75*
G03*
X13971900Y-10769600I-40000J0D01*
G01*
X13971900Y-11023600D02*
G75*
G03*
X13971900Y-11023600I-40000J0D01*
G01*
X13971900Y-11277600D02*
G75*
G03*
X13971900Y-11277600I-40000J0D01*
G01*
X13971900Y-11531600D02*
G75*
G03*
X13971900Y-11531600I-40000J0D01*
G01*
X13971900Y-11785600D02*
G75*
G03*
X13971900Y-11785600I-40000J0D01*
G01*
X13971900Y-12039600D02*
G75*
G03*
X13971900Y-12039600I-40000J0D01*
G01*
X14229900Y-10198100D02*
G75*
G03*
X14229900Y-10198100I-40000J0D01*
G01*
X14479900Y-10198100D02*
G75*
G03*
X14479900Y-10198100I-40000J0D01*
G01*
X14492600Y-13436600D02*
G75*
G03*
X14492600Y-13436600I-40000J0D01*
G01*
X14733900Y-10515600D02*
G75*
G03*
X14733900Y-10515600I-40000J0D01*
G01*
X14733900Y-10769600D02*
G75*
G03*
X14733900Y-10769600I-40000J0D01*
G01*
X14733900Y-11023600D02*
G75*
G03*
X14733900Y-11023600I-40000J0D01*
G01*
X14733900Y-11277600D02*
G75*
G03*
X14733900Y-11277600I-40000J0D01*
G01*
X14733900Y-11531600D02*
G75*
G03*
X14733900Y-11531600I-40000J0D01*
G01*
X14733900Y-11785600D02*
G75*
G03*
X14733900Y-11785600I-40000J0D01*
G01*
X14733900Y-12039600D02*
G75*
G03*
X14733900Y-12039600I-40000J0D01*
G01*
X14742600Y-13436600D02*
G75*
G03*
X14742600Y-13436600I-40000J0D01*
G01*
X15064100Y-10265600D02*
G75*
G03*
X15064100Y-10265600I-40000J0D01*
G01*
X15064100Y-10515600D02*
G75*
G03*
X15064100Y-10515600I-40000J0D01*
G01*
X15064100Y-10769600D02*
G75*
G03*
X15064100Y-10769600I-40000J0D01*
G01*
X15064100Y-11019600D02*
G75*
G03*
X15064100Y-11019600I-40000J0D01*
G01*
X15064100Y-11281600D02*
G75*
G03*
X15064100Y-11281600I-40000J0D01*
G01*
X15064100Y-11531600D02*
G75*
G03*
X15064100Y-11531600I-40000J0D01*
G01*
X15064100Y-11785600D02*
G75*
G03*
X15064100Y-11785600I-40000J0D01*
G01*
X15064100Y-12035600D02*
G75*
G03*
X15064100Y-12035600I-40000J0D01*
G01*
X15322100Y-10261600D02*
G75*
G03*
X15322100Y-10261600I-40000J0D01*
G01*
X15381600Y-13779500D02*
G75*
G03*
X15381600Y-13779500I-40000J0D01*
G01*
X15381600Y-14033500D02*
G75*
G03*
X15381600Y-14033500I-40000J0D01*
G01*
X15381600Y-14287500D02*
G75*
G03*
X15381600Y-14287500I-40000J0D01*
G01*
X15381600Y-14541500D02*
G75*
G03*
X15381600Y-14541500I-40000J0D01*
G01*
X15381600Y-14795500D02*
G75*
G03*
X15381600Y-14795500I-40000J0D01*
G01*
X15381600Y-15049500D02*
G75*
G03*
X15381600Y-15049500I-40000J0D01*
G01*
X15381600Y-15303500D02*
G75*
G03*
X15381600Y-15303500I-40000J0D01*
G01*
X15381600Y-15557500D02*
G75*
G03*
X15381600Y-15557500I-40000J0D01*
G01*
X15381600Y-15811500D02*
G75*
G03*
X15381600Y-15811500I-40000J0D01*
G01*
X15381600Y-16065500D02*
G75*
G03*
X15381600Y-16065500I-40000J0D01*
G01*
X15381600Y-16319500D02*
G75*
G03*
X15381600Y-16319500I-40000J0D01*
G01*
X15381600Y-16573500D02*
G75*
G03*
X15381600Y-16573500I-40000J0D01*
G01*
X15457800Y-9169400D02*
G75*
G03*
X15457800Y-9169400I-40000J0D01*
G01*
X15457800Y-9423400D02*
G75*
G03*
X15457800Y-9423400I-40000J0D01*
G01*
X15457800Y-9677400D02*
G75*
G03*
X15457800Y-9677400I-40000J0D01*
G01*
X15457800Y-9931400D02*
G75*
G03*
X15457800Y-9931400I-40000J0D01*
G01*
X15572100Y-10261600D02*
G75*
G03*
X15572100Y-10261600I-40000J0D01*
G01*
X15724500Y-8712200D02*
G75*
G03*
X15724500Y-8712200I-40000J0D01*
G01*
X15724500Y-12382500D02*
G75*
G03*
X15724500Y-12382500I-40000J0D01*
G01*
X15724500Y-13144500D02*
G75*
G03*
X15724500Y-13144500I-40000J0D01*
G01*
X15728500Y-12065000D02*
G75*
G03*
X15728500Y-12065000I-40000J0D01*
G01*
X15728500Y-13779500D02*
G75*
G03*
X15728500Y-13779500I-40000J0D01*
G01*
X15775300Y-10261600D02*
G75*
G03*
X15775300Y-10261600I-40000J0D01*
G01*
X15855500Y-13462000D02*
G75*
G03*
X15855500Y-13462000I-40000J0D01*
G01*
X15924500Y-8712200D02*
G75*
G03*
X15924500Y-8712200I-40000J0D01*
G01*
X15978500Y-12065000D02*
G75*
G03*
X15978500Y-12065000I-40000J0D01*
G01*
X15978500Y-12382500D02*
G75*
G03*
X15978500Y-12382500I-40000J0D01*
G01*
X15978500Y-13144500D02*
G75*
G03*
X15978500Y-13144500I-40000J0D01*
G01*
X15978500Y-13779500D02*
G75*
G03*
X15978500Y-13779500I-40000J0D01*
G01*
X16025300Y-10261600D02*
G75*
G03*
X16025300Y-10261600I-40000J0D01*
G01*
X16105500Y-13462000D02*
G75*
G03*
X16105500Y-13462000I-40000J0D01*
G01*
X16219800Y-9169400D02*
G75*
G03*
X16219800Y-9169400I-40000J0D01*
G01*
X16219800Y-9423400D02*
G75*
G03*
X16219800Y-9423400I-40000J0D01*
G01*
X16219800Y-9677400D02*
G75*
G03*
X16219800Y-9677400I-40000J0D01*
G01*
X16219800Y-9931400D02*
G75*
G03*
X16219800Y-9931400I-40000J0D01*
G01*
X16232500Y-12382500D02*
G75*
G03*
X16232500Y-12382500I-40000J0D01*
G01*
X16232500Y-13144500D02*
G75*
G03*
X16232500Y-13144500I-40000J0D01*
G01*
X16302350Y-8712200D02*
G75*
G03*
X16302350Y-8712200I-40000J0D01*
G01*
X16486500Y-12382500D02*
G75*
G03*
X16486500Y-12382500I-40000J0D01*
G01*
X16486500Y-13144500D02*
G75*
G03*
X16486500Y-13144500I-40000J0D01*
G01*
X16490500Y-13462000D02*
G75*
G03*
X16490500Y-13462000I-40000J0D01*
G01*
X16502350Y-8712200D02*
G75*
G03*
X16502350Y-8712200I-40000J0D01*
G01*
X16524600Y-9681400D02*
G75*
G03*
X16524600Y-9681400I-40000J0D01*
G01*
X16524600Y-9931400D02*
G75*
G03*
X16524600Y-9931400I-40000J0D01*
G01*
X16588100Y-11868150D02*
G75*
G03*
X16588100Y-11868150I-40000J0D01*
G01*
X16740500Y-12382500D02*
G75*
G03*
X16740500Y-12382500I-40000J0D01*
G01*
X16740500Y-13144500D02*
G75*
G03*
X16740500Y-13144500I-40000J0D01*
G01*
X16740500Y-13462000D02*
G75*
G03*
X16740500Y-13462000I-40000J0D01*
G01*
X16838100Y-11868150D02*
G75*
G03*
X16838100Y-11868150I-40000J0D01*
G01*
X16994500Y-12382500D02*
G75*
G03*
X16994500Y-12382500I-40000J0D01*
G01*
X16994500Y-13144500D02*
G75*
G03*
X16994500Y-13144500I-40000J0D01*
G01*
X16994500Y-13462000D02*
G75*
G03*
X16994500Y-13462000I-40000J0D01*
G01*
X17244500Y-13462000D02*
G75*
G03*
X17244500Y-13462000I-40000J0D01*
G01*
X17248500Y-12382500D02*
G75*
G03*
X17248500Y-12382500I-40000J0D01*
G01*
X17248500Y-13144500D02*
G75*
G03*
X17248500Y-13144500I-40000J0D01*
G01*
X17502500Y-12382500D02*
G75*
G03*
X17502500Y-12382500I-40000J0D01*
G01*
X17502500Y-13144500D02*
G75*
G03*
X17502500Y-13144500I-40000J0D01*
G01*
X9258300Y-16024860D02*
X9258300Y-16106140D01*
X9217660Y-16065500D02*
X9298940Y-16065500D01*
X10020300Y-8646160D02*
X10020300Y-8727440D01*
X9979660Y-8686800D02*
X10060940Y-8686800D01*
X10020300Y-9408160D02*
X10020300Y-9489440D01*
X9979660Y-9448800D02*
X10060940Y-9448800D01*
X10020300Y-16024860D02*
X10020300Y-16106140D01*
X9979660Y-16065500D02*
X10060940Y-16065500D01*
X13652500Y-10220960D02*
X13652500Y-10302240D01*
X13611860Y-10261600D02*
X13693140Y-10261600D01*
X13652500Y-10982960D02*
X13652500Y-11064240D01*
X13611860Y-11023600D02*
X13693140Y-11023600D01*
X13652500Y-11236960D02*
X13652500Y-11318240D01*
X13611860Y-11277600D02*
X13693140Y-11277600D01*
X13652500Y-11998960D02*
X13652500Y-12080240D01*
X13611860Y-12039600D02*
X13693140Y-12039600D01*
X13931900Y-12278360D02*
X13931900Y-12359640D01*
X13891260Y-12319000D02*
X13972540Y-12319000D01*
X13944600Y-12849860D02*
X13944600Y-12931140D01*
X13903960Y-12890500D02*
X13985240Y-12890500D01*
X14693900Y-12278360D02*
X14693900Y-12359640D01*
X14653260Y-12319000D02*
X14734540Y-12319000D01*
X14706600Y-12849860D02*
X14706600Y-12931140D01*
X14665960Y-12890500D02*
X14747240Y-12890500D01*
X15240000Y-12189460D02*
X15240000Y-12270740D01*
X15199360Y-12230100D02*
X15280640Y-12230100D01*
X15240000Y-12951460D02*
X15240000Y-13032740D01*
X15199360Y-12992100D02*
X15280640Y-12992100D01*
X15303500Y-10728960D02*
X15303500Y-10810240D01*
X15262860Y-10769600D02*
X15344140Y-10769600D01*
X15303500Y-11490960D02*
X15303500Y-11572240D01*
X15262860Y-11531600D02*
X15344140Y-11531600D01*
X15532100Y-10982960D02*
X15532100Y-11064240D01*
X15491460Y-11023600D02*
X15572740Y-11023600D01*
X15532100Y-11744960D02*
X15532100Y-11826240D01*
X15491460Y-11785600D02*
X15572740Y-11785600D01*
X15544800Y-10500360D02*
X15544800Y-10581640D01*
X15504160Y-10541000D02*
X15585440Y-10541000D01*
X16306800Y-10500360D02*
X16306800Y-10581640D01*
X16266160Y-10541000D02*
X16347440Y-10541000D01*
X8211056Y-9306356D02*
X8211056Y-9235644D01*
X8140344Y-9235644D01*
X8140344Y-9306356D01*
X8211056Y-9306356D01*
X8135700Y-9171000D02*
X8135700Y-9371000D01*
X8215700Y-9171000D02*
X8215700Y-9371000D01*
X8135700Y-9371000D02*
G75*
G03*
X8215700Y-9371000I40000J0D01*
G01*
X8215700Y-9171000D02*
G75*
G03*
X8135700Y-9171000I-40000J0D01*
G01*
X8511056Y-9776356D02*
X8511056Y-9705644D01*
X8440344Y-9705644D01*
X8440344Y-9776356D01*
X8511056Y-9776356D01*
X8375700Y-9781000D02*
X8575700Y-9781000D01*
X8375700Y-9701000D02*
X8575700Y-9701000D01*
X8575700Y-9781000D02*
G75*
G03*
X8575700Y-9701000I0J40000D01*
G01*
X8375700Y-9701000D02*
G75*
G03*
X8375700Y-9781000I0J-40000D01*
G01*
X8811056Y-9306356D02*
X8811056Y-9235644D01*
X8740344Y-9235644D01*
X8740344Y-9306356D01*
X8811056Y-9306356D01*
X8735700Y-9171000D02*
X8735700Y-9371000D01*
X8815700Y-9171000D02*
X8815700Y-9371000D01*
X8735700Y-9371000D02*
G75*
G03*
X8815700Y-9371000I40000J0D01*
G01*
X8815700Y-9171000D02*
G75*
G03*
X8735700Y-9171000I-40000J0D01*
G01*
X10785906Y-14481606D02*
X10785906Y-14410894D01*
X10715194Y-14410894D01*
X10715194Y-14481606D01*
X10785906Y-14481606D01*
X11039906Y-14481606D02*
X11039906Y-14410894D01*
X10969194Y-14410894D01*
X10969194Y-14481606D01*
X11039906Y-14481606D01*
X11293906Y-14481606D02*
X11293906Y-14410894D01*
X11223194Y-14410894D01*
X11223194Y-14481606D01*
X11293906Y-14481606D01*
X13414806Y-12925856D02*
X13414806Y-12855144D01*
X13344094Y-12855144D01*
X13344094Y-12925856D01*
X13414806Y-12925856D01*
X13668806Y-12925856D02*
X13668806Y-12855144D01*
X13598094Y-12855144D01*
X13598094Y-12925856D01*
X13668806Y-12925856D01*
X16608856Y-14716556D02*
X16608856Y-14645844D01*
X16538144Y-14645844D01*
X16538144Y-14716556D01*
X16608856Y-14716556D01*
X16608856Y-14993556D02*
X16608856Y-14922844D01*
X16538144Y-14922844D01*
X16538144Y-14993556D01*
X16608856Y-14993556D01*
X16608856Y-15270556D02*
X16608856Y-15199844D01*
X16538144Y-15199844D01*
X16538144Y-15270556D01*
X16608856Y-15270556D01*
X16608856Y-15547556D02*
X16608856Y-15476844D01*
X16538144Y-15476844D01*
X16538144Y-15547556D01*
X16608856Y-15547556D01*
X16608856Y-15824556D02*
X16608856Y-15753844D01*
X16538144Y-15753844D01*
X16538144Y-15824556D01*
X16608856Y-15824556D01*
X16858156Y-10431956D02*
X16858156Y-10361244D01*
X16787444Y-10361244D01*
X16787444Y-10431956D01*
X16858156Y-10431956D01*
X16847800Y-10356600D02*
X16797800Y-10356600D01*
X16847800Y-10436600D02*
X16797800Y-10436600D01*
X16797800Y-10356600D02*
G75*
G03*
X16797800Y-10436600I0J-40000D01*
G01*
X16847800Y-10436600D02*
G75*
G03*
X16847800Y-10356600I0J40000D01*
G01*
X16858156Y-10681956D02*
X16858156Y-10611244D01*
X16787444Y-10611244D01*
X16787444Y-10681956D01*
X16858156Y-10681956D01*
X16847800Y-10606600D02*
X16797800Y-10606600D01*
X16847800Y-10686600D02*
X16797800Y-10686600D01*
X16797800Y-10606600D02*
G75*
G03*
X16797800Y-10686600I0J-40000D01*
G01*
X16847800Y-10686600D02*
G75*
G03*
X16847800Y-10606600I0J40000D01*
G01*
X16858156Y-11431956D02*
X16858156Y-11361244D01*
X16787444Y-11361244D01*
X16787444Y-11431956D01*
X16858156Y-11431956D01*
X16847800Y-11356600D02*
X16797800Y-11356600D01*
X16847800Y-11436600D02*
X16797800Y-11436600D01*
X16797800Y-11356600D02*
G75*
G03*
X16797800Y-11436600I0J-40000D01*
G01*
X16847800Y-11436600D02*
G75*
G03*
X16847800Y-11356600I0J40000D01*
G01*
X16892856Y-14855056D02*
X16892856Y-14784344D01*
X16822144Y-14784344D01*
X16822144Y-14855056D01*
X16892856Y-14855056D01*
X16892856Y-15132056D02*
X16892856Y-15061344D01*
X16822144Y-15061344D01*
X16822144Y-15132056D01*
X16892856Y-15132056D01*
X16892856Y-15409056D02*
X16892856Y-15338344D01*
X16822144Y-15338344D01*
X16822144Y-15409056D01*
X16892856Y-15409056D01*
X16892856Y-15686056D02*
X16892856Y-15615344D01*
X16822144Y-15615344D01*
X16822144Y-15686056D01*
X16892856Y-15686056D01*
X17281956Y-9000856D02*
X17281956Y-8930144D01*
X17211244Y-8930144D01*
X17211244Y-9000856D01*
X17281956Y-9000856D01*
X17281956Y-9250856D02*
X17281956Y-9180144D01*
X17211244Y-9180144D01*
X17211244Y-9250856D01*
X17281956Y-9250856D01*
X17281956Y-9500856D02*
X17281956Y-9430144D01*
X17211244Y-9430144D01*
X17211244Y-9500856D01*
X17281956Y-9500856D01*
X17281956Y-9750856D02*
X17281956Y-9680144D01*
X17211244Y-9680144D01*
X17211244Y-9750856D01*
X17281956Y-9750856D01*
X17345456Y-11770156D02*
X17345456Y-11699444D01*
X17274744Y-11699444D01*
X17274744Y-11770156D01*
X17345456Y-11770156D01*
X17345456Y-12024156D02*
X17345456Y-11953444D01*
X17274744Y-11953444D01*
X17274744Y-12024156D01*
X17345456Y-12024156D01*
X17358156Y-10931956D02*
X17358156Y-10861244D01*
X17287444Y-10861244D01*
X17287444Y-10931956D01*
X17358156Y-10931956D01*
X17362800Y-10921600D02*
X17362800Y-10871600D01*
X17282800Y-10921600D02*
X17282800Y-10871600D01*
X17362800Y-10871600D02*
G75*
G03*
X17282800Y-10871600I-40000J0D01*
G01*
X17282800Y-10921600D02*
G75*
G03*
X17362800Y-10921600I40000J0D01*
G01*
X9239250Y-8377550D02*
X9294250Y-8322550D01*
X9239250Y-8267550D01*
X9184250Y-8322550D01*
X9239250Y-8377550D01*
X9239250Y-9027550D02*
X9294250Y-8972550D01*
X9239250Y-8917550D01*
X9184250Y-8972550D01*
X9239250Y-9027550D01*
X9689250Y-8377550D02*
X9744250Y-8322550D01*
X9689250Y-8267550D01*
X9634250Y-8322550D01*
X9689250Y-8377550D01*
X9689250Y-9027550D02*
X9744250Y-8972550D01*
X9689250Y-8917550D01*
X9634250Y-8972550D01*
X9689250Y-9027550D01*
X15980600Y-11091100D02*
X16099600Y-11210100D01*
X16099600Y-11091100D02*
X15980600Y-11210100D01*
X16099600Y-11150600D02*
G75*
G03*
X16099600Y-11150600I-59500J0D01*
G01*
X15980600Y-11345100D02*
X16099600Y-11464100D01*
X16099600Y-11345100D02*
X15980600Y-11464100D01*
X16099600Y-11404600D02*
G75*
G03*
X16099600Y-11404600I-59500J0D01*
G01*
X16816600Y-8625500D02*
X17016600Y-8825500D01*
X17016600Y-8625500D02*
X16816600Y-8825500D01*
X16916600Y-8625500D02*
X16916600Y-8825500D01*
X16816600Y-8725500D02*
X17016600Y-8725500D01*
X16816600Y-9855500D02*
X17016600Y-10055500D01*
X17016600Y-9855500D02*
X16816600Y-10055500D01*
X16916600Y-9855500D02*
X16916600Y-10055500D01*
X16816600Y-9955500D02*
X17016600Y-9955500D01*
X16563000Y-13832700D02*
X16868000Y-14137700D01*
X16868000Y-13832700D02*
X16563000Y-14137700D01*
X16823335Y-14093035D02*
X16823335Y-13877365D01*
X16607665Y-13877365D01*
X16607665Y-14093035D01*
X16823335Y-14093035D01*
X16563000Y-16332700D02*
X16868000Y-16637700D01*
X16868000Y-16332700D02*
X16563000Y-16637700D01*
X16823335Y-16593035D02*
X16823335Y-16377365D01*
X16607665Y-16377365D01*
X16607665Y-16593035D01*
X16823335Y-16593035D01*
D12*
X7898928Y-18083214D02*
X7898928Y-17783214D01*
X7970357Y-17783214D01*
X8013214Y-17797500D01*
X8041786Y-17826072D01*
X8056071Y-17854643D01*
X8070357Y-17911786D01*
X8070357Y-17954643D01*
X8056071Y-18011786D01*
X8041786Y-18040357D01*
X8013214Y-18068929D01*
X7970357Y-18083214D01*
X7898928Y-18083214D01*
X8198928Y-18083214D02*
X8198928Y-17883214D01*
X8198928Y-17940357D02*
X8213214Y-17911786D01*
X8227500Y-17897500D01*
X8256071Y-17883214D01*
X8284643Y-17883214D01*
X8384643Y-18083214D02*
X8384643Y-17883214D01*
X8384643Y-17783214D02*
X8370357Y-17797500D01*
X8384643Y-17811786D01*
X8398928Y-17797500D01*
X8384643Y-17783214D01*
X8384643Y-17811786D01*
X8570357Y-18083214D02*
X8541786Y-18068929D01*
X8527500Y-18040357D01*
X8527500Y-17783214D01*
X8727500Y-18083214D02*
X8698928Y-18068929D01*
X8684643Y-18040357D01*
X8684643Y-17783214D01*
X9070357Y-18083214D02*
X9070357Y-17783214D01*
X9170357Y-17997500D01*
X9270357Y-17783214D01*
X9270357Y-18083214D01*
X9541786Y-18083214D02*
X9541786Y-17926072D01*
X9527500Y-17897500D01*
X9498928Y-17883214D01*
X9441786Y-17883214D01*
X9413214Y-17897500D01*
X9541786Y-18068929D02*
X9513214Y-18083214D01*
X9441786Y-18083214D01*
X9413214Y-18068929D01*
X9398928Y-18040357D01*
X9398928Y-18011786D01*
X9413214Y-17983214D01*
X9441786Y-17968929D01*
X9513214Y-17968929D01*
X9541786Y-17954643D01*
X9684643Y-17883214D02*
X9684643Y-18183214D01*
X9684643Y-17897500D02*
X9713214Y-17883214D01*
X9770357Y-17883214D01*
X9798928Y-17897500D01*
X9813214Y-17911786D01*
X9827500Y-17940357D01*
X9827500Y-18026072D01*
X9813214Y-18054643D01*
X9798928Y-18068929D01*
X9770357Y-18083214D01*
X9713214Y-18083214D01*
X9684643Y-18068929D01*
X9956071Y-18054643D02*
X9970357Y-18068929D01*
X9956071Y-18083214D01*
X9941786Y-18068929D01*
X9956071Y-18054643D01*
X9956071Y-18083214D01*
X9956071Y-17897500D02*
X9970357Y-17911786D01*
X9956071Y-17926072D01*
X9941786Y-17911786D01*
X9956071Y-17897500D01*
X9956071Y-17926072D01*
X7572500Y-18557500D02*
X7612500Y-18597500D01*
X7612500Y-18557500D02*
X7572500Y-18597500D01*
X7956071Y-18413214D02*
X7984643Y-18413214D01*
X8013214Y-18427500D01*
X8027500Y-18441786D01*
X8041786Y-18470357D01*
X8056071Y-18527500D01*
X8056071Y-18598929D01*
X8041786Y-18656072D01*
X8027500Y-18684643D01*
X8013214Y-18698929D01*
X7984643Y-18713214D01*
X7956071Y-18713214D01*
X7927500Y-18698929D01*
X7913214Y-18684643D01*
X7898928Y-18656072D01*
X7884643Y-18598929D01*
X7884643Y-18527500D01*
X7898928Y-18470357D01*
X7913214Y-18441786D01*
X7927500Y-18427500D01*
X7956071Y-18413214D01*
X8184643Y-18684643D02*
X8198928Y-18698929D01*
X8184643Y-18713214D01*
X8170357Y-18698929D01*
X8184643Y-18684643D01*
X8184643Y-18713214D01*
X8456071Y-18513214D02*
X8456071Y-18713214D01*
X8384643Y-18398929D02*
X8313214Y-18613214D01*
X8498928Y-18613214D01*
X8670357Y-18413214D02*
X8698928Y-18413214D01*
X8727500Y-18427500D01*
X8741786Y-18441786D01*
X8756071Y-18470357D01*
X8770357Y-18527500D01*
X8770357Y-18598929D01*
X8756071Y-18656072D01*
X8741786Y-18684643D01*
X8727500Y-18698929D01*
X8698928Y-18713214D01*
X8670357Y-18713214D01*
X8641786Y-18698929D01*
X8627500Y-18684643D01*
X8613214Y-18656072D01*
X8598928Y-18598929D01*
X8598928Y-18527500D01*
X8613214Y-18470357D01*
X8627500Y-18441786D01*
X8641786Y-18427500D01*
X8670357Y-18413214D01*
X8956071Y-18413214D02*
X8984643Y-18413214D01*
X9013214Y-18427500D01*
X9027500Y-18441786D01*
X9041786Y-18470357D01*
X9056071Y-18527500D01*
X9056071Y-18598929D01*
X9041786Y-18656072D01*
X9027500Y-18684643D01*
X9013214Y-18698929D01*
X8984643Y-18713214D01*
X8956071Y-18713214D01*
X8927500Y-18698929D01*
X8913214Y-18684643D01*
X8898928Y-18656072D01*
X8884643Y-18598929D01*
X8884643Y-18527500D01*
X8898928Y-18470357D01*
X8913214Y-18441786D01*
X8927500Y-18427500D01*
X8956071Y-18413214D01*
X9184643Y-18713214D02*
X9184643Y-18513214D01*
X9184643Y-18541786D02*
X9198928Y-18527500D01*
X9227500Y-18513214D01*
X9270357Y-18513214D01*
X9298928Y-18527500D01*
X9313214Y-18556072D01*
X9313214Y-18713214D01*
X9313214Y-18556072D02*
X9327500Y-18527500D01*
X9356071Y-18513214D01*
X9398928Y-18513214D01*
X9427500Y-18527500D01*
X9441786Y-18556072D01*
X9441786Y-18713214D01*
X9584643Y-18713214D02*
X9584643Y-18513214D01*
X9584643Y-18541786D02*
X9598928Y-18527500D01*
X9627500Y-18513214D01*
X9670357Y-18513214D01*
X9698928Y-18527500D01*
X9713214Y-18556072D01*
X9713214Y-18713214D01*
X9713214Y-18556072D02*
X9727500Y-18527500D01*
X9756071Y-18513214D01*
X9798928Y-18513214D01*
X9827500Y-18527500D01*
X9841786Y-18556072D01*
X9841786Y-18713214D01*
X10427500Y-18398929D02*
X10170357Y-18784643D01*
X10813214Y-18413214D02*
X10841786Y-18413214D01*
X10870357Y-18427500D01*
X10884643Y-18441786D01*
X10898928Y-18470357D01*
X10913214Y-18527500D01*
X10913214Y-18598929D01*
X10898928Y-18656072D01*
X10884643Y-18684643D01*
X10870357Y-18698929D01*
X10841786Y-18713214D01*
X10813214Y-18713214D01*
X10784643Y-18698929D01*
X10770357Y-18684643D01*
X10756071Y-18656072D01*
X10741786Y-18598929D01*
X10741786Y-18527500D01*
X10756071Y-18470357D01*
X10770357Y-18441786D01*
X10784643Y-18427500D01*
X10813214Y-18413214D01*
X11041786Y-18684643D02*
X11056071Y-18698929D01*
X11041786Y-18713214D01*
X11027500Y-18698929D01*
X11041786Y-18684643D01*
X11041786Y-18713214D01*
X11241786Y-18413214D02*
X11270357Y-18413214D01*
X11298928Y-18427500D01*
X11313214Y-18441786D01*
X11327500Y-18470357D01*
X11341786Y-18527500D01*
X11341786Y-18598929D01*
X11327500Y-18656072D01*
X11313214Y-18684643D01*
X11298928Y-18698929D01*
X11270357Y-18713214D01*
X11241786Y-18713214D01*
X11213214Y-18698929D01*
X11198928Y-18684643D01*
X11184643Y-18656072D01*
X11170357Y-18598929D01*
X11170357Y-18527500D01*
X11184643Y-18470357D01*
X11198928Y-18441786D01*
X11213214Y-18427500D01*
X11241786Y-18413214D01*
X11627500Y-18713214D02*
X11456071Y-18713214D01*
X11541786Y-18713214D02*
X11541786Y-18413214D01*
X11513214Y-18456072D01*
X11484643Y-18484643D01*
X11456071Y-18498929D01*
X11898928Y-18413214D02*
X11756071Y-18413214D01*
X11741786Y-18556072D01*
X11756071Y-18541786D01*
X11784643Y-18527500D01*
X11856071Y-18527500D01*
X11884643Y-18541786D01*
X11898928Y-18556072D01*
X11913214Y-18584643D01*
X11913214Y-18656072D01*
X11898928Y-18684643D01*
X11884643Y-18698929D01*
X11856071Y-18713214D01*
X11784643Y-18713214D01*
X11756071Y-18698929D01*
X11741786Y-18684643D01*
X12013214Y-18413214D02*
X12213214Y-18413214D01*
X12084643Y-18713214D01*
X12313214Y-18413214D02*
X12313214Y-18470357D01*
X12427500Y-18413214D02*
X12427500Y-18470357D01*
X12870357Y-18827500D02*
X12856071Y-18813214D01*
X12827500Y-18770357D01*
X12813214Y-18741786D01*
X12798928Y-18698929D01*
X12784643Y-18627500D01*
X12784643Y-18570357D01*
X12798928Y-18498929D01*
X12813214Y-18456072D01*
X12827500Y-18427500D01*
X12856071Y-18384643D01*
X12870357Y-18370357D01*
X12998928Y-18713214D02*
X13056071Y-18713214D01*
X13084643Y-18698929D01*
X13098928Y-18684643D01*
X13127500Y-18641786D01*
X13141786Y-18584643D01*
X13141786Y-18470357D01*
X13127500Y-18441786D01*
X13113214Y-18427500D01*
X13084643Y-18413214D01*
X13027500Y-18413214D01*
X12998928Y-18427500D01*
X12984643Y-18441786D01*
X12970357Y-18470357D01*
X12970357Y-18541786D01*
X12984643Y-18570357D01*
X12998928Y-18584643D01*
X13027500Y-18598929D01*
X13084643Y-18598929D01*
X13113214Y-18584643D01*
X13127500Y-18570357D01*
X13141786Y-18541786D01*
X13413214Y-18413214D02*
X13270357Y-18413214D01*
X13256071Y-18556072D01*
X13270357Y-18541786D01*
X13298928Y-18527500D01*
X13370357Y-18527500D01*
X13398928Y-18541786D01*
X13413214Y-18556072D01*
X13427500Y-18584643D01*
X13427500Y-18656072D01*
X13413214Y-18684643D01*
X13398928Y-18698929D01*
X13370357Y-18713214D01*
X13298928Y-18713214D01*
X13270357Y-18698929D01*
X13256071Y-18684643D01*
X13784643Y-18713214D02*
X13784643Y-18413214D01*
X13913214Y-18713214D02*
X13913214Y-18556072D01*
X13898928Y-18527500D01*
X13870357Y-18513214D01*
X13827500Y-18513214D01*
X13798928Y-18527500D01*
X13784643Y-18541786D01*
X14098928Y-18713214D02*
X14070357Y-18698929D01*
X14056071Y-18684643D01*
X14041786Y-18656072D01*
X14041786Y-18570357D01*
X14056071Y-18541786D01*
X14070357Y-18527500D01*
X14098928Y-18513214D01*
X14141786Y-18513214D01*
X14170357Y-18527500D01*
X14184643Y-18541786D01*
X14198928Y-18570357D01*
X14198928Y-18656072D01*
X14184643Y-18684643D01*
X14170357Y-18698929D01*
X14141786Y-18713214D01*
X14098928Y-18713214D01*
X14370357Y-18713214D02*
X14341786Y-18698929D01*
X14327500Y-18670357D01*
X14327500Y-18413214D01*
X14598928Y-18698929D02*
X14570357Y-18713214D01*
X14513214Y-18713214D01*
X14484643Y-18698929D01*
X14470357Y-18670357D01*
X14470357Y-18556072D01*
X14484643Y-18527500D01*
X14513214Y-18513214D01*
X14570357Y-18513214D01*
X14598928Y-18527500D01*
X14613214Y-18556072D01*
X14613214Y-18584643D01*
X14470357Y-18613214D01*
X14727500Y-18698929D02*
X14756071Y-18713214D01*
X14813214Y-18713214D01*
X14841786Y-18698929D01*
X14856071Y-18670357D01*
X14856071Y-18656072D01*
X14841786Y-18627500D01*
X14813214Y-18613214D01*
X14770357Y-18613214D01*
X14741786Y-18598929D01*
X14727500Y-18570357D01*
X14727500Y-18556072D01*
X14741786Y-18527500D01*
X14770357Y-18513214D01*
X14813214Y-18513214D01*
X14841786Y-18527500D01*
X14956071Y-18827500D02*
X14970357Y-18813214D01*
X14998928Y-18770357D01*
X15013214Y-18741786D01*
X15027500Y-18698929D01*
X15041786Y-18627500D01*
X15041786Y-18570357D01*
X15027500Y-18498929D01*
X15013214Y-18456072D01*
X14998928Y-18427500D01*
X14970357Y-18384643D01*
X14956071Y-18370357D01*
X7612500Y-18973500D02*
G75*
G03*
X7612500Y-18973500I-40000J0D01*
G01*
X7956071Y-18809214D02*
X7984643Y-18809214D01*
X8013214Y-18823500D01*
X8027500Y-18837786D01*
X8041786Y-18866357D01*
X8056071Y-18923500D01*
X8056071Y-18994929D01*
X8041786Y-19052072D01*
X8027500Y-19080643D01*
X8013214Y-19094929D01*
X7984643Y-19109214D01*
X7956071Y-19109214D01*
X7927500Y-19094929D01*
X7913214Y-19080643D01*
X7898928Y-19052072D01*
X7884643Y-18994929D01*
X7884643Y-18923500D01*
X7898928Y-18866357D01*
X7913214Y-18837786D01*
X7927500Y-18823500D01*
X7956071Y-18809214D01*
X8184643Y-19080643D02*
X8198928Y-19094929D01*
X8184643Y-19109214D01*
X8170357Y-19094929D01*
X8184643Y-19080643D01*
X8184643Y-19109214D01*
X8370357Y-18937786D02*
X8341786Y-18923500D01*
X8327500Y-18909214D01*
X8313214Y-18880643D01*
X8313214Y-18866357D01*
X8327500Y-18837786D01*
X8341786Y-18823500D01*
X8370357Y-18809214D01*
X8427500Y-18809214D01*
X8456071Y-18823500D01*
X8470357Y-18837786D01*
X8484643Y-18866357D01*
X8484643Y-18880643D01*
X8470357Y-18909214D01*
X8456071Y-18923500D01*
X8427500Y-18937786D01*
X8370357Y-18937786D01*
X8341786Y-18952072D01*
X8327500Y-18966357D01*
X8313214Y-18994929D01*
X8313214Y-19052072D01*
X8327500Y-19080643D01*
X8341786Y-19094929D01*
X8370357Y-19109214D01*
X8427500Y-19109214D01*
X8456071Y-19094929D01*
X8470357Y-19080643D01*
X8484643Y-19052072D01*
X8484643Y-18994929D01*
X8470357Y-18966357D01*
X8456071Y-18952072D01*
X8427500Y-18937786D01*
X8670357Y-18809214D02*
X8698928Y-18809214D01*
X8727500Y-18823500D01*
X8741786Y-18837786D01*
X8756071Y-18866357D01*
X8770357Y-18923500D01*
X8770357Y-18994929D01*
X8756071Y-19052072D01*
X8741786Y-19080643D01*
X8727500Y-19094929D01*
X8698928Y-19109214D01*
X8670357Y-19109214D01*
X8641786Y-19094929D01*
X8627500Y-19080643D01*
X8613214Y-19052072D01*
X8598928Y-18994929D01*
X8598928Y-18923500D01*
X8613214Y-18866357D01*
X8627500Y-18837786D01*
X8641786Y-18823500D01*
X8670357Y-18809214D01*
X8956071Y-18809214D02*
X8984643Y-18809214D01*
X9013214Y-18823500D01*
X9027500Y-18837786D01*
X9041786Y-18866357D01*
X9056071Y-18923500D01*
X9056071Y-18994929D01*
X9041786Y-19052072D01*
X9027500Y-19080643D01*
X9013214Y-19094929D01*
X8984643Y-19109214D01*
X8956071Y-19109214D01*
X8927500Y-19094929D01*
X8913214Y-19080643D01*
X8898928Y-19052072D01*
X8884643Y-18994929D01*
X8884643Y-18923500D01*
X8898928Y-18866357D01*
X8913214Y-18837786D01*
X8927500Y-18823500D01*
X8956071Y-18809214D01*
X9184643Y-19109214D02*
X9184643Y-18909214D01*
X9184643Y-18937786D02*
X9198928Y-18923500D01*
X9227500Y-18909214D01*
X9270357Y-18909214D01*
X9298928Y-18923500D01*
X9313214Y-18952072D01*
X9313214Y-19109214D01*
X9313214Y-18952072D02*
X9327500Y-18923500D01*
X9356071Y-18909214D01*
X9398928Y-18909214D01*
X9427500Y-18923500D01*
X9441786Y-18952072D01*
X9441786Y-19109214D01*
X9584643Y-19109214D02*
X9584643Y-18909214D01*
X9584643Y-18937786D02*
X9598928Y-18923500D01*
X9627500Y-18909214D01*
X9670357Y-18909214D01*
X9698928Y-18923500D01*
X9713214Y-18952072D01*
X9713214Y-19109214D01*
X9713214Y-18952072D02*
X9727500Y-18923500D01*
X9756071Y-18909214D01*
X9798928Y-18909214D01*
X9827500Y-18923500D01*
X9841786Y-18952072D01*
X9841786Y-19109214D01*
X10427500Y-18794929D02*
X10170357Y-19180643D01*
X10813214Y-18809214D02*
X10841786Y-18809214D01*
X10870357Y-18823500D01*
X10884643Y-18837786D01*
X10898928Y-18866357D01*
X10913214Y-18923500D01*
X10913214Y-18994929D01*
X10898928Y-19052072D01*
X10884643Y-19080643D01*
X10870357Y-19094929D01*
X10841786Y-19109214D01*
X10813214Y-19109214D01*
X10784643Y-19094929D01*
X10770357Y-19080643D01*
X10756071Y-19052072D01*
X10741786Y-18994929D01*
X10741786Y-18923500D01*
X10756071Y-18866357D01*
X10770357Y-18837786D01*
X10784643Y-18823500D01*
X10813214Y-18809214D01*
X11041786Y-19080643D02*
X11056071Y-19094929D01*
X11041786Y-19109214D01*
X11027500Y-19094929D01*
X11041786Y-19080643D01*
X11041786Y-19109214D01*
X11241786Y-18809214D02*
X11270357Y-18809214D01*
X11298928Y-18823500D01*
X11313214Y-18837786D01*
X11327500Y-18866357D01*
X11341786Y-18923500D01*
X11341786Y-18994929D01*
X11327500Y-19052072D01*
X11313214Y-19080643D01*
X11298928Y-19094929D01*
X11270357Y-19109214D01*
X11241786Y-19109214D01*
X11213214Y-19094929D01*
X11198928Y-19080643D01*
X11184643Y-19052072D01*
X11170357Y-18994929D01*
X11170357Y-18923500D01*
X11184643Y-18866357D01*
X11198928Y-18837786D01*
X11213214Y-18823500D01*
X11241786Y-18809214D01*
X11441786Y-18809214D02*
X11627500Y-18809214D01*
X11527500Y-18923500D01*
X11570357Y-18923500D01*
X11598928Y-18937786D01*
X11613214Y-18952072D01*
X11627500Y-18980643D01*
X11627500Y-19052072D01*
X11613214Y-19080643D01*
X11598928Y-19094929D01*
X11570357Y-19109214D01*
X11484643Y-19109214D01*
X11456071Y-19094929D01*
X11441786Y-19080643D01*
X11913214Y-19109214D02*
X11741786Y-19109214D01*
X11827500Y-19109214D02*
X11827500Y-18809214D01*
X11798928Y-18852072D01*
X11770357Y-18880643D01*
X11741786Y-18894929D01*
X12184643Y-18809214D02*
X12041786Y-18809214D01*
X12027500Y-18952072D01*
X12041786Y-18937786D01*
X12070357Y-18923500D01*
X12141786Y-18923500D01*
X12170357Y-18937786D01*
X12184643Y-18952072D01*
X12198928Y-18980643D01*
X12198928Y-19052072D01*
X12184643Y-19080643D01*
X12170357Y-19094929D01*
X12141786Y-19109214D01*
X12070357Y-19109214D01*
X12041786Y-19094929D01*
X12027500Y-19080643D01*
X12313214Y-18809214D02*
X12313214Y-18866357D01*
X12427500Y-18809214D02*
X12427500Y-18866357D01*
X12870357Y-19223500D02*
X12856071Y-19209214D01*
X12827500Y-19166357D01*
X12813214Y-19137786D01*
X12798928Y-19094929D01*
X12784643Y-19023500D01*
X12784643Y-18966357D01*
X12798928Y-18894929D01*
X12813214Y-18852072D01*
X12827500Y-18823500D01*
X12856071Y-18780643D01*
X12870357Y-18766357D01*
X12970357Y-18837786D02*
X12984643Y-18823500D01*
X13013214Y-18809214D01*
X13084643Y-18809214D01*
X13113214Y-18823500D01*
X13127500Y-18837786D01*
X13141786Y-18866357D01*
X13141786Y-18894929D01*
X13127500Y-18937786D01*
X12956071Y-19109214D01*
X13141786Y-19109214D01*
X13241786Y-18809214D02*
X13441786Y-18809214D01*
X13313214Y-19109214D01*
X13527500Y-18809214D02*
X13713214Y-18809214D01*
X13613214Y-18923500D01*
X13656071Y-18923500D01*
X13684643Y-18937786D01*
X13698928Y-18952072D01*
X13713214Y-18980643D01*
X13713214Y-19052072D01*
X13698928Y-19080643D01*
X13684643Y-19094929D01*
X13656071Y-19109214D01*
X13570357Y-19109214D01*
X13541786Y-19094929D01*
X13527500Y-19080643D01*
X14070357Y-19109214D02*
X14070357Y-18809214D01*
X14198928Y-19109214D02*
X14198928Y-18952072D01*
X14184643Y-18923500D01*
X14156071Y-18909214D01*
X14113214Y-18909214D01*
X14084643Y-18923500D01*
X14070357Y-18937786D01*
X14384643Y-19109214D02*
X14356071Y-19094929D01*
X14341786Y-19080643D01*
X14327500Y-19052072D01*
X14327500Y-18966357D01*
X14341786Y-18937786D01*
X14356071Y-18923500D01*
X14384643Y-18909214D01*
X14427500Y-18909214D01*
X14456071Y-18923500D01*
X14470357Y-18937786D01*
X14484643Y-18966357D01*
X14484643Y-19052072D01*
X14470357Y-19080643D01*
X14456071Y-19094929D01*
X14427500Y-19109214D01*
X14384643Y-19109214D01*
X14656071Y-19109214D02*
X14627500Y-19094929D01*
X14613214Y-19066357D01*
X14613214Y-18809214D01*
X14884643Y-19094929D02*
X14856071Y-19109214D01*
X14798928Y-19109214D01*
X14770357Y-19094929D01*
X14756071Y-19066357D01*
X14756071Y-18952072D01*
X14770357Y-18923500D01*
X14798928Y-18909214D01*
X14856071Y-18909214D01*
X14884643Y-18923500D01*
X14898928Y-18952072D01*
X14898928Y-18980643D01*
X14756071Y-19009214D01*
X15013214Y-19094929D02*
X15041786Y-19109214D01*
X15098928Y-19109214D01*
X15127500Y-19094929D01*
X15141786Y-19066357D01*
X15141786Y-19052072D01*
X15127500Y-19023500D01*
X15098928Y-19009214D01*
X15056071Y-19009214D01*
X15027500Y-18994929D01*
X15013214Y-18966357D01*
X15013214Y-18952072D01*
X15027500Y-18923500D01*
X15056071Y-18909214D01*
X15098928Y-18909214D01*
X15127500Y-18923500D01*
X15241786Y-19223500D02*
X15256071Y-19209214D01*
X15284643Y-19166357D01*
X15298928Y-19137786D01*
X15313214Y-19094929D01*
X15327500Y-19023500D01*
X15327500Y-18966357D01*
X15313214Y-18894929D01*
X15298928Y-18852072D01*
X15284643Y-18823500D01*
X15256071Y-18780643D01*
X15241786Y-18766357D01*
X7571860Y-19328860D02*
X7571860Y-19410140D01*
X7531220Y-19369500D02*
X7612500Y-19369500D01*
X7956071Y-19205214D02*
X7984643Y-19205214D01*
X8013214Y-19219500D01*
X8027500Y-19233786D01*
X8041786Y-19262357D01*
X8056071Y-19319500D01*
X8056071Y-19390929D01*
X8041786Y-19448072D01*
X8027500Y-19476643D01*
X8013214Y-19490929D01*
X7984643Y-19505214D01*
X7956071Y-19505214D01*
X7927500Y-19490929D01*
X7913214Y-19476643D01*
X7898928Y-19448072D01*
X7884643Y-19390929D01*
X7884643Y-19319500D01*
X7898928Y-19262357D01*
X7913214Y-19233786D01*
X7927500Y-19219500D01*
X7956071Y-19205214D01*
X8184643Y-19476643D02*
X8198928Y-19490929D01*
X8184643Y-19505214D01*
X8170357Y-19490929D01*
X8184643Y-19476643D01*
X8184643Y-19505214D01*
X8370357Y-19333786D02*
X8341786Y-19319500D01*
X8327500Y-19305214D01*
X8313214Y-19276643D01*
X8313214Y-19262357D01*
X8327500Y-19233786D01*
X8341786Y-19219500D01*
X8370357Y-19205214D01*
X8427500Y-19205214D01*
X8456071Y-19219500D01*
X8470357Y-19233786D01*
X8484643Y-19262357D01*
X8484643Y-19276643D01*
X8470357Y-19305214D01*
X8456071Y-19319500D01*
X8427500Y-19333786D01*
X8370357Y-19333786D01*
X8341786Y-19348072D01*
X8327500Y-19362357D01*
X8313214Y-19390929D01*
X8313214Y-19448072D01*
X8327500Y-19476643D01*
X8341786Y-19490929D01*
X8370357Y-19505214D01*
X8427500Y-19505214D01*
X8456071Y-19490929D01*
X8470357Y-19476643D01*
X8484643Y-19448072D01*
X8484643Y-19390929D01*
X8470357Y-19362357D01*
X8456071Y-19348072D01*
X8427500Y-19333786D01*
X8770357Y-19505214D02*
X8598928Y-19505214D01*
X8684643Y-19505214D02*
X8684643Y-19205214D01*
X8656071Y-19248072D01*
X8627500Y-19276643D01*
X8598928Y-19290929D01*
X8870357Y-19205214D02*
X9056071Y-19205214D01*
X8956071Y-19319500D01*
X8998928Y-19319500D01*
X9027500Y-19333786D01*
X9041786Y-19348072D01*
X9056071Y-19376643D01*
X9056071Y-19448072D01*
X9041786Y-19476643D01*
X9027500Y-19490929D01*
X8998928Y-19505214D01*
X8913214Y-19505214D01*
X8884643Y-19490929D01*
X8870357Y-19476643D01*
X9184643Y-19505214D02*
X9184643Y-19305214D01*
X9184643Y-19333786D02*
X9198928Y-19319500D01*
X9227500Y-19305214D01*
X9270357Y-19305214D01*
X9298928Y-19319500D01*
X9313214Y-19348072D01*
X9313214Y-19505214D01*
X9313214Y-19348072D02*
X9327500Y-19319500D01*
X9356071Y-19305214D01*
X9398928Y-19305214D01*
X9427500Y-19319500D01*
X9441786Y-19348072D01*
X9441786Y-19505214D01*
X9584643Y-19505214D02*
X9584643Y-19305214D01*
X9584643Y-19333786D02*
X9598928Y-19319500D01*
X9627500Y-19305214D01*
X9670357Y-19305214D01*
X9698928Y-19319500D01*
X9713214Y-19348072D01*
X9713214Y-19505214D01*
X9713214Y-19348072D02*
X9727500Y-19319500D01*
X9756071Y-19305214D01*
X9798928Y-19305214D01*
X9827500Y-19319500D01*
X9841786Y-19348072D01*
X9841786Y-19505214D01*
X10427500Y-19190929D02*
X10170357Y-19576643D01*
X10813214Y-19205214D02*
X10841786Y-19205214D01*
X10870357Y-19219500D01*
X10884643Y-19233786D01*
X10898928Y-19262357D01*
X10913214Y-19319500D01*
X10913214Y-19390929D01*
X10898928Y-19448072D01*
X10884643Y-19476643D01*
X10870357Y-19490929D01*
X10841786Y-19505214D01*
X10813214Y-19505214D01*
X10784643Y-19490929D01*
X10770357Y-19476643D01*
X10756071Y-19448072D01*
X10741786Y-19390929D01*
X10741786Y-19319500D01*
X10756071Y-19262357D01*
X10770357Y-19233786D01*
X10784643Y-19219500D01*
X10813214Y-19205214D01*
X11041786Y-19476643D02*
X11056071Y-19490929D01*
X11041786Y-19505214D01*
X11027500Y-19490929D01*
X11041786Y-19476643D01*
X11041786Y-19505214D01*
X11241786Y-19205214D02*
X11270357Y-19205214D01*
X11298928Y-19219500D01*
X11313214Y-19233786D01*
X11327500Y-19262357D01*
X11341786Y-19319500D01*
X11341786Y-19390929D01*
X11327500Y-19448072D01*
X11313214Y-19476643D01*
X11298928Y-19490929D01*
X11270357Y-19505214D01*
X11241786Y-19505214D01*
X11213214Y-19490929D01*
X11198928Y-19476643D01*
X11184643Y-19448072D01*
X11170357Y-19390929D01*
X11170357Y-19319500D01*
X11184643Y-19262357D01*
X11198928Y-19233786D01*
X11213214Y-19219500D01*
X11241786Y-19205214D01*
X11441786Y-19205214D02*
X11627500Y-19205214D01*
X11527500Y-19319500D01*
X11570357Y-19319500D01*
X11598928Y-19333786D01*
X11613214Y-19348072D01*
X11627500Y-19376643D01*
X11627500Y-19448072D01*
X11613214Y-19476643D01*
X11598928Y-19490929D01*
X11570357Y-19505214D01*
X11484643Y-19505214D01*
X11456071Y-19490929D01*
X11441786Y-19476643D01*
X11741786Y-19233786D02*
X11756071Y-19219500D01*
X11784643Y-19205214D01*
X11856071Y-19205214D01*
X11884643Y-19219500D01*
X11898928Y-19233786D01*
X11913214Y-19262357D01*
X11913214Y-19290929D01*
X11898928Y-19333786D01*
X11727500Y-19505214D01*
X11913214Y-19505214D01*
X12098928Y-19205214D02*
X12127500Y-19205214D01*
X12156071Y-19219500D01*
X12170357Y-19233786D01*
X12184643Y-19262357D01*
X12198928Y-19319500D01*
X12198928Y-19390929D01*
X12184643Y-19448072D01*
X12170357Y-19476643D01*
X12156071Y-19490929D01*
X12127500Y-19505214D01*
X12098928Y-19505214D01*
X12070357Y-19490929D01*
X12056071Y-19476643D01*
X12041786Y-19448072D01*
X12027500Y-19390929D01*
X12027500Y-19319500D01*
X12041786Y-19262357D01*
X12056071Y-19233786D01*
X12070357Y-19219500D01*
X12098928Y-19205214D01*
X12313214Y-19205214D02*
X12313214Y-19262357D01*
X12427500Y-19205214D02*
X12427500Y-19262357D01*
X12870357Y-19619500D02*
X12856071Y-19605214D01*
X12827500Y-19562357D01*
X12813214Y-19533786D01*
X12798928Y-19490929D01*
X12784643Y-19419500D01*
X12784643Y-19362357D01*
X12798928Y-19290929D01*
X12813214Y-19248072D01*
X12827500Y-19219500D01*
X12856071Y-19176643D01*
X12870357Y-19162357D01*
X12970357Y-19233786D02*
X12984643Y-19219500D01*
X13013214Y-19205214D01*
X13084643Y-19205214D01*
X13113214Y-19219500D01*
X13127500Y-19233786D01*
X13141786Y-19262357D01*
X13141786Y-19290929D01*
X13127500Y-19333786D01*
X12956071Y-19505214D01*
X13141786Y-19505214D01*
X13327500Y-19205214D02*
X13356071Y-19205214D01*
X13384643Y-19219500D01*
X13398928Y-19233786D01*
X13413214Y-19262357D01*
X13427500Y-19319500D01*
X13427500Y-19390929D01*
X13413214Y-19448072D01*
X13398928Y-19476643D01*
X13384643Y-19490929D01*
X13356071Y-19505214D01*
X13327500Y-19505214D01*
X13298928Y-19490929D01*
X13284643Y-19476643D01*
X13270357Y-19448072D01*
X13256071Y-19390929D01*
X13256071Y-19319500D01*
X13270357Y-19262357D01*
X13284643Y-19233786D01*
X13298928Y-19219500D01*
X13327500Y-19205214D01*
X13784643Y-19505214D02*
X13784643Y-19205214D01*
X13913214Y-19505214D02*
X13913214Y-19348072D01*
X13898928Y-19319500D01*
X13870357Y-19305214D01*
X13827500Y-19305214D01*
X13798928Y-19319500D01*
X13784643Y-19333786D01*
X14098928Y-19505214D02*
X14070357Y-19490929D01*
X14056071Y-19476643D01*
X14041786Y-19448072D01*
X14041786Y-19362357D01*
X14056071Y-19333786D01*
X14070357Y-19319500D01*
X14098928Y-19305214D01*
X14141786Y-19305214D01*
X14170357Y-19319500D01*
X14184643Y-19333786D01*
X14198928Y-19362357D01*
X14198928Y-19448072D01*
X14184643Y-19476643D01*
X14170357Y-19490929D01*
X14141786Y-19505214D01*
X14098928Y-19505214D01*
X14370357Y-19505214D02*
X14341786Y-19490929D01*
X14327500Y-19462357D01*
X14327500Y-19205214D01*
X14598928Y-19490929D02*
X14570357Y-19505214D01*
X14513214Y-19505214D01*
X14484643Y-19490929D01*
X14470357Y-19462357D01*
X14470357Y-19348072D01*
X14484643Y-19319500D01*
X14513214Y-19305214D01*
X14570357Y-19305214D01*
X14598928Y-19319500D01*
X14613214Y-19348072D01*
X14613214Y-19376643D01*
X14470357Y-19405214D01*
X14727500Y-19490929D02*
X14756071Y-19505214D01*
X14813214Y-19505214D01*
X14841786Y-19490929D01*
X14856071Y-19462357D01*
X14856071Y-19448072D01*
X14841786Y-19419500D01*
X14813214Y-19405214D01*
X14770357Y-19405214D01*
X14741786Y-19390929D01*
X14727500Y-19362357D01*
X14727500Y-19348072D01*
X14741786Y-19319500D01*
X14770357Y-19305214D01*
X14813214Y-19305214D01*
X14841786Y-19319500D01*
X14956071Y-19619500D02*
X14970357Y-19605214D01*
X14998928Y-19562357D01*
X15013214Y-19533786D01*
X15027500Y-19490929D01*
X15041786Y-19419500D01*
X15041786Y-19362357D01*
X15027500Y-19290929D01*
X15013214Y-19248072D01*
X14998928Y-19219500D01*
X14970357Y-19176643D01*
X14956071Y-19162357D01*
X7597856Y-19800856D02*
X7597856Y-19730144D01*
X7527144Y-19730144D01*
X7527144Y-19800856D01*
X7597856Y-19800856D01*
X8056071Y-19901214D02*
X7884643Y-19901214D01*
X7970357Y-19901214D02*
X7970357Y-19601214D01*
X7941786Y-19644072D01*
X7913214Y-19672643D01*
X7884643Y-19686929D01*
X8184643Y-19872643D02*
X8198928Y-19886929D01*
X8184643Y-19901214D01*
X8170357Y-19886929D01*
X8184643Y-19872643D01*
X8184643Y-19901214D01*
X8384643Y-19601214D02*
X8413214Y-19601214D01*
X8441786Y-19615500D01*
X8456071Y-19629786D01*
X8470357Y-19658357D01*
X8484643Y-19715500D01*
X8484643Y-19786929D01*
X8470357Y-19844072D01*
X8456071Y-19872643D01*
X8441786Y-19886929D01*
X8413214Y-19901214D01*
X8384643Y-19901214D01*
X8356071Y-19886929D01*
X8341786Y-19872643D01*
X8327500Y-19844072D01*
X8313214Y-19786929D01*
X8313214Y-19715500D01*
X8327500Y-19658357D01*
X8341786Y-19629786D01*
X8356071Y-19615500D01*
X8384643Y-19601214D01*
X8670357Y-19601214D02*
X8698928Y-19601214D01*
X8727500Y-19615500D01*
X8741786Y-19629786D01*
X8756071Y-19658357D01*
X8770357Y-19715500D01*
X8770357Y-19786929D01*
X8756071Y-19844072D01*
X8741786Y-19872643D01*
X8727500Y-19886929D01*
X8698928Y-19901214D01*
X8670357Y-19901214D01*
X8641786Y-19886929D01*
X8627500Y-19872643D01*
X8613214Y-19844072D01*
X8598928Y-19786929D01*
X8598928Y-19715500D01*
X8613214Y-19658357D01*
X8627500Y-19629786D01*
X8641786Y-19615500D01*
X8670357Y-19601214D01*
X8956071Y-19601214D02*
X8984643Y-19601214D01*
X9013214Y-19615500D01*
X9027500Y-19629786D01*
X9041786Y-19658357D01*
X9056071Y-19715500D01*
X9056071Y-19786929D01*
X9041786Y-19844072D01*
X9027500Y-19872643D01*
X9013214Y-19886929D01*
X8984643Y-19901214D01*
X8956071Y-19901214D01*
X8927500Y-19886929D01*
X8913214Y-19872643D01*
X8898928Y-19844072D01*
X8884643Y-19786929D01*
X8884643Y-19715500D01*
X8898928Y-19658357D01*
X8913214Y-19629786D01*
X8927500Y-19615500D01*
X8956071Y-19601214D01*
X9184643Y-19901214D02*
X9184643Y-19701214D01*
X9184643Y-19729786D02*
X9198928Y-19715500D01*
X9227500Y-19701214D01*
X9270357Y-19701214D01*
X9298928Y-19715500D01*
X9313214Y-19744072D01*
X9313214Y-19901214D01*
X9313214Y-19744072D02*
X9327500Y-19715500D01*
X9356071Y-19701214D01*
X9398928Y-19701214D01*
X9427500Y-19715500D01*
X9441786Y-19744072D01*
X9441786Y-19901214D01*
X9584643Y-19901214D02*
X9584643Y-19701214D01*
X9584643Y-19729786D02*
X9598928Y-19715500D01*
X9627500Y-19701214D01*
X9670357Y-19701214D01*
X9698928Y-19715500D01*
X9713214Y-19744072D01*
X9713214Y-19901214D01*
X9713214Y-19744072D02*
X9727500Y-19715500D01*
X9756071Y-19701214D01*
X9798928Y-19701214D01*
X9827500Y-19715500D01*
X9841786Y-19744072D01*
X9841786Y-19901214D01*
X10427500Y-19586929D02*
X10170357Y-19972643D01*
X10813214Y-19601214D02*
X10841786Y-19601214D01*
X10870357Y-19615500D01*
X10884643Y-19629786D01*
X10898928Y-19658357D01*
X10913214Y-19715500D01*
X10913214Y-19786929D01*
X10898928Y-19844072D01*
X10884643Y-19872643D01*
X10870357Y-19886929D01*
X10841786Y-19901214D01*
X10813214Y-19901214D01*
X10784643Y-19886929D01*
X10770357Y-19872643D01*
X10756071Y-19844072D01*
X10741786Y-19786929D01*
X10741786Y-19715500D01*
X10756071Y-19658357D01*
X10770357Y-19629786D01*
X10784643Y-19615500D01*
X10813214Y-19601214D01*
X11041786Y-19872643D02*
X11056071Y-19886929D01*
X11041786Y-19901214D01*
X11027500Y-19886929D01*
X11041786Y-19872643D01*
X11041786Y-19901214D01*
X11241786Y-19601214D02*
X11270357Y-19601214D01*
X11298928Y-19615500D01*
X11313214Y-19629786D01*
X11327500Y-19658357D01*
X11341786Y-19715500D01*
X11341786Y-19786929D01*
X11327500Y-19844072D01*
X11313214Y-19872643D01*
X11298928Y-19886929D01*
X11270357Y-19901214D01*
X11241786Y-19901214D01*
X11213214Y-19886929D01*
X11198928Y-19872643D01*
X11184643Y-19844072D01*
X11170357Y-19786929D01*
X11170357Y-19715500D01*
X11184643Y-19658357D01*
X11198928Y-19629786D01*
X11213214Y-19615500D01*
X11241786Y-19601214D01*
X11441786Y-19601214D02*
X11627500Y-19601214D01*
X11527500Y-19715500D01*
X11570357Y-19715500D01*
X11598928Y-19729786D01*
X11613214Y-19744072D01*
X11627500Y-19772643D01*
X11627500Y-19844072D01*
X11613214Y-19872643D01*
X11598928Y-19886929D01*
X11570357Y-19901214D01*
X11484643Y-19901214D01*
X11456071Y-19886929D01*
X11441786Y-19872643D01*
X11770357Y-19901214D02*
X11827500Y-19901214D01*
X11856071Y-19886929D01*
X11870357Y-19872643D01*
X11898928Y-19829786D01*
X11913214Y-19772643D01*
X11913214Y-19658357D01*
X11898928Y-19629786D01*
X11884643Y-19615500D01*
X11856071Y-19601214D01*
X11798928Y-19601214D01*
X11770357Y-19615500D01*
X11756071Y-19629786D01*
X11741786Y-19658357D01*
X11741786Y-19729786D01*
X11756071Y-19758357D01*
X11770357Y-19772643D01*
X11798928Y-19786929D01*
X11856071Y-19786929D01*
X11884643Y-19772643D01*
X11898928Y-19758357D01*
X11913214Y-19729786D01*
X12170357Y-19701214D02*
X12170357Y-19901214D01*
X12098928Y-19586929D02*
X12027500Y-19801214D01*
X12213214Y-19801214D01*
X12313214Y-19601214D02*
X12313214Y-19658357D01*
X12427500Y-19601214D02*
X12427500Y-19658357D01*
X12870357Y-20015500D02*
X12856071Y-20001214D01*
X12827500Y-19958357D01*
X12813214Y-19929786D01*
X12798928Y-19886929D01*
X12784643Y-19815500D01*
X12784643Y-19758357D01*
X12798928Y-19686929D01*
X12813214Y-19644072D01*
X12827500Y-19615500D01*
X12856071Y-19572643D01*
X12870357Y-19558357D01*
X12970357Y-19629786D02*
X12984643Y-19615500D01*
X13013214Y-19601214D01*
X13084643Y-19601214D01*
X13113214Y-19615500D01*
X13127500Y-19629786D01*
X13141786Y-19658357D01*
X13141786Y-19686929D01*
X13127500Y-19729786D01*
X12956071Y-19901214D01*
X13141786Y-19901214D01*
X13327500Y-19601214D02*
X13356071Y-19601214D01*
X13384643Y-19615500D01*
X13398928Y-19629786D01*
X13413214Y-19658357D01*
X13427500Y-19715500D01*
X13427500Y-19786929D01*
X13413214Y-19844072D01*
X13398928Y-19872643D01*
X13384643Y-19886929D01*
X13356071Y-19901214D01*
X13327500Y-19901214D01*
X13298928Y-19886929D01*
X13284643Y-19872643D01*
X13270357Y-19844072D01*
X13256071Y-19786929D01*
X13256071Y-19715500D01*
X13270357Y-19658357D01*
X13284643Y-19629786D01*
X13298928Y-19615500D01*
X13327500Y-19601214D01*
X13784643Y-19901214D02*
X13784643Y-19601214D01*
X13913214Y-19901214D02*
X13913214Y-19744072D01*
X13898928Y-19715500D01*
X13870357Y-19701214D01*
X13827500Y-19701214D01*
X13798928Y-19715500D01*
X13784643Y-19729786D01*
X14098928Y-19901214D02*
X14070357Y-19886929D01*
X14056071Y-19872643D01*
X14041786Y-19844072D01*
X14041786Y-19758357D01*
X14056071Y-19729786D01*
X14070357Y-19715500D01*
X14098928Y-19701214D01*
X14141786Y-19701214D01*
X14170357Y-19715500D01*
X14184643Y-19729786D01*
X14198928Y-19758357D01*
X14198928Y-19844072D01*
X14184643Y-19872643D01*
X14170357Y-19886929D01*
X14141786Y-19901214D01*
X14098928Y-19901214D01*
X14370357Y-19901214D02*
X14341786Y-19886929D01*
X14327500Y-19858357D01*
X14327500Y-19601214D01*
X14598928Y-19886929D02*
X14570357Y-19901214D01*
X14513214Y-19901214D01*
X14484643Y-19886929D01*
X14470357Y-19858357D01*
X14470357Y-19744072D01*
X14484643Y-19715500D01*
X14513214Y-19701214D01*
X14570357Y-19701214D01*
X14598928Y-19715500D01*
X14613214Y-19744072D01*
X14613214Y-19772643D01*
X14470357Y-19801214D01*
X14727500Y-19886929D02*
X14756071Y-19901214D01*
X14813214Y-19901214D01*
X14841786Y-19886929D01*
X14856071Y-19858357D01*
X14856071Y-19844072D01*
X14841786Y-19815500D01*
X14813214Y-19801214D01*
X14770357Y-19801214D01*
X14741786Y-19786929D01*
X14727500Y-19758357D01*
X14727500Y-19744072D01*
X14741786Y-19715500D01*
X14770357Y-19701214D01*
X14813214Y-19701214D01*
X14841786Y-19715500D01*
X15213214Y-19786929D02*
X15441786Y-19786929D01*
X15327500Y-19901214D02*
X15327500Y-19672643D01*
X15784643Y-19601214D02*
X15984643Y-19601214D01*
X15856071Y-19901214D01*
X16313214Y-19886929D02*
X16341786Y-19901214D01*
X16398928Y-19901214D01*
X16427500Y-19886929D01*
X16441786Y-19858357D01*
X16441786Y-19844072D01*
X16427500Y-19815500D01*
X16398928Y-19801214D01*
X16356071Y-19801214D01*
X16327500Y-19786929D01*
X16313214Y-19758357D01*
X16313214Y-19744072D01*
X16327500Y-19715500D01*
X16356071Y-19701214D01*
X16398928Y-19701214D01*
X16427500Y-19715500D01*
X16613214Y-19901214D02*
X16584643Y-19886929D01*
X16570357Y-19858357D01*
X16570357Y-19601214D01*
X16770357Y-19901214D02*
X16741786Y-19886929D01*
X16727500Y-19872643D01*
X16713214Y-19844072D01*
X16713214Y-19758357D01*
X16727500Y-19729786D01*
X16741786Y-19715500D01*
X16770357Y-19701214D01*
X16813214Y-19701214D01*
X16841786Y-19715500D01*
X16856071Y-19729786D01*
X16870357Y-19758357D01*
X16870357Y-19844072D01*
X16856071Y-19872643D01*
X16841786Y-19886929D01*
X16813214Y-19901214D01*
X16770357Y-19901214D01*
X16956071Y-19701214D02*
X17070357Y-19701214D01*
X16998928Y-19601214D02*
X16998928Y-19858357D01*
X17013214Y-19886929D01*
X17041786Y-19901214D01*
X17070357Y-19901214D01*
X17156071Y-19886929D02*
X17184643Y-19901214D01*
X17241786Y-19901214D01*
X17270357Y-19886929D01*
X17284643Y-19858357D01*
X17284643Y-19844072D01*
X17270357Y-19815500D01*
X17241786Y-19801214D01*
X17198928Y-19801214D01*
X17170357Y-19786929D01*
X17156071Y-19758357D01*
X17156071Y-19744072D01*
X17170357Y-19715500D01*
X17198928Y-19701214D01*
X17241786Y-19701214D01*
X17270357Y-19715500D01*
X17384643Y-20015500D02*
X17398928Y-20001214D01*
X17427500Y-19958357D01*
X17441786Y-19929786D01*
X17456071Y-19886929D01*
X17470357Y-19815500D01*
X17470357Y-19758357D01*
X17456071Y-19686929D01*
X17441786Y-19644072D01*
X17427500Y-19615500D01*
X17398928Y-19572643D01*
X17384643Y-19558357D01*
X7557500Y-20216500D02*
X7612500Y-20161500D01*
X7557500Y-20106500D01*
X7502500Y-20161500D01*
X7557500Y-20216500D01*
X8056071Y-20297214D02*
X7884643Y-20297214D01*
X7970357Y-20297214D02*
X7970357Y-19997214D01*
X7941786Y-20040072D01*
X7913214Y-20068643D01*
X7884643Y-20082929D01*
X8184643Y-20268643D02*
X8198928Y-20282929D01*
X8184643Y-20297214D01*
X8170357Y-20282929D01*
X8184643Y-20268643D01*
X8184643Y-20297214D01*
X8484643Y-20297214D02*
X8313214Y-20297214D01*
X8398928Y-20297214D02*
X8398928Y-19997214D01*
X8370357Y-20040072D01*
X8341786Y-20068643D01*
X8313214Y-20082929D01*
X8670357Y-19997214D02*
X8698928Y-19997214D01*
X8727500Y-20011500D01*
X8741786Y-20025786D01*
X8756071Y-20054357D01*
X8770357Y-20111500D01*
X8770357Y-20182929D01*
X8756071Y-20240072D01*
X8741786Y-20268643D01*
X8727500Y-20282929D01*
X8698928Y-20297214D01*
X8670357Y-20297214D01*
X8641786Y-20282929D01*
X8627500Y-20268643D01*
X8613214Y-20240072D01*
X8598928Y-20182929D01*
X8598928Y-20111500D01*
X8613214Y-20054357D01*
X8627500Y-20025786D01*
X8641786Y-20011500D01*
X8670357Y-19997214D01*
X8956071Y-19997214D02*
X8984643Y-19997214D01*
X9013214Y-20011500D01*
X9027500Y-20025786D01*
X9041786Y-20054357D01*
X9056071Y-20111500D01*
X9056071Y-20182929D01*
X9041786Y-20240072D01*
X9027500Y-20268643D01*
X9013214Y-20282929D01*
X8984643Y-20297214D01*
X8956071Y-20297214D01*
X8927500Y-20282929D01*
X8913214Y-20268643D01*
X8898928Y-20240072D01*
X8884643Y-20182929D01*
X8884643Y-20111500D01*
X8898928Y-20054357D01*
X8913214Y-20025786D01*
X8927500Y-20011500D01*
X8956071Y-19997214D01*
X9184643Y-20297214D02*
X9184643Y-20097214D01*
X9184643Y-20125786D02*
X9198928Y-20111500D01*
X9227500Y-20097214D01*
X9270357Y-20097214D01*
X9298928Y-20111500D01*
X9313214Y-20140072D01*
X9313214Y-20297214D01*
X9313214Y-20140072D02*
X9327500Y-20111500D01*
X9356071Y-20097214D01*
X9398928Y-20097214D01*
X9427500Y-20111500D01*
X9441786Y-20140072D01*
X9441786Y-20297214D01*
X9584643Y-20297214D02*
X9584643Y-20097214D01*
X9584643Y-20125786D02*
X9598928Y-20111500D01*
X9627500Y-20097214D01*
X9670357Y-20097214D01*
X9698928Y-20111500D01*
X9713214Y-20140072D01*
X9713214Y-20297214D01*
X9713214Y-20140072D02*
X9727500Y-20111500D01*
X9756071Y-20097214D01*
X9798928Y-20097214D01*
X9827500Y-20111500D01*
X9841786Y-20140072D01*
X9841786Y-20297214D01*
X10427500Y-19982929D02*
X10170357Y-20368643D01*
X10813214Y-19997214D02*
X10841786Y-19997214D01*
X10870357Y-20011500D01*
X10884643Y-20025786D01*
X10898928Y-20054357D01*
X10913214Y-20111500D01*
X10913214Y-20182929D01*
X10898928Y-20240072D01*
X10884643Y-20268643D01*
X10870357Y-20282929D01*
X10841786Y-20297214D01*
X10813214Y-20297214D01*
X10784643Y-20282929D01*
X10770357Y-20268643D01*
X10756071Y-20240072D01*
X10741786Y-20182929D01*
X10741786Y-20111500D01*
X10756071Y-20054357D01*
X10770357Y-20025786D01*
X10784643Y-20011500D01*
X10813214Y-19997214D01*
X11041786Y-20268643D02*
X11056071Y-20282929D01*
X11041786Y-20297214D01*
X11027500Y-20282929D01*
X11041786Y-20268643D01*
X11041786Y-20297214D01*
X11241786Y-19997214D02*
X11270357Y-19997214D01*
X11298928Y-20011500D01*
X11313214Y-20025786D01*
X11327500Y-20054357D01*
X11341786Y-20111500D01*
X11341786Y-20182929D01*
X11327500Y-20240072D01*
X11313214Y-20268643D01*
X11298928Y-20282929D01*
X11270357Y-20297214D01*
X11241786Y-20297214D01*
X11213214Y-20282929D01*
X11198928Y-20268643D01*
X11184643Y-20240072D01*
X11170357Y-20182929D01*
X11170357Y-20111500D01*
X11184643Y-20054357D01*
X11198928Y-20025786D01*
X11213214Y-20011500D01*
X11241786Y-19997214D01*
X11598928Y-20097214D02*
X11598928Y-20297214D01*
X11527500Y-19982929D02*
X11456071Y-20197214D01*
X11641786Y-20197214D01*
X11727500Y-19997214D02*
X11913214Y-19997214D01*
X11813214Y-20111500D01*
X11856071Y-20111500D01*
X11884643Y-20125786D01*
X11898928Y-20140072D01*
X11913214Y-20168643D01*
X11913214Y-20240072D01*
X11898928Y-20268643D01*
X11884643Y-20282929D01*
X11856071Y-20297214D01*
X11770357Y-20297214D01*
X11741786Y-20282929D01*
X11727500Y-20268643D01*
X12013214Y-19997214D02*
X12198928Y-19997214D01*
X12098928Y-20111500D01*
X12141786Y-20111500D01*
X12170357Y-20125786D01*
X12184643Y-20140072D01*
X12198928Y-20168643D01*
X12198928Y-20240072D01*
X12184643Y-20268643D01*
X12170357Y-20282929D01*
X12141786Y-20297214D01*
X12056071Y-20297214D01*
X12027500Y-20282929D01*
X12013214Y-20268643D01*
X12313214Y-19997214D02*
X12313214Y-20054357D01*
X12427500Y-19997214D02*
X12427500Y-20054357D01*
X12870357Y-20411500D02*
X12856071Y-20397214D01*
X12827500Y-20354357D01*
X12813214Y-20325786D01*
X12798928Y-20282929D01*
X12784643Y-20211500D01*
X12784643Y-20154357D01*
X12798928Y-20082929D01*
X12813214Y-20040072D01*
X12827500Y-20011500D01*
X12856071Y-19968643D01*
X12870357Y-19954357D01*
X13113214Y-20097214D02*
X13113214Y-20297214D01*
X13041786Y-19982929D02*
X12970357Y-20197214D01*
X13156071Y-20197214D01*
X13498928Y-20297214D02*
X13498928Y-19997214D01*
X13627500Y-20297214D02*
X13627500Y-20140072D01*
X13613214Y-20111500D01*
X13584643Y-20097214D01*
X13541786Y-20097214D01*
X13513214Y-20111500D01*
X13498928Y-20125786D01*
X13813214Y-20297214D02*
X13784643Y-20282929D01*
X13770357Y-20268643D01*
X13756071Y-20240072D01*
X13756071Y-20154357D01*
X13770357Y-20125786D01*
X13784643Y-20111500D01*
X13813214Y-20097214D01*
X13856071Y-20097214D01*
X13884643Y-20111500D01*
X13898928Y-20125786D01*
X13913214Y-20154357D01*
X13913214Y-20240072D01*
X13898928Y-20268643D01*
X13884643Y-20282929D01*
X13856071Y-20297214D01*
X13813214Y-20297214D01*
X14084643Y-20297214D02*
X14056071Y-20282929D01*
X14041786Y-20254357D01*
X14041786Y-19997214D01*
X14313214Y-20282929D02*
X14284643Y-20297214D01*
X14227500Y-20297214D01*
X14198928Y-20282929D01*
X14184643Y-20254357D01*
X14184643Y-20140072D01*
X14198928Y-20111500D01*
X14227500Y-20097214D01*
X14284643Y-20097214D01*
X14313214Y-20111500D01*
X14327500Y-20140072D01*
X14327500Y-20168643D01*
X14184643Y-20197214D01*
X14441786Y-20282929D02*
X14470357Y-20297214D01*
X14527500Y-20297214D01*
X14556071Y-20282929D01*
X14570357Y-20254357D01*
X14570357Y-20240072D01*
X14556071Y-20211500D01*
X14527500Y-20197214D01*
X14484643Y-20197214D01*
X14456071Y-20182929D01*
X14441786Y-20154357D01*
X14441786Y-20140072D01*
X14456071Y-20111500D01*
X14484643Y-20097214D01*
X14527500Y-20097214D01*
X14556071Y-20111500D01*
X14670357Y-20411500D02*
X14684643Y-20397214D01*
X14713214Y-20354357D01*
X14727500Y-20325786D01*
X14741786Y-20282929D01*
X14756071Y-20211500D01*
X14756071Y-20154357D01*
X14741786Y-20082929D01*
X14727500Y-20040072D01*
X14713214Y-20011500D01*
X14684643Y-19968643D01*
X14670357Y-19954357D01*
X7493500Y-20498000D02*
X7612500Y-20617000D01*
X7612500Y-20498000D02*
X7493500Y-20617000D01*
X7612500Y-20557500D02*
G75*
G03*
X7612500Y-20557500I-59500J0D01*
G01*
X8056071Y-20693214D02*
X7884643Y-20693214D01*
X7970357Y-20693214D02*
X7970357Y-20393214D01*
X7941786Y-20436072D01*
X7913214Y-20464643D01*
X7884643Y-20478929D01*
X8184643Y-20664643D02*
X8198928Y-20678929D01*
X8184643Y-20693214D01*
X8170357Y-20678929D01*
X8184643Y-20664643D01*
X8184643Y-20693214D01*
X8484643Y-20693214D02*
X8313214Y-20693214D01*
X8398928Y-20693214D02*
X8398928Y-20393214D01*
X8370357Y-20436072D01*
X8341786Y-20464643D01*
X8313214Y-20478929D01*
X8627500Y-20693214D02*
X8684643Y-20693214D01*
X8713214Y-20678929D01*
X8727500Y-20664643D01*
X8756071Y-20621786D01*
X8770357Y-20564643D01*
X8770357Y-20450357D01*
X8756071Y-20421786D01*
X8741786Y-20407500D01*
X8713214Y-20393214D01*
X8656071Y-20393214D01*
X8627500Y-20407500D01*
X8613214Y-20421786D01*
X8598928Y-20450357D01*
X8598928Y-20521786D01*
X8613214Y-20550357D01*
X8627500Y-20564643D01*
X8656071Y-20578929D01*
X8713214Y-20578929D01*
X8741786Y-20564643D01*
X8756071Y-20550357D01*
X8770357Y-20521786D01*
X8956071Y-20393214D02*
X8984643Y-20393214D01*
X9013214Y-20407500D01*
X9027500Y-20421786D01*
X9041786Y-20450357D01*
X9056071Y-20507500D01*
X9056071Y-20578929D01*
X9041786Y-20636072D01*
X9027500Y-20664643D01*
X9013214Y-20678929D01*
X8984643Y-20693214D01*
X8956071Y-20693214D01*
X8927500Y-20678929D01*
X8913214Y-20664643D01*
X8898928Y-20636072D01*
X8884643Y-20578929D01*
X8884643Y-20507500D01*
X8898928Y-20450357D01*
X8913214Y-20421786D01*
X8927500Y-20407500D01*
X8956071Y-20393214D01*
X9184643Y-20693214D02*
X9184643Y-20493214D01*
X9184643Y-20521786D02*
X9198928Y-20507500D01*
X9227500Y-20493214D01*
X9270357Y-20493214D01*
X9298928Y-20507500D01*
X9313214Y-20536072D01*
X9313214Y-20693214D01*
X9313214Y-20536072D02*
X9327500Y-20507500D01*
X9356071Y-20493214D01*
X9398928Y-20493214D01*
X9427500Y-20507500D01*
X9441786Y-20536072D01*
X9441786Y-20693214D01*
X9584643Y-20693214D02*
X9584643Y-20493214D01*
X9584643Y-20521786D02*
X9598928Y-20507500D01*
X9627500Y-20493214D01*
X9670357Y-20493214D01*
X9698928Y-20507500D01*
X9713214Y-20536072D01*
X9713214Y-20693214D01*
X9713214Y-20536072D02*
X9727500Y-20507500D01*
X9756071Y-20493214D01*
X9798928Y-20493214D01*
X9827500Y-20507500D01*
X9841786Y-20536072D01*
X9841786Y-20693214D01*
X10427500Y-20378929D02*
X10170357Y-20764643D01*
X10813214Y-20393214D02*
X10841786Y-20393214D01*
X10870357Y-20407500D01*
X10884643Y-20421786D01*
X10898928Y-20450357D01*
X10913214Y-20507500D01*
X10913214Y-20578929D01*
X10898928Y-20636072D01*
X10884643Y-20664643D01*
X10870357Y-20678929D01*
X10841786Y-20693214D01*
X10813214Y-20693214D01*
X10784643Y-20678929D01*
X10770357Y-20664643D01*
X10756071Y-20636072D01*
X10741786Y-20578929D01*
X10741786Y-20507500D01*
X10756071Y-20450357D01*
X10770357Y-20421786D01*
X10784643Y-20407500D01*
X10813214Y-20393214D01*
X11041786Y-20664643D02*
X11056071Y-20678929D01*
X11041786Y-20693214D01*
X11027500Y-20678929D01*
X11041786Y-20664643D01*
X11041786Y-20693214D01*
X11241786Y-20393214D02*
X11270357Y-20393214D01*
X11298928Y-20407500D01*
X11313214Y-20421786D01*
X11327500Y-20450357D01*
X11341786Y-20507500D01*
X11341786Y-20578929D01*
X11327500Y-20636072D01*
X11313214Y-20664643D01*
X11298928Y-20678929D01*
X11270357Y-20693214D01*
X11241786Y-20693214D01*
X11213214Y-20678929D01*
X11198928Y-20664643D01*
X11184643Y-20636072D01*
X11170357Y-20578929D01*
X11170357Y-20507500D01*
X11184643Y-20450357D01*
X11198928Y-20421786D01*
X11213214Y-20407500D01*
X11241786Y-20393214D01*
X11598928Y-20493214D02*
X11598928Y-20693214D01*
X11527500Y-20378929D02*
X11456071Y-20593214D01*
X11641786Y-20593214D01*
X11884643Y-20393214D02*
X11827500Y-20393214D01*
X11798928Y-20407500D01*
X11784643Y-20421786D01*
X11756071Y-20464643D01*
X11741786Y-20521786D01*
X11741786Y-20636072D01*
X11756071Y-20664643D01*
X11770357Y-20678929D01*
X11798928Y-20693214D01*
X11856071Y-20693214D01*
X11884643Y-20678929D01*
X11898928Y-20664643D01*
X11913214Y-20636072D01*
X11913214Y-20564643D01*
X11898928Y-20536072D01*
X11884643Y-20521786D01*
X11856071Y-20507500D01*
X11798928Y-20507500D01*
X11770357Y-20521786D01*
X11756071Y-20536072D01*
X11741786Y-20564643D01*
X12056071Y-20693214D02*
X12113214Y-20693214D01*
X12141786Y-20678929D01*
X12156071Y-20664643D01*
X12184643Y-20621786D01*
X12198928Y-20564643D01*
X12198928Y-20450357D01*
X12184643Y-20421786D01*
X12170357Y-20407500D01*
X12141786Y-20393214D01*
X12084643Y-20393214D01*
X12056071Y-20407500D01*
X12041786Y-20421786D01*
X12027500Y-20450357D01*
X12027500Y-20521786D01*
X12041786Y-20550357D01*
X12056071Y-20564643D01*
X12084643Y-20578929D01*
X12141786Y-20578929D01*
X12170357Y-20564643D01*
X12184643Y-20550357D01*
X12198928Y-20521786D01*
X12313214Y-20393214D02*
X12313214Y-20450357D01*
X12427500Y-20393214D02*
X12427500Y-20450357D01*
X12870357Y-20807500D02*
X12856071Y-20793214D01*
X12827500Y-20750357D01*
X12813214Y-20721786D01*
X12798928Y-20678929D01*
X12784643Y-20607500D01*
X12784643Y-20550357D01*
X12798928Y-20478929D01*
X12813214Y-20436072D01*
X12827500Y-20407500D01*
X12856071Y-20364643D01*
X12870357Y-20350357D01*
X12970357Y-20421786D02*
X12984643Y-20407500D01*
X13013214Y-20393214D01*
X13084643Y-20393214D01*
X13113214Y-20407500D01*
X13127500Y-20421786D01*
X13141786Y-20450357D01*
X13141786Y-20478929D01*
X13127500Y-20521786D01*
X12956071Y-20693214D01*
X13141786Y-20693214D01*
X13498928Y-20693214D02*
X13498928Y-20393214D01*
X13627500Y-20693214D02*
X13627500Y-20536072D01*
X13613214Y-20507500D01*
X13584643Y-20493214D01*
X13541786Y-20493214D01*
X13513214Y-20507500D01*
X13498928Y-20521786D01*
X13813214Y-20693214D02*
X13784643Y-20678929D01*
X13770357Y-20664643D01*
X13756071Y-20636072D01*
X13756071Y-20550357D01*
X13770357Y-20521786D01*
X13784643Y-20507500D01*
X13813214Y-20493214D01*
X13856071Y-20493214D01*
X13884643Y-20507500D01*
X13898928Y-20521786D01*
X13913214Y-20550357D01*
X13913214Y-20636072D01*
X13898928Y-20664643D01*
X13884643Y-20678929D01*
X13856071Y-20693214D01*
X13813214Y-20693214D01*
X14084643Y-20693214D02*
X14056071Y-20678929D01*
X14041786Y-20650357D01*
X14041786Y-20393214D01*
X14313214Y-20678929D02*
X14284643Y-20693214D01*
X14227500Y-20693214D01*
X14198928Y-20678929D01*
X14184643Y-20650357D01*
X14184643Y-20536072D01*
X14198928Y-20507500D01*
X14227500Y-20493214D01*
X14284643Y-20493214D01*
X14313214Y-20507500D01*
X14327500Y-20536072D01*
X14327500Y-20564643D01*
X14184643Y-20593214D01*
X14441786Y-20678929D02*
X14470357Y-20693214D01*
X14527500Y-20693214D01*
X14556071Y-20678929D01*
X14570357Y-20650357D01*
X14570357Y-20636072D01*
X14556071Y-20607500D01*
X14527500Y-20593214D01*
X14484643Y-20593214D01*
X14456071Y-20578929D01*
X14441786Y-20550357D01*
X14441786Y-20536072D01*
X14456071Y-20507500D01*
X14484643Y-20493214D01*
X14527500Y-20493214D01*
X14556071Y-20507500D01*
X14670357Y-20807500D02*
X14684643Y-20793214D01*
X14713214Y-20750357D01*
X14727500Y-20721786D01*
X14741786Y-20678929D01*
X14756071Y-20607500D01*
X14756071Y-20550357D01*
X14741786Y-20478929D01*
X14727500Y-20436072D01*
X14713214Y-20407500D01*
X14684643Y-20364643D01*
X14670357Y-20350357D01*
X7412500Y-20853500D02*
X7612500Y-21053500D01*
X7612500Y-20853500D02*
X7412500Y-21053500D01*
X7512500Y-20853500D02*
X7512500Y-21053500D01*
X7412500Y-20953500D02*
X7612500Y-20953500D01*
X7884643Y-20817786D02*
X7898928Y-20803500D01*
X7927500Y-20789214D01*
X7998928Y-20789214D01*
X8027500Y-20803500D01*
X8041786Y-20817786D01*
X8056071Y-20846357D01*
X8056071Y-20874929D01*
X8041786Y-20917786D01*
X7870357Y-21089214D01*
X8056071Y-21089214D01*
X8184643Y-21060643D02*
X8198928Y-21074929D01*
X8184643Y-21089214D01*
X8170357Y-21074929D01*
X8184643Y-21060643D01*
X8184643Y-21089214D01*
X8384643Y-20789214D02*
X8413214Y-20789214D01*
X8441786Y-20803500D01*
X8456071Y-20817786D01*
X8470357Y-20846357D01*
X8484643Y-20903500D01*
X8484643Y-20974929D01*
X8470357Y-21032072D01*
X8456071Y-21060643D01*
X8441786Y-21074929D01*
X8413214Y-21089214D01*
X8384643Y-21089214D01*
X8356071Y-21074929D01*
X8341786Y-21060643D01*
X8327500Y-21032072D01*
X8313214Y-20974929D01*
X8313214Y-20903500D01*
X8327500Y-20846357D01*
X8341786Y-20817786D01*
X8356071Y-20803500D01*
X8384643Y-20789214D01*
X8670357Y-20789214D02*
X8698928Y-20789214D01*
X8727500Y-20803500D01*
X8741786Y-20817786D01*
X8756071Y-20846357D01*
X8770357Y-20903500D01*
X8770357Y-20974929D01*
X8756071Y-21032072D01*
X8741786Y-21060643D01*
X8727500Y-21074929D01*
X8698928Y-21089214D01*
X8670357Y-21089214D01*
X8641786Y-21074929D01*
X8627500Y-21060643D01*
X8613214Y-21032072D01*
X8598928Y-20974929D01*
X8598928Y-20903500D01*
X8613214Y-20846357D01*
X8627500Y-20817786D01*
X8641786Y-20803500D01*
X8670357Y-20789214D01*
X8956071Y-20789214D02*
X8984643Y-20789214D01*
X9013214Y-20803500D01*
X9027500Y-20817786D01*
X9041786Y-20846357D01*
X9056071Y-20903500D01*
X9056071Y-20974929D01*
X9041786Y-21032072D01*
X9027500Y-21060643D01*
X9013214Y-21074929D01*
X8984643Y-21089214D01*
X8956071Y-21089214D01*
X8927500Y-21074929D01*
X8913214Y-21060643D01*
X8898928Y-21032072D01*
X8884643Y-20974929D01*
X8884643Y-20903500D01*
X8898928Y-20846357D01*
X8913214Y-20817786D01*
X8927500Y-20803500D01*
X8956071Y-20789214D01*
X9184643Y-21089214D02*
X9184643Y-20889214D01*
X9184643Y-20917786D02*
X9198928Y-20903500D01*
X9227500Y-20889214D01*
X9270357Y-20889214D01*
X9298928Y-20903500D01*
X9313214Y-20932072D01*
X9313214Y-21089214D01*
X9313214Y-20932072D02*
X9327500Y-20903500D01*
X9356071Y-20889214D01*
X9398928Y-20889214D01*
X9427500Y-20903500D01*
X9441786Y-20932072D01*
X9441786Y-21089214D01*
X9584643Y-21089214D02*
X9584643Y-20889214D01*
X9584643Y-20917786D02*
X9598928Y-20903500D01*
X9627500Y-20889214D01*
X9670357Y-20889214D01*
X9698928Y-20903500D01*
X9713214Y-20932072D01*
X9713214Y-21089214D01*
X9713214Y-20932072D02*
X9727500Y-20903500D01*
X9756071Y-20889214D01*
X9798928Y-20889214D01*
X9827500Y-20903500D01*
X9841786Y-20932072D01*
X9841786Y-21089214D01*
X10427500Y-20774929D02*
X10170357Y-21160643D01*
X10813214Y-20789214D02*
X10841786Y-20789214D01*
X10870357Y-20803500D01*
X10884643Y-20817786D01*
X10898928Y-20846357D01*
X10913214Y-20903500D01*
X10913214Y-20974929D01*
X10898928Y-21032072D01*
X10884643Y-21060643D01*
X10870357Y-21074929D01*
X10841786Y-21089214D01*
X10813214Y-21089214D01*
X10784643Y-21074929D01*
X10770357Y-21060643D01*
X10756071Y-21032072D01*
X10741786Y-20974929D01*
X10741786Y-20903500D01*
X10756071Y-20846357D01*
X10770357Y-20817786D01*
X10784643Y-20803500D01*
X10813214Y-20789214D01*
X11041786Y-21060643D02*
X11056071Y-21074929D01*
X11041786Y-21089214D01*
X11027500Y-21074929D01*
X11041786Y-21060643D01*
X11041786Y-21089214D01*
X11241786Y-20789214D02*
X11270357Y-20789214D01*
X11298928Y-20803500D01*
X11313214Y-20817786D01*
X11327500Y-20846357D01*
X11341786Y-20903500D01*
X11341786Y-20974929D01*
X11327500Y-21032072D01*
X11313214Y-21060643D01*
X11298928Y-21074929D01*
X11270357Y-21089214D01*
X11241786Y-21089214D01*
X11213214Y-21074929D01*
X11198928Y-21060643D01*
X11184643Y-21032072D01*
X11170357Y-20974929D01*
X11170357Y-20903500D01*
X11184643Y-20846357D01*
X11198928Y-20817786D01*
X11213214Y-20803500D01*
X11241786Y-20789214D01*
X11441786Y-20789214D02*
X11641786Y-20789214D01*
X11513214Y-21089214D01*
X11798928Y-20917786D02*
X11770357Y-20903500D01*
X11756071Y-20889214D01*
X11741786Y-20860643D01*
X11741786Y-20846357D01*
X11756071Y-20817786D01*
X11770357Y-20803500D01*
X11798928Y-20789214D01*
X11856071Y-20789214D01*
X11884643Y-20803500D01*
X11898928Y-20817786D01*
X11913214Y-20846357D01*
X11913214Y-20860643D01*
X11898928Y-20889214D01*
X11884643Y-20903500D01*
X11856071Y-20917786D01*
X11798928Y-20917786D01*
X11770357Y-20932072D01*
X11756071Y-20946357D01*
X11741786Y-20974929D01*
X11741786Y-21032072D01*
X11756071Y-21060643D01*
X11770357Y-21074929D01*
X11798928Y-21089214D01*
X11856071Y-21089214D01*
X11884643Y-21074929D01*
X11898928Y-21060643D01*
X11913214Y-21032072D01*
X11913214Y-20974929D01*
X11898928Y-20946357D01*
X11884643Y-20932072D01*
X11856071Y-20917786D01*
X12013214Y-20789214D02*
X12213214Y-20789214D01*
X12084643Y-21089214D01*
X12313214Y-20789214D02*
X12313214Y-20846357D01*
X12427500Y-20789214D02*
X12427500Y-20846357D01*
X12870357Y-21203500D02*
X12856071Y-21189214D01*
X12827500Y-21146357D01*
X12813214Y-21117786D01*
X12798928Y-21074929D01*
X12784643Y-21003500D01*
X12784643Y-20946357D01*
X12798928Y-20874929D01*
X12813214Y-20832072D01*
X12827500Y-20803500D01*
X12856071Y-20760643D01*
X12870357Y-20746357D01*
X12970357Y-20817786D02*
X12984643Y-20803500D01*
X13013214Y-20789214D01*
X13084643Y-20789214D01*
X13113214Y-20803500D01*
X13127500Y-20817786D01*
X13141786Y-20846357D01*
X13141786Y-20874929D01*
X13127500Y-20917786D01*
X12956071Y-21089214D01*
X13141786Y-21089214D01*
X13498928Y-21089214D02*
X13498928Y-20789214D01*
X13627500Y-21089214D02*
X13627500Y-20932072D01*
X13613214Y-20903500D01*
X13584643Y-20889214D01*
X13541786Y-20889214D01*
X13513214Y-20903500D01*
X13498928Y-20917786D01*
X13813214Y-21089214D02*
X13784643Y-21074929D01*
X13770357Y-21060643D01*
X13756071Y-21032072D01*
X13756071Y-20946357D01*
X13770357Y-20917786D01*
X13784643Y-20903500D01*
X13813214Y-20889214D01*
X13856071Y-20889214D01*
X13884643Y-20903500D01*
X13898928Y-20917786D01*
X13913214Y-20946357D01*
X13913214Y-21032072D01*
X13898928Y-21060643D01*
X13884643Y-21074929D01*
X13856071Y-21089214D01*
X13813214Y-21089214D01*
X14084643Y-21089214D02*
X14056071Y-21074929D01*
X14041786Y-21046357D01*
X14041786Y-20789214D01*
X14313214Y-21074929D02*
X14284643Y-21089214D01*
X14227500Y-21089214D01*
X14198928Y-21074929D01*
X14184643Y-21046357D01*
X14184643Y-20932072D01*
X14198928Y-20903500D01*
X14227500Y-20889214D01*
X14284643Y-20889214D01*
X14313214Y-20903500D01*
X14327500Y-20932072D01*
X14327500Y-20960643D01*
X14184643Y-20989214D01*
X14441786Y-21074929D02*
X14470357Y-21089214D01*
X14527500Y-21089214D01*
X14556071Y-21074929D01*
X14570357Y-21046357D01*
X14570357Y-21032072D01*
X14556071Y-21003500D01*
X14527500Y-20989214D01*
X14484643Y-20989214D01*
X14456071Y-20974929D01*
X14441786Y-20946357D01*
X14441786Y-20932072D01*
X14456071Y-20903500D01*
X14484643Y-20889214D01*
X14527500Y-20889214D01*
X14556071Y-20903500D01*
X14670357Y-21203500D02*
X14684643Y-21189214D01*
X14713214Y-21146357D01*
X14727500Y-21117786D01*
X14741786Y-21074929D01*
X14756071Y-21003500D01*
X14756071Y-20946357D01*
X14741786Y-20874929D01*
X14727500Y-20832072D01*
X14713214Y-20803500D01*
X14684643Y-20760643D01*
X14670357Y-20746357D01*
X7307500Y-21197000D02*
X7612500Y-21502000D01*
X7612500Y-21197000D02*
X7307500Y-21502000D01*
X7567835Y-21457335D02*
X7567835Y-21241665D01*
X7352165Y-21241665D01*
X7352165Y-21457335D01*
X7567835Y-21457335D01*
X7870357Y-21185214D02*
X8056071Y-21185214D01*
X7956071Y-21299500D01*
X7998928Y-21299500D01*
X8027500Y-21313786D01*
X8041786Y-21328072D01*
X8056071Y-21356643D01*
X8056071Y-21428072D01*
X8041786Y-21456643D01*
X8027500Y-21470929D01*
X7998928Y-21485214D01*
X7913214Y-21485214D01*
X7884643Y-21470929D01*
X7870357Y-21456643D01*
X8184643Y-21456643D02*
X8198928Y-21470929D01*
X8184643Y-21485214D01*
X8170357Y-21470929D01*
X8184643Y-21456643D01*
X8184643Y-21485214D01*
X8384643Y-21185214D02*
X8413214Y-21185214D01*
X8441786Y-21199500D01*
X8456071Y-21213786D01*
X8470357Y-21242357D01*
X8484643Y-21299500D01*
X8484643Y-21370929D01*
X8470357Y-21428072D01*
X8456071Y-21456643D01*
X8441786Y-21470929D01*
X8413214Y-21485214D01*
X8384643Y-21485214D01*
X8356071Y-21470929D01*
X8341786Y-21456643D01*
X8327500Y-21428072D01*
X8313214Y-21370929D01*
X8313214Y-21299500D01*
X8327500Y-21242357D01*
X8341786Y-21213786D01*
X8356071Y-21199500D01*
X8384643Y-21185214D01*
X8756071Y-21185214D02*
X8613214Y-21185214D01*
X8598928Y-21328072D01*
X8613214Y-21313786D01*
X8641786Y-21299500D01*
X8713214Y-21299500D01*
X8741786Y-21313786D01*
X8756071Y-21328072D01*
X8770357Y-21356643D01*
X8770357Y-21428072D01*
X8756071Y-21456643D01*
X8741786Y-21470929D01*
X8713214Y-21485214D01*
X8641786Y-21485214D01*
X8613214Y-21470929D01*
X8598928Y-21456643D01*
X8956071Y-21185214D02*
X8984643Y-21185214D01*
X9013214Y-21199500D01*
X9027500Y-21213786D01*
X9041786Y-21242357D01*
X9056071Y-21299500D01*
X9056071Y-21370929D01*
X9041786Y-21428072D01*
X9027500Y-21456643D01*
X9013214Y-21470929D01*
X8984643Y-21485214D01*
X8956071Y-21485214D01*
X8927500Y-21470929D01*
X8913214Y-21456643D01*
X8898928Y-21428072D01*
X8884643Y-21370929D01*
X8884643Y-21299500D01*
X8898928Y-21242357D01*
X8913214Y-21213786D01*
X8927500Y-21199500D01*
X8956071Y-21185214D01*
X9184643Y-21485214D02*
X9184643Y-21285214D01*
X9184643Y-21313786D02*
X9198928Y-21299500D01*
X9227500Y-21285214D01*
X9270357Y-21285214D01*
X9298928Y-21299500D01*
X9313214Y-21328072D01*
X9313214Y-21485214D01*
X9313214Y-21328072D02*
X9327500Y-21299500D01*
X9356071Y-21285214D01*
X9398928Y-21285214D01*
X9427500Y-21299500D01*
X9441786Y-21328072D01*
X9441786Y-21485214D01*
X9584643Y-21485214D02*
X9584643Y-21285214D01*
X9584643Y-21313786D02*
X9598928Y-21299500D01*
X9627500Y-21285214D01*
X9670357Y-21285214D01*
X9698928Y-21299500D01*
X9713214Y-21328072D01*
X9713214Y-21485214D01*
X9713214Y-21328072D02*
X9727500Y-21299500D01*
X9756071Y-21285214D01*
X9798928Y-21285214D01*
X9827500Y-21299500D01*
X9841786Y-21328072D01*
X9841786Y-21485214D01*
X10427500Y-21170929D02*
X10170357Y-21556643D01*
X10813214Y-21185214D02*
X10841786Y-21185214D01*
X10870357Y-21199500D01*
X10884643Y-21213786D01*
X10898928Y-21242357D01*
X10913214Y-21299500D01*
X10913214Y-21370929D01*
X10898928Y-21428072D01*
X10884643Y-21456643D01*
X10870357Y-21470929D01*
X10841786Y-21485214D01*
X10813214Y-21485214D01*
X10784643Y-21470929D01*
X10770357Y-21456643D01*
X10756071Y-21428072D01*
X10741786Y-21370929D01*
X10741786Y-21299500D01*
X10756071Y-21242357D01*
X10770357Y-21213786D01*
X10784643Y-21199500D01*
X10813214Y-21185214D01*
X11041786Y-21456643D02*
X11056071Y-21470929D01*
X11041786Y-21485214D01*
X11027500Y-21470929D01*
X11041786Y-21456643D01*
X11041786Y-21485214D01*
X11341786Y-21485214D02*
X11170357Y-21485214D01*
X11256071Y-21485214D02*
X11256071Y-21185214D01*
X11227500Y-21228072D01*
X11198928Y-21256643D01*
X11170357Y-21270929D01*
X11456071Y-21213786D02*
X11470357Y-21199500D01*
X11498928Y-21185214D01*
X11570357Y-21185214D01*
X11598928Y-21199500D01*
X11613214Y-21213786D01*
X11627500Y-21242357D01*
X11627500Y-21270929D01*
X11613214Y-21313786D01*
X11441786Y-21485214D01*
X11627500Y-21485214D01*
X11813214Y-21185214D02*
X11841786Y-21185214D01*
X11870357Y-21199500D01*
X11884643Y-21213786D01*
X11898928Y-21242357D01*
X11913214Y-21299500D01*
X11913214Y-21370929D01*
X11898928Y-21428072D01*
X11884643Y-21456643D01*
X11870357Y-21470929D01*
X11841786Y-21485214D01*
X11813214Y-21485214D01*
X11784643Y-21470929D01*
X11770357Y-21456643D01*
X11756071Y-21428072D01*
X11741786Y-21370929D01*
X11741786Y-21299500D01*
X11756071Y-21242357D01*
X11770357Y-21213786D01*
X11784643Y-21199500D01*
X11813214Y-21185214D01*
X12198928Y-21485214D02*
X12027500Y-21485214D01*
X12113214Y-21485214D02*
X12113214Y-21185214D01*
X12084643Y-21228072D01*
X12056071Y-21256643D01*
X12027500Y-21270929D01*
X12313214Y-21185214D02*
X12313214Y-21242357D01*
X12427500Y-21185214D02*
X12427500Y-21242357D01*
X12870357Y-21599500D02*
X12856071Y-21585214D01*
X12827500Y-21542357D01*
X12813214Y-21513786D01*
X12798928Y-21470929D01*
X12784643Y-21399500D01*
X12784643Y-21342357D01*
X12798928Y-21270929D01*
X12813214Y-21228072D01*
X12827500Y-21199500D01*
X12856071Y-21156643D01*
X12870357Y-21142357D01*
X12970357Y-21213786D02*
X12984643Y-21199500D01*
X13013214Y-21185214D01*
X13084643Y-21185214D01*
X13113214Y-21199500D01*
X13127500Y-21213786D01*
X13141786Y-21242357D01*
X13141786Y-21270929D01*
X13127500Y-21313786D01*
X12956071Y-21485214D01*
X13141786Y-21485214D01*
X13498928Y-21485214D02*
X13498928Y-21185214D01*
X13627500Y-21485214D02*
X13627500Y-21328072D01*
X13613214Y-21299500D01*
X13584643Y-21285214D01*
X13541786Y-21285214D01*
X13513214Y-21299500D01*
X13498928Y-21313786D01*
X13813214Y-21485214D02*
X13784643Y-21470929D01*
X13770357Y-21456643D01*
X13756071Y-21428072D01*
X13756071Y-21342357D01*
X13770357Y-21313786D01*
X13784643Y-21299500D01*
X13813214Y-21285214D01*
X13856071Y-21285214D01*
X13884643Y-21299500D01*
X13898928Y-21313786D01*
X13913214Y-21342357D01*
X13913214Y-21428072D01*
X13898928Y-21456643D01*
X13884643Y-21470929D01*
X13856071Y-21485214D01*
X13813214Y-21485214D01*
X14084643Y-21485214D02*
X14056071Y-21470929D01*
X14041786Y-21442357D01*
X14041786Y-21185214D01*
X14313214Y-21470929D02*
X14284643Y-21485214D01*
X14227500Y-21485214D01*
X14198928Y-21470929D01*
X14184643Y-21442357D01*
X14184643Y-21328072D01*
X14198928Y-21299500D01*
X14227500Y-21285214D01*
X14284643Y-21285214D01*
X14313214Y-21299500D01*
X14327500Y-21328072D01*
X14327500Y-21356643D01*
X14184643Y-21385214D01*
X14441786Y-21470929D02*
X14470357Y-21485214D01*
X14527500Y-21485214D01*
X14556071Y-21470929D01*
X14570357Y-21442357D01*
X14570357Y-21428072D01*
X14556071Y-21399500D01*
X14527500Y-21385214D01*
X14484643Y-21385214D01*
X14456071Y-21370929D01*
X14441786Y-21342357D01*
X14441786Y-21328072D01*
X14456071Y-21299500D01*
X14484643Y-21285214D01*
X14527500Y-21285214D01*
X14556071Y-21299500D01*
X14670357Y-21599500D02*
X14684643Y-21585214D01*
X14713214Y-21542357D01*
X14727500Y-21513786D01*
X14741786Y-21470929D01*
X14756071Y-21399500D01*
X14756071Y-21342357D01*
X14741786Y-21270929D01*
X14727500Y-21228072D01*
X14713214Y-21199500D01*
X14684643Y-21156643D01*
X14670357Y-21142357D01*
M02*
